<mxfile host="app.diagrams.net" modified="2021-10-27T01:30:02.820Z" agent="5.0 (Windows NT 10.0; Win64; x64) AppleWebKit/537.36 (KHTML, like Gecko) Chrome/95.0.4638.54 Safari/537.36" etag="OfDMtr3anqzwIlhThMB9" version="15.5.9" type="github">
  <diagram id="YUgpCqgbgq5mijMRGzla" name="第 1 页">
    <mxGraphModel dx="1717" dy="1064" grid="1" gridSize="10" guides="1" tooltips="1" connect="1" arrows="1" fold="1" page="1" pageScale="1" pageWidth="1169" pageHeight="827" math="0" shadow="0">
      <root>
        <mxCell id="0" />
        <mxCell id="1" parent="0" />
        <mxCell id="JTHi2xGZQW8xrlHGtvwv-20" style="edgeStyle=orthogonalEdgeStyle;rounded=0;orthogonalLoop=1;jettySize=auto;html=1;entryX=0.5;entryY=0;entryDx=0;entryDy=0;" edge="1" parent="1" source="JTHi2xGZQW8xrlHGtvwv-3" target="JTHi2xGZQW8xrlHGtvwv-4">
          <mxGeometry relative="1" as="geometry" />
        </mxCell>
        <mxCell id="JTHi2xGZQW8xrlHGtvwv-3" value="房间" style="ellipse;whiteSpace=wrap;html=1;" vertex="1" parent="1">
          <mxGeometry x="510" y="330" width="120" height="70" as="geometry" />
        </mxCell>
        <mxCell id="JTHi2xGZQW8xrlHGtvwv-19" style="edgeStyle=orthogonalEdgeStyle;rounded=0;orthogonalLoop=1;jettySize=auto;html=1;entryX=0.5;entryY=0;entryDx=0;entryDy=0;" edge="1" parent="1" source="JTHi2xGZQW8xrlHGtvwv-4" target="JTHi2xGZQW8xrlHGtvwv-7">
          <mxGeometry relative="1" as="geometry" />
        </mxCell>
        <mxCell id="JTHi2xGZQW8xrlHGtvwv-28" style="edgeStyle=orthogonalEdgeStyle;rounded=0;orthogonalLoop=1;jettySize=auto;html=1;entryX=0.5;entryY=0;entryDx=0;entryDy=0;" edge="1" parent="1" source="JTHi2xGZQW8xrlHGtvwv-4" target="JTHi2xGZQW8xrlHGtvwv-15">
          <mxGeometry relative="1" as="geometry" />
        </mxCell>
        <mxCell id="JTHi2xGZQW8xrlHGtvwv-4" value="形状" style="shape=parallelogram;perimeter=parallelogramPerimeter;whiteSpace=wrap;html=1;fixedSize=1;" vertex="1" parent="1">
          <mxGeometry x="510" y="440" width="120" height="60" as="geometry" />
        </mxCell>
        <mxCell id="JTHi2xGZQW8xrlHGtvwv-22" style="edgeStyle=orthogonalEdgeStyle;rounded=0;orthogonalLoop=1;jettySize=auto;html=1;" edge="1" parent="1" source="JTHi2xGZQW8xrlHGtvwv-5" target="JTHi2xGZQW8xrlHGtvwv-9">
          <mxGeometry relative="1" as="geometry" />
        </mxCell>
        <mxCell id="JTHi2xGZQW8xrlHGtvwv-5" value="1、多选家具&lt;br&gt;（同时匹配）" style="shape=process;whiteSpace=wrap;html=1;backgroundOutline=1;fillColor=#fff2cc;strokeColor=#d6b656;fontStyle=1" vertex="1" parent="1">
          <mxGeometry x="510" y="610" width="120" height="60" as="geometry" />
        </mxCell>
        <mxCell id="JTHi2xGZQW8xrlHGtvwv-21" style="edgeStyle=orthogonalEdgeStyle;rounded=0;orthogonalLoop=1;jettySize=auto;html=1;entryX=0.5;entryY=0;entryDx=0;entryDy=0;" edge="1" parent="1" source="JTHi2xGZQW8xrlHGtvwv-7" target="JTHi2xGZQW8xrlHGtvwv-5">
          <mxGeometry relative="1" as="geometry" />
        </mxCell>
        <mxCell id="JTHi2xGZQW8xrlHGtvwv-7" value="面积" style="rounded=0;whiteSpace=wrap;html=1;" vertex="1" parent="1">
          <mxGeometry x="510" y="530" width="120" height="60" as="geometry" />
        </mxCell>
        <mxCell id="JTHi2xGZQW8xrlHGtvwv-23" style="edgeStyle=orthogonalEdgeStyle;rounded=0;orthogonalLoop=1;jettySize=auto;html=1;" edge="1" parent="1" source="JTHi2xGZQW8xrlHGtvwv-9" target="JTHi2xGZQW8xrlHGtvwv-10">
          <mxGeometry relative="1" as="geometry" />
        </mxCell>
        <mxCell id="JTHi2xGZQW8xrlHGtvwv-9" value="风格" style="rounded=1;whiteSpace=wrap;html=1;" vertex="1" parent="1">
          <mxGeometry x="510" y="700" width="120" height="60" as="geometry" />
        </mxCell>
        <mxCell id="JTHi2xGZQW8xrlHGtvwv-24" style="edgeStyle=orthogonalEdgeStyle;rounded=0;orthogonalLoop=1;jettySize=auto;html=1;entryX=0.5;entryY=0;entryDx=0;entryDy=0;" edge="1" parent="1" source="JTHi2xGZQW8xrlHGtvwv-10" target="JTHi2xGZQW8xrlHGtvwv-11">
          <mxGeometry relative="1" as="geometry" />
        </mxCell>
        <mxCell id="JTHi2xGZQW8xrlHGtvwv-10" value="结果" style="shape=cylinder3;whiteSpace=wrap;html=1;boundedLbl=1;backgroundOutline=1;size=15;" vertex="1" parent="1">
          <mxGeometry x="540" y="800" width="60" height="80" as="geometry" />
        </mxCell>
        <mxCell id="JTHi2xGZQW8xrlHGtvwv-13" style="edgeStyle=orthogonalEdgeStyle;rounded=0;orthogonalLoop=1;jettySize=auto;html=1;entryX=0.5;entryY=1;entryDx=0;entryDy=0;" edge="1" parent="1" source="JTHi2xGZQW8xrlHGtvwv-11" target="JTHi2xGZQW8xrlHGtvwv-12">
          <mxGeometry relative="1" as="geometry" />
        </mxCell>
        <mxCell id="JTHi2xGZQW8xrlHGtvwv-16" style="edgeStyle=orthogonalEdgeStyle;rounded=0;orthogonalLoop=1;jettySize=auto;html=1;entryX=0.5;entryY=1;entryDx=0;entryDy=0;" edge="1" parent="1" source="JTHi2xGZQW8xrlHGtvwv-11" target="JTHi2xGZQW8xrlHGtvwv-15">
          <mxGeometry relative="1" as="geometry" />
        </mxCell>
        <mxCell id="JTHi2xGZQW8xrlHGtvwv-25" style="edgeStyle=orthogonalEdgeStyle;rounded=0;orthogonalLoop=1;jettySize=auto;html=1;" edge="1" parent="1" source="JTHi2xGZQW8xrlHGtvwv-11" target="JTHi2xGZQW8xrlHGtvwv-26">
          <mxGeometry relative="1" as="geometry">
            <mxPoint x="570" y="1040" as="targetPoint" />
          </mxGeometry>
        </mxCell>
        <mxCell id="JTHi2xGZQW8xrlHGtvwv-11" value="是否4条结果" style="rhombus;whiteSpace=wrap;html=1;" vertex="1" parent="1">
          <mxGeometry x="530" y="930" width="80" height="80" as="geometry" />
        </mxCell>
        <mxCell id="JTHi2xGZQW8xrlHGtvwv-14" style="edgeStyle=orthogonalEdgeStyle;rounded=0;orthogonalLoop=1;jettySize=auto;html=1;entryX=1;entryY=0.5;entryDx=0;entryDy=0;" edge="1" parent="1" source="JTHi2xGZQW8xrlHGtvwv-12" target="JTHi2xGZQW8xrlHGtvwv-5">
          <mxGeometry relative="1" as="geometry">
            <Array as="points">
              <mxPoint x="870" y="640" />
            </Array>
          </mxGeometry>
        </mxCell>
        <mxCell id="JTHi2xGZQW8xrlHGtvwv-12" value="2、多选家具&lt;br&gt;（匹配任意一个）" style="shape=process;whiteSpace=wrap;html=1;backgroundOutline=1;fillColor=#fff2cc;strokeColor=#d6b656;fontStyle=1" vertex="1" parent="1">
          <mxGeometry x="810" y="790" width="130" height="60" as="geometry" />
        </mxCell>
        <mxCell id="JTHi2xGZQW8xrlHGtvwv-27" style="edgeStyle=orthogonalEdgeStyle;rounded=0;orthogonalLoop=1;jettySize=auto;html=1;" edge="1" parent="1" source="JTHi2xGZQW8xrlHGtvwv-15">
          <mxGeometry relative="1" as="geometry">
            <mxPoint x="510" y="730" as="targetPoint" />
          </mxGeometry>
        </mxCell>
        <mxCell id="JTHi2xGZQW8xrlHGtvwv-15" value="3、去除家具、面积" style="shape=parallelogram;perimeter=parallelogramPerimeter;whiteSpace=wrap;html=1;fixedSize=1;fillColor=#fff2cc;strokeColor=#d6b656;fontStyle=1" vertex="1" parent="1">
          <mxGeometry x="170" y="700" width="150" height="60" as="geometry" />
        </mxCell>
        <mxCell id="JTHi2xGZQW8xrlHGtvwv-26" value="&lt;b style=&quot;font-size: 14px&quot;&gt;按匹配到家具数量排序&lt;/b&gt;&lt;br style=&quot;font-size: 14px&quot;&gt;(匹配度来自&lt;b&gt;&lt;font color=&quot;#ff3333&quot;&gt;户型匹配度&lt;/font&gt;&lt;/b&gt;)" style="rounded=1;whiteSpace=wrap;html=1;fontSize=14;" vertex="1" parent="1">
          <mxGeometry x="482.5" y="1080" width="175" height="60" as="geometry" />
        </mxCell>
        <mxCell id="JTHi2xGZQW8xrlHGtvwv-29" value="在线设计匹规则" style="text;html=1;align=center;verticalAlign=middle;resizable=0;points=[];autosize=1;strokeColor=none;fillColor=none;fontStyle=1;fontColor=#FF0000;fontSize=16;" vertex="1" parent="1">
          <mxGeometry x="290" y="350" width="130" height="20" as="geometry" />
        </mxCell>
        <mxCell id="JTHi2xGZQW8xrlHGtvwv-30" value="第二次匹配" style="text;html=1;strokeColor=none;fillColor=none;align=center;verticalAlign=middle;whiteSpace=wrap;rounded=0;fontSize=16;fontColor=#FF0000;" vertex="1" parent="1">
          <mxGeometry x="870" y="760" width="110" height="30" as="geometry" />
        </mxCell>
        <mxCell id="JTHi2xGZQW8xrlHGtvwv-31" value="第三次匹配" style="text;html=1;strokeColor=none;fillColor=none;align=center;verticalAlign=middle;whiteSpace=wrap;rounded=0;fontSize=16;fontColor=#FF0000;" vertex="1" parent="1">
          <mxGeometry x="330" y="700" width="110" height="30" as="geometry" />
        </mxCell>
        <mxCell id="JTHi2xGZQW8xrlHGtvwv-32" value="否" style="text;html=1;strokeColor=none;fillColor=none;align=center;verticalAlign=middle;whiteSpace=wrap;rounded=0;fontSize=16;fontColor=#FF0000;" vertex="1" parent="1">
          <mxGeometry x="320" y="940" width="110" height="30" as="geometry" />
        </mxCell>
        <mxCell id="JTHi2xGZQW8xrlHGtvwv-33" value="否" style="text;html=1;strokeColor=none;fillColor=none;align=center;verticalAlign=middle;whiteSpace=wrap;rounded=0;fontSize=16;fontColor=#FF0000;" vertex="1" parent="1">
          <mxGeometry x="710" y="940" width="110" height="30" as="geometry" />
        </mxCell>
        <mxCell id="JTHi2xGZQW8xrlHGtvwv-34" value="是" style="text;html=1;align=center;verticalAlign=middle;resizable=0;points=[];autosize=1;strokeColor=none;fillColor=none;fontSize=16;fontColor=#FF0000;" vertex="1" parent="1">
          <mxGeometry x="570" y="1020" width="30" height="20" as="geometry" />
        </mxCell>
        <mxCell id="JTHi2xGZQW8xrlHGtvwv-35" value="匹配度计算：户型匹配度&lt;b&gt;高到底&lt;/b&gt;的值重新赋值给家具数量&lt;b&gt;多到少&lt;/b&gt;" style="text;html=1;align=center;verticalAlign=middle;resizable=0;points=[];autosize=1;strokeColor=none;fillColor=none;fontSize=14;fontColor=#FF3333;" vertex="1" parent="1">
          <mxGeometry x="740" y="1150" width="410" height="20" as="geometry" />
        </mxCell>
        <mxCell id="JTHi2xGZQW8xrlHGtvwv-43" style="rounded=0;orthogonalLoop=1;jettySize=auto;html=1;entryX=0;entryY=0.5;entryDx=0;entryDy=0;fontSize=14;fontColor=#FF3333;edgeStyle=orthogonalEdgeStyle;curved=1;" edge="1" parent="1" source="JTHi2xGZQW8xrlHGtvwv-36" target="JTHi2xGZQW8xrlHGtvwv-41">
          <mxGeometry relative="1" as="geometry" />
        </mxCell>
        <mxCell id="JTHi2xGZQW8xrlHGtvwv-36" value="结果1：&lt;br&gt;户型匹配度：80%&lt;br&gt;家具数量：4" style="rounded=1;whiteSpace=wrap;html=1;fontSize=14;fontColor=#FF3333;" vertex="1" parent="1">
          <mxGeometry x="730" y="1181" width="180" height="89" as="geometry" />
        </mxCell>
        <mxCell id="JTHi2xGZQW8xrlHGtvwv-45" style="edgeStyle=orthogonalEdgeStyle;curved=1;rounded=0;orthogonalLoop=1;jettySize=auto;html=1;fontSize=14;fontColor=#FF3333;" edge="1" parent="1" source="JTHi2xGZQW8xrlHGtvwv-37" target="JTHi2xGZQW8xrlHGtvwv-40">
          <mxGeometry relative="1" as="geometry" />
        </mxCell>
        <mxCell id="JTHi2xGZQW8xrlHGtvwv-37" value="结果2：&lt;br&gt;户型匹配度：90%&lt;br&gt;家具数量：3" style="rounded=1;whiteSpace=wrap;html=1;fontSize=14;fontColor=#FF3333;" vertex="1" parent="1">
          <mxGeometry x="730" y="1290" width="180" height="89" as="geometry" />
        </mxCell>
        <mxCell id="JTHi2xGZQW8xrlHGtvwv-44" style="edgeStyle=orthogonalEdgeStyle;curved=1;rounded=0;orthogonalLoop=1;jettySize=auto;html=1;entryX=0;entryY=0.5;entryDx=0;entryDy=0;fontSize=14;fontColor=#FF3333;" edge="1" parent="1" source="JTHi2xGZQW8xrlHGtvwv-38" target="JTHi2xGZQW8xrlHGtvwv-39">
          <mxGeometry relative="1" as="geometry" />
        </mxCell>
        <mxCell id="JTHi2xGZQW8xrlHGtvwv-38" value="结果3：&lt;br&gt;户型匹配度：96%&lt;br&gt;家具数量：0" style="rounded=1;whiteSpace=wrap;html=1;fontSize=14;fontColor=#FF3333;" vertex="1" parent="1">
          <mxGeometry x="730" y="1410" width="180" height="89" as="geometry" />
        </mxCell>
        <mxCell id="JTHi2xGZQW8xrlHGtvwv-39" value="结果1：&lt;br&gt;匹配度：96%&lt;br&gt;家具数量：4" style="rounded=1;whiteSpace=wrap;html=1;fontSize=14;fontColor=#FF3333;" vertex="1" parent="1">
          <mxGeometry x="1080" y="1181" width="180" height="89" as="geometry" />
        </mxCell>
        <mxCell id="JTHi2xGZQW8xrlHGtvwv-40" value="结果2：&lt;br&gt;匹配度：90%&lt;br&gt;家具数量：3" style="rounded=1;whiteSpace=wrap;html=1;fontSize=14;fontColor=#FF3333;" vertex="1" parent="1">
          <mxGeometry x="1080" y="1290" width="180" height="89" as="geometry" />
        </mxCell>
        <mxCell id="JTHi2xGZQW8xrlHGtvwv-41" value="结果3：&lt;br&gt;匹配度：80%&lt;br&gt;家具数量：0" style="rounded=1;whiteSpace=wrap;html=1;fontSize=14;fontColor=#FF3333;" vertex="1" parent="1">
          <mxGeometry x="1080" y="1410" width="180" height="89" as="geometry" />
        </mxCell>
        <mxCell id="JTHi2xGZQW8xrlHGtvwv-46" value="最终结果" style="ellipse;whiteSpace=wrap;html=1;fontSize=14;fontColor=#FF3333;" vertex="1" parent="1">
          <mxGeometry x="1110" y="1499" width="120" height="80" as="geometry" />
        </mxCell>
        <mxCell id="JTHi2xGZQW8xrlHGtvwv-47" value="初始结果" style="ellipse;whiteSpace=wrap;html=1;fontSize=14;fontColor=#FF3333;" vertex="1" parent="1">
          <mxGeometry x="750" y="1499" width="120" height="80" as="geometry" />
        </mxCell>
        <mxCell id="JTHi2xGZQW8xrlHGtvwv-49" value="1、方案排序以家具数量多优先，户型匹配度为辅助&lt;br style=&quot;font-size: 18px&quot;&gt;2、匹配度计算使用用户型匹配度，对户型匹配度重新分配" style="rounded=0;whiteSpace=wrap;html=1;fontSize=18;fontColor=#FF3333;fontStyle=1" vertex="1" parent="1">
          <mxGeometry x="230" y="1180" width="470" height="304.5" as="geometry" />
        </mxCell>
        <mxCell id="JTHi2xGZQW8xrlHGtvwv-50" value="" style="shape=image;verticalLabelPosition=bottom;labelBackgroundColor=#ffffff;verticalAlign=top;aspect=fixed;imageAspect=0;image=data:image/jpeg,/9j/4AAQSkZJRgABAQAASABIAAD/4QBMRXhpZgAATU0AKgAAAAgAAgESAAMAAAABAAEAAIdpAAQAAAABAAAAJgAAAAAAAqACAAQAAAABAAAEOKADAAQAAAABAAAG6AAAAAD/7QA4UGhvdG9zaG9wIDMuMAA4QklNBAQAAAAAAAA4QklNBCUAAAAAABDUHYzZjwCyBOmACZjs+EJ+/+ICNElDQ19QUk9GSUxFAAEBAAACJGFwcGwEAAAAbW50clJHQiBYWVogB+EABwAHAA0AFgAgYWNzcEFQUEwAAAAAQVBQTAAAAAAAAAAAAAAAAAAAAAAAAPbWAAEAAAAA0y1hcHBsyhqVgiV/EE04mRPV0eoVggAAAAAAAAAAAAAAAAAAAAAAAAAAAAAAAAAAAAAAAAAKZGVzYwAAAPwAAABlY3BydAAAAWQAAAAjd3RwdAAAAYgAAAAUclhZWgAAAZwAAAAUZ1hZWgAAAbAAAAAUYlhZWgAAAcQAAAAUclRSQwAAAdgAAAAgY2hhZAAAAfgAAAAsYlRSQwAAAdgAAAAgZ1RSQwAAAdgAAAAgZGVzYwAAAAAAAAALRGlzcGxheSBQMwAAAAAAAAAAAAAAAAAAAAAAAAAAAAAAAAAAAAAAAAAAAAAAAAAAAAAAAAAAAAAAAAAAAAAAAAAAAAAAAAAAAAAAAAAAAAAAAAAAAAAAAAAAAAB0ZXh0AAAAAENvcHlyaWdodCBBcHBsZSBJbmMuLCAyMDE3AABYWVogAAAAAAAA81EAAQAAAAEWzFhZWiAAAAAAAACD3wAAPb////+7WFlaIAAAAAAAAEq/AACxNwAACrlYWVogAAAAAAAAKDgAABELAADIuXBhcmEAAAAAAAMAAAACZmYAAPKnAAANWQAAE9AAAApbc2YzMgAAAAAAAQxCAAAF3v//8yYAAAeTAAD9kP//+6L///2jAAAD3AAAwG7/wAARCAboBDgDASIAAhEBAxEB/8QAHwAAAQUBAQEBAQEAAAAAAAAAAAECAwQFBgcICQoL/8QAtRAAAgEDAwIEAwUFBAQAAAF9AQIDAAQRBRIhMUEGE1FhByJxFDKBkaEII0KxwRVS0fAkM2JyggkKFhcYGRolJicoKSo0NTY3ODk6Q0RFRkdISUpTVFVWV1hZWmNkZWZnaGlqc3R1dnd4eXqDhIWGh4iJipKTlJWWl5iZmqKjpKWmp6ipqrKztLW2t7i5usLDxMXGx8jJytLT1NXW19jZ2uHi4+Tl5ufo6erx8vP09fb3+Pn6/8QAHwEAAwEBAQEBAQEBAQAAAAAAAAECAwQFBgcICQoL/8QAtREAAgECBAQDBAcFBAQAAQJ3AAECAxEEBSExBhJBUQdhcRMiMoEIFEKRobHBCSMzUvAVYnLRChYkNOEl8RcYGRomJygpKjU2Nzg5OkNERUZHSElKU1RVVldYWVpjZGVmZ2hpanN0dXZ3eHl6goOEhYaHiImKkpOUlZaXmJmaoqOkpaanqKmqsrO0tba3uLm6wsPExcbHyMnK0tPU1dbX2Nna4uPk5ebn6Onq8vP09fb3+Pn6/9sAQwAGBgYGBgYKBgYKDgoKCg4SDg4ODhIXEhISEhIXHBcXFxcXFxwcHBwcHBwcIiIiIiIiJycnJycsLCwsLCwsLCws/9sAQwEHBwcLCgsTCgoTLh8aHy4uLi4uLi4uLi4uLi4uLi4uLi4uLi4uLi4uLi4uLi4uLi4uLi4uLi4uLi4uLi4uLi4u/90ABABE/9oADAMBAAIRAxEAPwD6pooooAKKKKACiiigAooooAKKKKACiiigAooooAKKKKACiiigAooooAKKKKACiiigAooooAKKKKACiiigAooooAKKKKACiiigAooooAKKKKACiiigAooooAKKKKACiiigAooooAKKKKACiiigAooooAKKKKACiiigAooooAKKKKACiiigAooooAKKKKACiiigAooooAKKKKACiiigAooooAKKKKACiiigAooooAKKKKACiiigAooooAKKKKACiiigAooooAKKKKACiiigAooooAKKKKACiiigAooooAKKKKACiiigAooooAKKKKACiiigAooooAKKKKACiiigAooooAKKKKACiiigAooooAKKKKAP/9D6pooooAKKKKACiiigAooooAKKKKACiiigAooooAKKKKACiiigAooooAKKKKACiiigAooooAKKKKACiiigAooooAKKKKACiiigAooooAKKKKACiiigAooooAKKKKACiiigAooooAKKKKACiiigAooooAKKKKACiiigAooooAKKKKACiiigAooooAKKKKACiiigAooooAKKKKACiiigAooooAKKKKACiiigAooooAKKKKACiiigAooooAKKKKACiiigAooooAKKKKACiiigAooooAKKKKACiiigAooooAKKKKACiiigAooooAKKKKACiiigAooooAKKKKACiiigAooooAKKKKACiiigAooooAKKKKAP/9H6pooooAKKKKACiiigAoooJxyaACioixbpwKbgd+aAJsj1oyPWoNq+g/KjavoPyoAnyPWjI9ag2r6D8qNq+g/KgCfI9aMj1qDavoPyo2r6D8qAJ8j1oyPWoNq+g/KjavoPyoAnyPWjI9ag2r6D8qNq+g/KgCfI9aMj1qDavoPyo2r6D8qAJ8j1oyPWoNq+g/KjavoPyoAnyPWjI9ag2r6D8qNq+g/KgCfI9aMj1qDavoPyo2r6D8qAJ8j1oyPWoNq+g/KjavoPyoAnyPWjI9ag2r6D8qNq+g/KgCfI9aMj1qDavoPyo2r6D8qAJ8j1oyPWoNq+g/KjavoPyoAnyPWjI9ag2r6D8qNq+g/KgCfI9aMj1qDavoPyo2r6D8qAJ8j1oyPWoNq+g/KjavoPyoAnyPWjI9ag2r6D8qNq+g/KgCfI9aMj1qDavoPyo2r6D8qALGRRVfavoKcCR0NAE1FNVgwp1ABRRRQAUUUUAFFFFABRRRQAUUUUAFFFFABRRRQAUUUUAFFFFABRRRQAUUUUAFFFFABRRRQAUUUUAFFFFABRRRQAUUUUAFFFFABRRRQAUUUUAFFFFABRRRQAUUUUAFFFFABRRRQAUUUUAFFFFABRRRQAUUUUAFFFFABRRRQAUUUUAFFFFABRRRQAUUUUAFFFFABRRRQAUUUUAFFFFABRRRQAUUUUAFFFFABRRRQB/9L6pooooAKKKKACiiigAqJzk7ew61LUA5JPuaAFooooAKKKKACiikoAWiiigAooooAKKKKACiiigAooooAKKKKACiiigAooooAKKKKACiiigAooooAKKKKACiiigAoopKAFooooAKKKKACiiigBM7TuqeoKkjOUB9qAH0UUUAFFFFABRRRQAUUUUAFFFFABRRRQAUUUUAFFFFABRRRQAUUUUAFFFFABRRRQAUUUUAFFFFABRRRQAUUUUAFFFFABRRRQAUUUUAFFFFABRRRQAUUUUAFFFFABRRRQAUUUUAFFFFABRRRQAUUUUAFFFFABRRRQAUUUUAFFFFABRRRQAUUUUAFFFFABRRRQAUUUUAFFFFABRRRQAUUUUAFFFFABRRRQAUUUUAf/0/qmiiigAooooAKKKKACq47/AFP86sVXHf6n+dADqKKKACiiigAooooA5bW73UIb+G1s5vKV4yx+UHkH3qh9o1v/AJ/B/wB+xVjW/wDkM2//AFxb+dUbmWWIIsCB3kYKATjrTETfaNb/AOfwf9+xR9o1v/n8H/fsUfY9e/59o/8Av5R9j17/AJ9k/wC/lMA+0a3/AM/g/wC/Yo+0a3/z+D/v2KPsevf8+yf9/KPsevf8+yf9/KAD7Rrf/P4P+/Yo+0a3/wA/g/79ij7Hr3/Psn/fyj7Hr3/Psn/fygA+0a3/AM/g/wC/Yo+0a3/z+D/v2KPsevf8+yf9/KPsevf8+yf9/KAD7Rrf/P4P+/Yo+0a3/wA/g/79ij7Hr3/Psn/fyj7Hr3/Psn/fygA+0a3/AM/g/wC/Yo+0a3/z+D/v2KPsevf8+yf9/KPsevf8+yf9/KAD7Rrf/P4P+/Yo+0a3/wA/g/79ij7Hr3/Psn/fyj7Hr3/Psn/fygA+0a3/AM/g/wC/Yo+0a3/z+D/v2KPsevf8+yf9/KPsevf8+yf9/KAD7Rrf/P4P+/Yo+0a3/wA/g/79ij7Hr3/Psn/fyj7Hr3/Psn/fygA+0a3/AM/g/wC/Yo+0a3/z+D/v2KPsevf8+yf9/KPsevf8+yf9/KAD7Rrf/P4P+/Yo+0a3/wA/g/79ij7Hr3/Psn/fyj7Hr3/Psn/fygA+0a3/AM/g/wC/Yo+0a3/z+D/v2KPsevf8+yf9/KPsevf8+yf9/KAD7Rrf/P4P+/Yo+0a3/wA/g/74FQ3EWtW0L3EtsgRBk/P2qaJ/MiSTGNyg/nSA39Buri805Z7lt7lmBOMdD7Vs1z/hn/kEp/vv/OugoYwooopAFFFFABT4/wDVr9KZT4/9Wv0oAfRRRQAUUUUAFFFFABRRRQAUUUUAFFFFABRRRQAUUUUAFFFFABRRRQAUUUUAFFFFABRRRQAUUUUAFFFFABRRRQAUUUUAFFFFABRRRQAUUUUAFFFFABRRRQAUUUUAFFFFABRRRQAUUUUAFFFFABRRRQAUUUUAFFFFABRRRQAUUUUAFFFFABRRRQAUUUUAFFFFABRRRQAUUUUAFFFFABRRRQAUUUUAFFFFABRRRQB//9T6pooooAKKKKACiiigAquO/wBT/OrFVx3+p/nQA6iiigAooooAKKKKAOP1v/kM2/8A1xb+dUpv+Pi1/wCuy1d1v/kM2/8A1xb+dUpv+Pi1/wCuy0xM72iiikMKKKKACiiigAooooAKKKKACiiigAooooAKKKKACiiigAooooAKKKKACiiigDK1v/kE3P8A1zNcza/8e0X+4v8AKum1v/kE3P8A1zNcza/8e0X+4v8AKn0A2/DP/IJT/ff+ddBXP+Gf+QSn++/866Ch7gFFFFIAooooAKfH/q1+lMp8f+rX6UAPooooAKKKKACiiigAooooAKKKKACiiigAooooAKKKKACiiigAooooAKKKKACiiigAooooAKKKKACiiigAooooAKKKKACiiigAooooAKKKKACiiigAooooAKKKKACiiigAooooAKKKKACiiigAooooAKKKKACiiigAooooAKKKKACiiigAooooAKKKKACiiigAooooAKKKKACiiigAooooAKKKKACiiigAooooA//V+qaKKKACiiigAooooAKrjv8AU/zqxVcd/qf50AOooooAKKKKACiiigDj9b/5DNv/ANcW/nVKb/j4tf8ArstXdb/5DNv/ANcW/nVKb/j4tf8ArstMTO9ooopDCiiigAooooAKKKKACiiigAooooAKKKKACiiigAooooAKKKKACiiigAooooAytb/5BNz/ANczXM2v/HtF/uL/ACrptb/5BNz/ANczXM2v/HtF/uL/ACp9ANvwz/yCU/33/nXQVz/hn/kEp/vv/Ougoe4BRRRSAKKKKACnx/6tfpTKfH/q1+lAD6KKKACiiigAr508ZfFfxboHiS80jT7CKWC3YKjtHISQQD1Bx3r6LqNo4j8zKv1IFAHyj/wu/wAdf9AyH/v1L/jUMnx48YxMElsbZGPQMkgP6mvrMRQnoi/kK+Tfjiqr4208KAB9nj6D/po1AEv/AAu/x1/0DIf+/Uv+NXdN+M/jW71G2tJtNhVJpo42Ijk4DMAT19DX03BDF5EfyL90dh6VN5MQ5CL+QoASeeC2iae5kWKNeWdyFUfUnis3/hINB/6CFr/3+T/GqXi/QX8T+HLzQklEDXSBRIRuC4YN0yM9K8C/4Z4vP+gxH/34P/xdAH0Jca7o0lvJHBqlrFIyMEfzYztYjg4J5wecV86eBfH2vab48n0fxbqIuYrhmiaRnUxI65KMhHyhW9sdeea8t8beC5PBusxaM9yLppY1fcqlMbjjGMmvWf8Ahni8x/yGI/8Avwf/AIugD6K/4SDQf+gha/8Af5P8aP8AhINB/wCgha/9/k/xr51/4Z4vP+gxH/34P/xdH/DPF5/0GI/+/B/+LoA9r8fapr+l+GZL/wALx+feCSMIoTzMqzDccDrxXzg/xc+Jsd+NLkSJbosEEJt/n3HoMZzk19e2kBtrWK3J3eUipn12jFfI+tf8l1h/7CNt/wCy0ALqPxV+KmkBDqkKWwkyE823K7sdcZPbNehfDjxj8QvEGuQpr1vt06WF3EogKKTjK4bPesr9oj/j20b/AH5/5JXbrp2s6r8I7Oz0CZ4b02MBjMbbC2AMru7BhkUAX/HPxO0PwfBJbxut3qOMJbofun1cj7oHp1rn/hH4n8aeJBd3evReZYyMXhuMBAGzgxovUqOx7etc94R+BcaMuo+MpvPkJ3fZo2yuf+mj9W9wOPc17fFrHh+y1OLwtBNFFdCLfHbLxhB6AcD6dcUAb1FFFABRRRQAUUUUAFFFFABRRRQAUUUUAFFFFABRRRQAUUUUAFFFFABRRRQAUUUUAFFFFABRRRQAUUUUAFFFFABRRRQAUUUUAFFFFABRRRQAUUUUAFFFFABRRRQAUUUUAFFFFABRRRQAUUUUAFFFFABRRRQAUUUUAFFFFABRRRQB/9b6pooooAKKKKACiiigAquO/wBT/OrFVx3+p/nQA6iiigAooooAKKKKAOP1v/kM2/8A1xb+dUpv+Pi1/wCuy1d1v/kM2/8A1xb+dUpv+Pi1/wCuy0xM72iiikMKKKKACiiigAooooAKKKKACiiigAooooAKKKKACiiigAooooAKKKKACiiigDK1v/kE3P8A1zNcza/8e0X+4v8AKum1v/kE3P8A1zNcza/8e0X+4v8AKn0A2/DP/IJT/ff+ddBXP+Gf+QSn++/866Ch7gFFFFIAooooAKfH/q1+lMp8f+rX6UAPooooAKKKKACvMfjFNNb/AA+v5bd2jcPb4ZCVIzMg6jmvTq8t+M//ACTrUP8Aft//AEelAFX4Jzz3PgaOW4keV/tEw3OxY/e9TmvIvjw/leMrKXGdlqjY+kjGvWPgb/yIcf8A18Tf+hV5V8dAD4208HkG3j/9GNQBqp+0Hcoip/ZKfKAP9ae34V6B8PfijN441WfTZLFbYQw+buDls8gY6e9ejQaDoZgjJsLb7o/5Yp6fSr1tpmm2TmSztYYGIwTHGqkj0yAKALtFFRTzRW0L3E7BI41LMx6AAZJoA+N/jPes3xDYIAxtYoAB6nG7H61tf8L48Yf9A22/75k/xqr4LSXx18Wpdf277eCV7knsEQbIfzOD+Br69wKAPktvj14uUbm061A9Ssg/rXuXw18W6h4z0F9V1GKOKRZmjAizjC49Sao/GRgvw81E+pgH5zIKy/gXHs8DK/8AfuZj+RxQBr/FDxdrPg/S7S80WFJpJ5/LcOpbC7GbPHuK+SbrxTq114vXxVLEovlnSYRhTt3pjAx17V+gdfH2j41n44tLH86LfTOCOm2IMQf0oA4/xt4517xilqmtQJCLYuY9isuS4Gc5+leofDX4k+IZb/TPDV3BFHp0URQzFWBCRRkhix47cmr/AO0R/wAe+jf78/8AJK9j8CokngnSEcBlayiBB5BBUZBoA8l8afHG1tg+neD1+0TH5ftTj5FP+wp5Y+549jWf8OPhvq2ramnjjxhJKspcTQxsSsrsOjueCF9F7j24r1Pw18LvCvhq9k1GGH7RcNIzo82GEQJyAg6DHr1+lc74s+MOn6B4jttDsIvtqrIFvGTJK7uAsePvMCckfh1oA9oopqOJEVxkBgDyMHn2p1ABRRRQAUUUUAFFFFABRRRQAUUUUAFFFFABRRRQAUUUUAFFFFABRRRQAUUUUAFFFFABRRRQAUUUUAFFFFABRRRQAUUUUAFFFFABRRRQAUUUUAFFFFABRRRQAUUUUAFFFFABRRRQAUUUUAFFFFABRRRQAUUUUAFFFFABRRRQB//X+qaKKKACiiigAooooAKrjv8AU/zqxVcd/qf50AOooooAKKKKACiiigDj9b/5DNv/ANcW/nVKb/j4tf8ArstXdb/5DNv/ANcW/nVKb/j4tf8ArstMTO9ooopDCiiigAooooAKKKKACiiigAooooAKKKKACiiigAooooAKKKKACiiigAooooAytb/5BNz/ANczXM2v/HtF/uL/ACrptb/5BNz/ANczXM2v/HtF/uL/ACp9ANvwz/yCU/33/nXQVz/hn/kEp/vv/Ougoe4BRRRSAKKKKACnx/6tfpTKfH/q1+lAD6KKKACiiigCrfXttp1nLf3j+XDCpd2wThR1PHNeA/E74ieD/EHgu80rSb4TXMrQlECOMhZVY8kAcAGvedU06DVtOn0y6yIrhDG+04OG64ryP/hQ/gz+/df9/P8A61AHL/Cn4geEvDnhJNN1m9EFwJpXKFHPDHIOQCK8/wDiv4l0XxH4qs9R0a4E8EUKK7BWXBDkkYIB6V7R/wAKH8Gf37r/AL+f/Wo/4UP4M/v3X/fz/wCtQBuw/Fz4frEitqYyFAP7uT0/3ak/4W78Pv8AoJj/AL9yf/E1z3/Ch/Bn9+6/7+f/AFqP+FD+DP791/38/wDrUAevafqNnqtjFqVjJ5lvOu9HwRlT35wa+b/i38SV1Hf4O8NOZQ7bLmWPnef+eSY68/ePfp6177D4asIPDY8Lo0gtVh8gMHIk2/7wwc1wHgX4R6V4SvpNUvJBe3Kufs7MMCJOxx3c9z27UAanwu8EjwfoC/alxf3mJLg/3f7qD/dHX3zXo0k8ERAlkVCem4gZ/Opa83+Ivw9j8d2tqiXAtLi1clZSm/5WGCuMjvg9e1AHKfHPX9Ph8JjRkmR7i8mjIRSCQkZ3ljjtkAfjXTfB+0ez+H+nhxtMvmS4Po7kivPtJ/Z9tobxZtb1I3UKkExxR+WWx2LFmOPpX0RbW8Fpbx2tsgjiiUIijoFUYAoAxfFWuw+G/D95rMxA8iMlAe7nhB+JIr50+AukTX2u3/iWcZWBDGCe8spycfRQc/UV9DeLPC2n+L9Hk0jUdyqxDI6nBRx0b0OPQ0nhHwvY+ENDh0ax+bZ80khGDJIfvMfr+g4oA8T/AGiP+PfRv9+f+SV6z4T1Gw0nwBpV9qU6W8EdlCWeQhQPlHrWV8SPh9N49jso4bxbT7I0hJaMvu3hR2ZcYxVvVPAUWq+BIfBtxMN8EUSJcbejxY+YLnvjpnvQB4/43+Md5rTnw/4HSQLMfLNwFPmyZ4xGvVQfXr6Yrq/hh8KF0Mx+IvEa79QPzRQnkQ57n1f+X1ru/B/w58OeDUEtjF512Vw1zLy59dvZR9K72gAooooAKKKKACiiigAooooAKKKKACiiigAooooAKKKKACiiigAooooAKKKKACiiigAooooAKKKKACiiigAooooAKKKKACiiigAooooAKKKKACiiigAooooAKKKKACiiigAooooAKKKKACiiigAooooAKKKKACiiigAooooAKKKKAP/Q+qaKKKACiiigAooooAKrjv8AU/zqxVcd/qf50AOooooAKKKKACiiigDj9b/5DNv/ANcW/nVKb/j4tf8ArstXdb/5DNv/ANcW/nVKb/j4tf8ArstMTO9ooopDCiiigAooooAKKKKACiiigAooooAKKKKACiiigAooooAKKKKACiiigAooooAytb/5BNz/ANczXM2v/HtF/uL/ACrptb/5BNz/ANczXM2v/HtF/uL/ACp9ANvwz/yCU/33/nXQVz/hn/kEp/vv/Ougoe4BRRRSAKKKKACnx/6tfpTKfH/q1+lAD6KKKACiiigAooooAKKKKACiiigAooooAKKKKACiiigAooooAKKKKACiiigAooooAKKKKACiiigAooooAKKKKACiiigAooooAKKKKACiiigAooooAKKKKACiiigAooooAKKKKACiiigAooooAKKKKACiiigAooooAKKKKACiiigAooooAKKKKACiiigAooooAKKKKACiiigAooooAKKKKACiiigAooooAKKKKAP/0fqmiiigAooooAKKKKACq47/AFP86sVXHf6n+dADqKKKACiiigAooooA4/W/+Qzb/wDXFv51Sm/4+LX/AK7LV3W/+Qzb/wDXFv51Sm/4+LX/AK7LTEzvaKKKQwooooAKKKKACiiigAooooAKKKKACiiigAooooAKKKKACiiigAooooAKKKKAMrW/+QTc/wDXM1zNr/x7Rf7i/wAq6bW/+QTc/wDXM1zNr/x7Rf7i/wAqfQDb8M/8glP99/510Fc/4Z/5BKf77/zroKHuAUUUUgCiiigAp8f+rX6Uynx/6tfpQA+iiigAooooAKKKKACiiigAooooAKKKKACiiigAooooAKKKKACiiigAooooAKKKKACiiigAooooAKKKKACiiigAooooAKKKKACiiigAooooAKKKKACiiigAooooAKKKKACiiigAooooAKKKKACiiigAooooAKKKKACiiigAooooAKKKKACiiigAooooAKKKKACiiigAooooAKKKKACiiigAooooAKKKKACiiigD/9L6pooooAKKKKACiiigAquO/wBT/OrFVx3+p/nQA6iiigAooooAKKKKAOP1v/kM2/8A1xb+dUpv+Pi1/wCuy1d1v/kM2/8A1xb+dUpv+Pi1/wCuy0xM72iiikMKKKKACiiigAooooAKKKKACiiigAooooAKKKKACiiigAooooAKKKKACiiigDK1v/kE3P8A1zNcza/8e0X+4v8AKum1v/kE3P8A1zNcza/8e0X+4v8AKn0A2/DP/IJT/ff+ddBXP+Gf+QSn++/866Ch7gFFFFIAooooAKfH/q1+lMp8f+rX6UAPooooAKKKKACiiigAooooAKKKKACiiigAooooAKKKKACiiigAooooAKKKKACiiigAooooAKKKKACiiigAooooAKKKKACiiigAooooAKKKKACiiigAooooAKKKKACiiigAooooAKKKKACiiigAooooAKKKKACiiigAooooAKKKKACiiigAooooAKKKKACiiigAooooAKKKKACiiigAooooAKKKKACiiigAooooA//T+qaKKKACiiigAooooAKrjv8AU/zqxVcd/qf50AOooooAKKKKACiiigDj9b/5DNv/ANcW/nVKb/j4tf8ArstXdb/5DNv/ANcW/nVKb/j4tf8ArstMTO9ooopDCiiigAooooAKKKKACiiigAooooAKKKKACiiigAooooAKKKKACiiigAooooAytb/5BNz/ANczXM2v/HtF/uL/ACrptb/5BNz/ANczXM2v/HtF/uL/ACp9ANvwz/yCU/33/nXQVz/hn/kEp/vv/Ougoe4BRRRSAKKKKACnx/6tfpTKfH/q1+lAD6KKKACiiigArmG8TR+dLDDaXEvlOUYooIyPxrp64fStQi01L+eVHdWvGUCMbjnGf6UAJqGt6hM0Elja3UZjcF1KfK69wa0/+Ekb/oH3X/fH/wBesnWfFFtLp0sECzxSuAEZl28ggnnPpV218WWJt4x5U7kKASEyCQOec0AbunaidQDk28sGwgfvRjOfStKs/TtSi1OJpYUdArbSJF2npmtCgDm5Zph4pigDt5ZtySmTtzk846ZrpK5aX/kbof8Ar2P8zXU0AV7u5SztpLqQErEpYgdcCueTxOJEEkdjdMrDIIQYI/OtTXP+QPd/9cm/lWPa65b6bp9nbzRSuxt42yibhgj1/CgCmuuagmptcfZbprZ0x5ZTlWHce1af/CSN/wBA+6/74/8Ar1haj4ptn1Czkj86NIWYyqRtJBAxxnmtv/hK7E8iC4/790AdBaz/AGm3Sco0e8Z2uMMPrVHUr+6sGSVLZp4MHzCh+ZfovcVfhlW5t1mTcokUEZ4YZH865zyNc0iUG3c39sxwUf8A1iZ7g9x/nFADdb1fzNEXUNMlKhpFG4DB75HNdZXJ+LEUaVHBGoXzJ0AA9TmusoACQBk8AVzN9fSx+ILG3jlxDIrl1BGDgHGa6C4gjuYHt5hlJFKsAccH3FeU6lbaRZ6+lr5b/ZoxiXDMTkjOc5zxkZxQB3Gr6jqMN7aWWmeUWuA/MmSPlx3BpmPF3rafk3+NZWoWpt9Q0qDRWVfllMZcllwcHryTWsYvFgBJnteP9lv8KANTTv7V2P8A2p5W7Py+VnGPfNaVY2g31xqGmrc3WPMLMp2jA+UkVs0Ac7czTL4mtYQ7CNoHJXJ2k88kdK6KuZuv+RqtP+vd/wCtdNQBn6hPqECIdPgWdifmDNtwPXoawdP13WNQZvKsU2RyeW58zoRjPGOetdBf6ja6ZEJrtiqsdowpbn8Aa47wxrFhE01q7MJLi5JjG0kEMABk44/GgC+NQ8QXd1dpZNbLFbSFMyBs4xnPBqC81HxLY2ovZXtHiLKuUDHO4445xUll/q9d/wB9/wD0XVG6/wCRMtv96P8A9DoA9AU5UE9xXO3t7cy63baZZPtCAyzkYPydl/GtHUNRi0yxN1KC2AAqjqzHoBXH6HNqcdxqVzJB5t5mPMedvXtn2BoA6HxBc3Ft9jMDlN9yitjup7Gkur3UNM1ASXA86ynYKuxfmiY8DI7g1zuuza/LaxzXlvFBHHMjAhtx3Z4zg9M9a2xY+J5x++v4oge0cef5gGgDqSQBk8AVwcmt6pJeT6nYxmawtxs25wGI6t0JNddZ2ksNp9mvJjdE53MwxkHtjmsOUMvyaCwdLRvLmtcYUhuvJ70APttcu2tv7QvLdIrTYX8wSbu3AxjqTxWPBrutWVp9uvLfzIriTMbMwXYG6DAHT3NbF1ZXCQJaaU1tFb7Tujl+bknJ9aryWXiG6gNtJPZyREAFdpIwOnagDbsLnUp5GF7bLAgGQwfdk+nSqOtXl0Lqz02wfZNO+5mGDiNevX1/pT/Dd7Pfad5lxtDI7RgKMDC4xgVzT6lqFheXWs3di5JxHGXbaqp0AHHJJ9KAPQiyhSxPC9fbFcdomvwSm5ub+6VVeU+VGxxtQdPzqkbPVRpyworfaNTctPIekadce3H+FdJbaDoYgQJbQygDG8qGLY4yT60AX7bUrC8cx2syyMBkhT2q7XH2Ftb2niueG1jWJBag7VGBksvpXYUAc7qUsqa3psaOyo5k3KCQDhe4710Vc1qv/Ie0v6yf+g10tAASAMniudjvpj4kktDL+4FurBeMbieua27m3iu4HtpxlHGCASOPqK8vtrbRZPEctlIjC3/1cZ3t98epznk5AoA6fUNX1CPVpbGCe2gjjRWBmB53DsQarvq2qojP/aFgcAnADZOPxp99ZzLq013CLSVHRU2ztyu0Y6VHNb3pRo2ttOQsvXOCMjqKAOm0a7lvtMgu7jG+RSTgYHUiqN/fTRa1YW8UuIpRJvUYwcDjNWdFtvI0mKzkZXKKVYocjknv+NcDqlrotnr8NoUYW6j96d7E5bnrnIAGCcUAdZrWq3trfwWlpLDEkqFi8wJXIPqDVP8AtTVf+gjp/wCTf407UdNCXVq9j9neO3iKhJ3yCG5B55NNMN8oDG100Buhz1x6UAbHh7ULnUrSSW6KMySsgMYwpAA55J9atarqX9lxR3Dxl4i4V2H8APfFUvDlq9nayxStGWaVpMRHKgMBgfpUOo6/obrNp1278go4EbH8jigC14iuZbfRJ7m1cq4UFWX3IrQS5SHT1u7hsBYwzE/TJrgtQ1jS/wDhHW0mGd5pAgVS8bLnBz3GOBVq71jRNRsYLOW5kREKmRVjY79o+6TigDrtJvpNRsUvJI/K8wkquc/Lng/jWlWFp+u6TeSpZWTNu2/KuxlAA+oxW7QAUUUUAFFFFABRRRQAUUUUAFFFFABRRRQAUUUUAFFFFABRRRQAUUUUAFFFFABRRRQB/9T6pooooAKKKKACiiigAquO/wBT/OrFVx3+p/nQA6iiigAooooAKKKKAOP1v/kM2/8A1xb+dUpv+Pi1/wCuy1d1v/kM2/8A1xb+dUpv+Pi1/wCuy0xM72iiikMKKKKACiiigAooooAKKKKACiiigAooooAKKKKACiiigAooooAKKKKACiiigDK1v/kE3P8A1zNcza/8e0X+4v8AKum1v/kE3P8A1zNcza/8e0X+4v8AKn0A2/DP/IJT/ff+ddBXP+Gf+QSn++/866Ch7gFFFFIAooooAKfH/q1+lMp8f+rX6UAPooooAKKKKAAkAZNcp4WdV0+5vJCFWS4kck8AAYH9K2NZmmg0u4kt0MkmwhQvJ54/TNYMPh26ktbWxnm22kcYaWNeGeQnJyfSgDL1ctq9nd6u2fs0KiO2B7ncNz4/QVp2ch0GeLzOLG8VSD2jlKjOfQNWj4ihWPw/cQwLhVVQqqOwYVoraw3mmR2tyu5HiUEH6CgDQByMiisTSLC+04yW00wmt1x5OfvgdwT6DtW3QBy0v/I3Q/8AXsf5muprlpf+Ruh/69j/ADNdTQBheJZRFody3qoUfiQKcbyHRtFhkuOscSKqjqzbQAB+NVPEMM99JZ6bGhMcsoaRuwVOSD9alt9Gmk1BtR1SUTMjHyEAwiL2OPWgDl59MeS9sJNTG6a+klaUf3QQu1f+Aium0a8e3kOh3zfv4P8AVsf+WkfYj3A4NM1lWOs6UQCQHkz7cLWhq2kxanEMkxzRnMcq/eU/4UAXL22N5bNbrK8JbHzxnDDHpWD/AMI1L/0Erv8A77H+FacU11YaZ52pnzpYh85iXJPPGB6+tY73uu6uvl6dCbKE9ZZvv4/2VoA5bU4IYtVisJr64eGIhpZGO7y2P3cYHBrq4/DxlQSRapdMrDIIcEH9K1tO0e00+1a3A80ycyM4yXJ9ayZtLvNHkN5oZLRdZLVj8p/3PQ0AaPlS6NpczpJLdugZx5hyxOOn0rl4rJ4NX0yK8w8sySvNnuzhsg/QcV21jdi+tUuRG8e/+FxgjFYOoo58T6cwBICSZOOBwaAMvULWTSdR0yHTkM7J5xRGbHXHGT0AFazaj4kII/swc/8ATVf8abri3cWq2N9b27zrCJNwTGfmwB1qX+3r3/oF3H/jv+NAFnw7aXNlpaQXabJNzkrkHGWJ6itysvTtQnvWcTWktttAwZMfNn0x6VqUAczdf8jVaf8AXu/9a6auZuv+RqtP+vd/6101ADWVWGGAP1rifDt5YWkd0LqREZrtgoP3jwOg610+o6f/AGiiRmaSFVbLeW20sMdCazzpuj6HbNeLbbzHyWx5jn3Gf6UAZ95BLpOn6tcTsuLpj5e08/ONvPvUMUTavoQ0q0GyW1aNJPM4G5DlsYz6GrEdvqGv3UV3fIbeyhYOkLffdh0LCqlpeyaJe36XFrPJ50xkQxoWBByetAHatDHIirKobaQRkZwR0Nc3o/8AyHdV/wB+P/0Gr3h8X39mq+oFvMdmbD9QpPA/KqWjgjXdVJHBeP8A9BoAv+IbVrzR7iFPvbdy/Vef6VY0m7F9psF0OroM+xHBH51o9eDXHbrjw1cy7YXmsJ23r5Y3NGx6jHoaAOvV0fO0g4ODjsfSuS0X/j71n/rqf5GtDw9DKLWW8nUo91K0u08EA8Ln8BVLQ42a91dSMbpsAn3BoA5vR49NawU3OmTXL7nzIke4H5jjnPbpW94YEIvdQEELQJvTEbDBX5e4qSz0XXLCAW1rexrGpJAKZ6nJ/nREx8PSzXWqSNPJdkHMUZP3RjtQBL4R/wCQW/8A13k/pWTfXl5f6uA1jNNBasdkYGFaQcbmY8YHatrwnFLFpWZUKGSR3AYYODSPeeJZ2ZbazihAOA0r5/HAoA0tPk1O4WQ6nAkKnhUDbjjvu7VjWUNxomriwiVnsrrLR4yfKYckewrV0y11WF5JtTuRMXACoi4VcenejUdbtdMlWG4SViw3AohYfnQBnW3Pi66PpbKP1Wuprk9DM19qt5rDRNFFIqxxhxgkDqcfhXWUAc1qv/Ie0v6yf+g10tczqv8AyHtL+sn/AKDXTUAZurveJYSfYF3TNhV9txxn8M1ycGkW39tPpUo3ItmgJHBLBsls+uea76uU8uVvFFxsJQtaAK+Ohyfw4oAyNXsrWC1vvt1rCku1nhnXA3k9Byc7xV37Fa/6LcahaQy28kEYMpwGjIX+LJwVrN1SxtrdJ7WWO5vb50wszIWQFh/Cegx+laV1ZWdoLa41SO4uv3aqsSKXRCqgHKj1oAk8Nv5OjXklkgfbPMY1HQ4AwBWcunNDqGmRXw3y3AnebPOWcDI/AcVv+F4JYbCQyxmLzZ3kVWGCFOMcdqZqasfEOmMASAJcnsOBQBRn0uxtJzHe2kUlt5eI52+8m0dHLH8sVS0+0SXRLC4ltYrqKPerhh86hnPKk8YHerOo2lpaXJm1QXN/I4ZowELRpzwMDjIqKHTUi0S0l1RZ2SIENbxgnJZiQWA5OKALvhxbNdU1NbAKIQYtuz7vRs4/GulupLO1ha5utiIoyWIFc94cizd311FA1vBKYxGrLsPyg54/GpF0S7vr03WtyiSONiYoE+5jsW9TQBgapC9/pd3rc8floUC2yYwQm4ZY+7fyrTULobx3rIGsrlU83Az5T4+99D3rT8UqToNyqj+EcD6itW2jSSxjjkUMrRqCD0IxQBND9nkRZoNpVhkMuOR9amrmrPR73TL8fYJh9hfJaJ8kqf8AZ/GuloAKKKKACiiigAooooAKKKKACiiigAooooAKKKKACiiigAooooAKKKKACiiigAooooA//9X6pooooAKKKKACiiigAquO/wBT/OrFVx3+p/nQA6iiigAooooAKKKKAOP1v/kM2/8A1xb+dUpv+Pi1/wCuy1d1v/kM2/8A1xb+dUpv+Pi1/wCuy0xM72iiikMKKKKACiiigAooooAKKKKACiiigAooooAKKKKACiiigAooooAKKKKACiiigDK1v/kE3P8A1zNcza/8e0X+4v8AKum1v/kE3P8A1zNcza/8e0X+4v8AKn0A2/DP/IJT/ff+ddBXP+Gf+QSn++/866Ch7gFFFFIAooooAKfH/q1+lMp8f+rX6UAPooooAKKKKACiiigAIB4NFFFABRRRQBCba3M4ujGvmgbQ+Pmx6ZqaiigAooooAMCiiigAooooAKKKKACjA60UUAFFFFABRRRQBC1vA063LIplUbQ+PmAPYGpqKKACiiigAooooAKTABz60tFABRRRQAUAAdKKKACkIB680tFABRRRQAUhAPWlooAKKKKAIXt4JJUmkRWePOxiOVz1we1TUUUAFGBnNFFABRRRQAUYHWiigAooooAKKKKAAgHg0UUUAFFFFABRRRQAUUUUAFFFFABRRRQAUUUUAFFFFABRRRQAUUUUAFFFFABRRRQAUUUUAFFFFAH/1vqmiiigAooooAKKKKACq47/AFP86sVXHf6n+dADqKKKACiiigAooooA4/W/+Qzb/wDXFv51Sm/4+LX/AK7LV3W/+Qzb/wDXFv51Sm/4+LX/AK7LTEzvaKKKQwooooAKKKKACiiigAooooAKKKKACiiigAooooAKKKKACiiigAooooAKKKKAMrW/+QTc/wDXM1zNr/x7Rf7i/wAq6bW/+QTc/wDXM1zNr/x7Rf7i/wAqfQDb8M/8glP99/510Fc/4Z/5BKf77/zroKHuAUUUUgCiiigAp8f+rX6Uynx/6tfpQA+iiigAooooAKKKKACiiigAooooAKKKKACiiigAooooAKKKKACiiigAooooAKKKKACiiigAooooAKKKKACiiigAooooAKKKKACiiigAooooAKKKKACiiigAooooAKKKKACiiigAooooAKKKKACiiigAooooAKKKKACiiigAooooAKKKKACiiigAooooAKKKKACiiigAooooAKKKKACiiigAooooAKKKKACiiigD/9f6pooooAKKKKACiiigAquO/wBT/OrFVx3+p/nQA6iiigAooooAKKKKAOP1v/kM2/8A1xb+dUpv+Pi1/wCuy1d1v/kM2/8A1xb+dUpv+Pi1/wCuy0xM72iiikMKKKKACiiigAooooAKKKKACiiigAooooAKKKKACiiigAooooAKKKKACiiigDK1v/kE3P8A1zNcza/8e0X+4v8AKum1v/kE3P8A1zNcza/8e0X+4v8AKn0A2/DP/IJT/ff+ddBXP+Gf+QSn++/866Ch7gFFFFIAooooAKfH/q1+lMp8f+rX6UAPooooAKKKKACiiigAooooAKKKKACiiigAooooAKKKKACiiigAooooAKKKKACiiigAooooAKKKKACiiigAooooAKKKKACiiigAooooAKKKKACiiigAooooAKKKKACiiigAooooAKKKKACiiigAooooAKKKKACiiigAooooAKKKKACiiigAooooAKKKKACiiigAooooAKKKKACiiigAooooAKKKKACiiigAooooA//Q+qaKKKACiiigAooooAKrjv8AU/zqxVcd/qf50AOooooAKKKKACiiigDj9b/5DNv/ANcW/nWddyeS0ExBYJKrHaMnAq9r8kcWr27SMFHktyfrVP7daf8APVfzpiNv/hJ7H/nnN/3xR/wk9j/zzm/74/8Ar1i/brT/AJ6r+dH260/56r+dAG1/wk9j/wA85v8Avj/69H/CT2P/ADzm/wC+P/r1i/brT/nqv50fbrT/AJ6r+dAG1/wk9j/zzm/74/8Ar0f8JPY/885v++P/AK9Yv260/wCeq/nR9utP+eq/nQBtf8JPY/8APOb/AL4/+vR/wk9j/wA85v8Avj/69Yv260/56r+dH260/wCeq/nQBtf8JPY/885v++P/AK9H/CT2P/POb/vj/wCvWL9utP8Anqv50fbrT/nqv50AbX/CT2P/ADzm/wC+P/r0f8JPY/8APOb/AL4/+vWL9utP+eq/nR9utP8Anqv50AbX/CT2P/POb/vj/wCvR/wk9j/zzm/74/8Ar1i/brT/AJ6r+dH260/56r+dAG1/wk9j/wA85v8Avj/69H/CT2P/ADzm/wC+P/r1i/brT/nqv50fbrT/AJ6r+dAG1/wk9j/zzm/74/8Ar0f8JPY/885v++P/AK9Yv260/wCeq/nR9utP+eq/nQBtf8JPY/8APOb/AL4/+vR/wk9j/wA85v8Avj/69Yv260/56r+dH260/wCeq/nQBtf8JPY/885v++P/AK9H/CT2P/POb/vj/wCvWL9utP8Anqv50fbrT/nqv50AbX/CT2P/ADzm/wC+P/r0f8JPY/8APOb/AL4/+vWL9utP+eq/nR9utP8Anqv50AXNS8QWl1YzW8Ucu50IGV9arWwIt4weoRf5Uz7daf8APVfzpPt1p/z1X86AN/wz/wAglP8Aff8AnXQVz3hg50hCP77/AM66Gh7jCiiikAUUUUAFPj/1a/SmU+P/AFa/SgB9FFFABRRRQAVQl1TTYWMctzGjKcEFgCDVqfzvJf7PjzMfLu6Z964eZLxZmNz/AGWJSctvPzZ98ionJrY5sRWlTtyo6VvEGir1u4j9GB/lVdvFGir0mLf7qMf5CuLvHnF/aHdYZBbBjI8scfx8flW4l5qUf3LjTF+j4/pWSqtnGsbUba/T/gnbKwdQ69CMiqOoalBpsIuJwxQsFJUZxnufam6f/aLwsdSMR3fcMJONpHqa5VNK0uXVZtLuBIFCB4285iHHfOTjg1pKTtoddWtNRXItX3O7DKQCCDmoZLq2hBaWVFA65IFchptjYNrEsVuH8u024cyscv6YzgimeH9M069W6nvIUlcXDqC/PGAf60udvoQsTOTSSWt+vb5HU2eqWGoSSR2cokMeN2OnPv3qZb21e6eyWRTMgBZM8gGnQW9tbrst40jHooA/lWbqujpf7bi3byLqMgpKOv0PqKt81jduoo30bNC8vbewgNxdNsQEDOM8k4HAqGTUreK8gsm3b7gFk44wBnmsDWbK/wBWvINNG6OGNfMebHDMOBj6envWReaZqEetWdu9/I8kivtkI5TAOcfWs5VJJ6I5quJqRk+WOl0v8z0aqt7eQ2Fs93cZCJycDJ9Koabp19Zys91evcqy4CsMAHPWsXxTc6kLS5txbD7Lhf324Z7H7uc9eKqU7RvY2q13Ck5tWf3/AJHVNeWyWovJXCRFQ25uAA3TP51S/t3Rv+fyH/vsVT0dry8sxb6laKkAjTYSQwcY7jJx2Nc9/wAS/wAPXUtnqUCTQuTJC+0MwH9055pObsn0MqmJklGa0T73Ozg1XTbqUQ21zHI5zhVYEnHNaFchoFh5902uSxJCHGII0x8q+px3NbGp2N/dshs7s2wXOQFzn9RVRk2rtGtKrOVPncfu7fM0p5o7eF55ThUBYn2FRWV5Ff2yXcIISQZG4YNcDf2uqTXqaINQa4aUZlG3ARevPP6VoppuoW88emJqzJJs3JGIz9wcdc47VHtHfYxWLm5O0NFp03+87eiuV/sXXP8AoKv/AN8f/XrpoUeOFEkbeyqAW9SByfxrRNvdHVTqSl8UbfcZx13RgcG8hyP9sUn9vaL/AM/kP/fYriNGmiS2dX0x7s+a/wC8Cgjr06dq1/tEH/QCk/79j/CslUbV/wDM4oYyUkndfczok1vSJHEcd3EzMcABhkk1qV57co13Pai10qS2KTIzPsx8oPsK9CrSEm73OnD1pVL83T1/UKKKKs6QooooAKKKKACiiigAooooAKKKKACiiigAooooAKKKKACiiigAooooAKKKKACiiigAooooAKKKKACiiigAooooAKKKKACiiigAooooAKKKKACiiigAooooAKKKKACiiigAooooAKKKKACiiigD/9H6pooooAKKKKACiiigAquO/wBT/OrFQYwSPf8AnQAtFFFABRRRQAUUUUAQS21tOQ08SSEcAsoP86i/s7T/APn2i/74X/CrlFAFP+ztP/59ov8Avhf8KP7O0/8A59ov++F/wq5RRcCn/Z2n/wDPtF/3wv8AhR/Z2n/8+0X/AHwv+FXKKLgU/wCztP8A+faL/vhf8KP7O0//AJ9ov++F/wAKuUUXAp/2dp//AD7Rf98L/hR/Z2n/APPtF/3wv+FXKKLgU/7O0/8A59ov++F/wo/s7T/+faL/AL4X/CrlFFwKf9naf/z7Rf8AfC/4Uf2dp/8Az7Rf98L/AIVcoouBT/s7T/8An2i/74X/AAo/s7T/APn2i/74X/CrlFFwKf8AZ2n/APPtF/3wv+FH9naf/wA+0X/fC/4VcoouBT/s7T/+faL/AL4X/Cj+ztP/AOfaL/vhf8KuUUXAp/2dp/8Az7Rf98L/AIUf2dp//PtF/wB8L/hVyii4FP8As7T/APn2i/74X/Cj+ztP/wCfaL/vhf8ACrlFFwKf9naf/wA+0X/fC/4Uf2dp/wDz7Rf98L/hVyii4FP+ztP/AOfaL/vhf8KP7P0//n2i/wC+F/wq5RRcCOOKOFdkShFHZQAPyFSUUUAFFFFABRRRQAU+P/Vr9KjJwM1Kg2qB6CgB1FFFABRRRQAVwC280+t6j5VpDdYZM+a2NuQenB6139cFc28VzcyXEuk3JdzyRIRn8jWVVbHFjFfl/r9GUr+0uE1KyRtPt4yzNiNWyr8fxHHGKn1mzuY9Mnd9NtoQF5dHyy8joNorKvLWJL61RdPnjDE5jZyWfj+E54xWmdPtmGDpF0R/11P+NYWvdf1+R5qV+df1t/h/yO3sgrabCr8gxKD9MV5xqR8MCzlSxhkWcYCkhsA5Gep9K9H06Rns0Lwtb7RtCOckAcCuQv7qa+03Vbjdm2VljiGB/Cw3HPua1qq8TtxaTpr0fTy/Ai0geGZJrZI4X+0/LgkNjeBknrik0jRNP1KK7ubtSzrPIAQccAA/1rQivp9NuYPOO62ltAy8cK6Lk/nVzwzC0eiea/BnLyfgen6CpjFNpNGNKnGUlCSWl+luxQ8JaVZ/ZI9T2nzwzjOeMZI6fSjXNPnsYW1CK8uMmVfk3naA7dMZ6DNaPhP/AJAsf++//oRqv4svbdLNbLOZndHCAZO1WySfyp2Sp3NOSEcIpbafjY0dR0eLUGW5knmj2JjEb7Rxk5PvzXC/2cH0F9bM8xlRiIyWP3d+369K6m/ur/VkSx0lcQTIC9xngKeoHofXvVrU9LZPDr6ZYqXKKoUdzhgTROKldpBWpRquUox2T+b8h2m6FFayR3guJ3YLna7kryPSqHirVbAafPp3mgzsANg7cg806C41G/1CyAtpraK3BMhfgMduMe9WPE9tbppF3cLGokYLufAycEDk038D5SpfwJqkrL/gFOOa6vNJ3XO+wtoY4ysqn52wMHgdAe1Ysl54asog9mBdTOwDtMCx2k/Mea7A3N1baVata2xuSY0BUHGBtHPQ1y+t32oTW0azacYAJUIbcDkg8DoOtTPRX/QyxCUY3vd26pv/AICJLaHw7c3SxaRdy28sh4WNmCnHPSug1bVpbN00+xjaW7lHyDHAHTcTVVNU1YMMaQV9944/8drqNqlg+BnGM960itGkdFGF4tU3Z+jX5nnGlWOtLqN5Fb3MazoV812XduLDPBx0qWW110a/FE11GbgwErJt4C5PGK3NJ/5D+qf7yf8AoIonOPFsB/6dT/6E1ZqCsvX9TnVCPItX8XfzKc02v6de2cd3dJKlxKEIVcccZrsyQBk9q4nUtSs9S1TToLF/NaOfcwAPAGOv5V0ms3a2OmT3DdkIH1PArSLSvrodNCaj7RqV0vO/Q4vR7e8XTXvF1E2kJlbjapGc4zk+tW/Ok/6Dw/75X/Cn3VjLb+EI7bYWfKOygZOWcMf50y4v9JktZIo9OkDshVT5IGCRgGskrK3+Zx25Eot20T3f6MffRavbaZJqUOqNKqLuGEXB5x1xXXWEjy2UMkh3MyKSfUkVytwrReCikgKsIgCDwfvV1dguyygX0jX+Vaw3+R2YfSfyT3f6lqiiitTuCiiigAooooAKKKKACiiigAooooAKKKKACiiigAooooAKKKKACiiigAooooAKKKKACiiigAooooAKKKKACiiigAooooAKKKKACiiigAooooAKKKKACiiigAooooAKKKKACiiigAooooAKKKKAP//S+qaKKKACiiigAooooAKjcfxCpKKAIKWnFO600hh2/KgAopPm/umj5v7poAWik+b+6aPm/umgBaKT5v7po+b+6aAFopPm/umj5v7poAWik+b+6aPm/umgBaKT5v7po+b+6aAFopPm/umj5v7poAWik+b+6aPm/umgBaKT5v7po+b+6aAFopPm/umj5v7poAWik+b+6aPm/umgBaKT5v7po+b+6aAFopPm/umj5v7poAWik+b+6aPm/umgBaKT5v7po+b+6aAFopPm/umj5v7poAWik+b+6aPm/umgBaKT5v7po+b+6aAFopPmP8JpwRj14FACKNx9hU1IAAMCloAKKKKACiiigCC6g+0wPBvaPeMbkOGH0NYX/COL/wA/t1/38rpKKlxT3Mp0YTd5I5d/C0EjrI91cMyfdJfJH04qT/hHF/5/br/v5XSUUvZx7EfVKX8pl2WlLaRyxtPLMJQAfMbOOvT061nXXh0S2ken2s7QWyjDoBktznqe9dLRTcE1Yp4em48rRnXmmQ3lh/Z7Fkjwq5XrhccfpVxIUjhEEY2qq7QB2GMVLRTstzRQindIzdJ0/wDsuyWz3+ZtLHdjHU5ptrpMFvez3zEySznq/O1f7o9q1KKOVaEqlBKKttsc/N4cs3kaW2kltSxyRCxVSfp0qH/hHH7ajd/99j/CumoqfZx7EPC0nrY5+20Fre4Sdr25l2HO12BU/XinanoZ1OUmW6lSFgN0SkbTit6ijkVrB9Xp8vJbQZFGsMaxJ91AFH0HFUtS09NShSF2KBJFfI/2TnFaFFU1dWNZQUlyvYKKKKZRGsUSO0iIAz/eIGCfqe9UH00Pq0eqb/uRGPZjrkk5z+NadFJpMmUE9yFLe3jcyRxorHuFAP51Vv8ATYNR8oXBO2Jw+0HhsdiO9aFFDS2Bwi1ytaB04prLuUrkjIxkdRTqKZRy8nhye5Ajvb+aaHIJQ4AbHrXTqAoCjoOBS0VKilsZ06UYXcQoooqjQKKKKACiiigAooooAKKKKACiiigAooooAKKKKACiiigAooooAKKKKACiiigAooooAKKKKACiiigAooooAKKKKACiiigAooooAKKKKACiiigAooooAKKKKACiiigAooooAKKKKACiiigAooooA//T+qaKKKACiiigAooooAKKKKACiiigAooooAKKKKACiiigAooooAKKKKACiiigAooooAKKKKACiiigAooooAKKKKACiiigAooooAKKKKACiiigAooooAKKKKACiiigAooooAKKKKACiiigAooooAKKKKACiiigAooooAKKKKACiiigAooooAKKKKACiiigAooooAKKKKACiiigAooooAKKKKACiiigAooooAKKKKACiiigAooooAKKKKACiiigAooooAKKKKACiiigAooooAKKKKACiiigAooooAKKKKACiiigAooooAKKKKACiiigAooooAKKKKACiiigAooooAKKKKACiiigAooooAKKKKACiiigD//U+qaKKKACiiigAooooAKKKKACiiigAooooAKKKKACiiigAooooAKKKKACiiigAooooAKKKKACiiigAooooAKKKKACiiigAooooAKKKKACiiigAooooAKKKKACiiigAooooAKKKKACiiigAooooAKKKKACiiigAooooAKKKKACiiigAooooAKKKKACiiigAooooAKKKKACiiigAooooAKKKKACiiigAooooAKKKKACiiigAooooAKKKKACiiigAooooAKKKKACiiigAooooAKKKKACiiigAooooAKKKKACiiigAooooAKKKKACiiigAooooAKKKKACiiigAooooAKKKKACiiigAooooAKKKKACiiigD//V+qaKKKACiiigAooooAKKKKACiiigAooooAKKKKACiiigAooooAKKKKACiiigAooooAKKKKACiiigAooooAKKKKACiiigAooooAKKKKACiiigAooooAKKKKACiiigAooooAKKKKACiiigAooooAKKKKACiiigAooooAKKKKACiiigAooooAKKKKACiiigAooooAKKKKACiiigAooooAKKKKACiiigAooooAKKKKACiiigAooooAKKKKACiiigAooooAKKKKACiiigAooooAKKKKACiiigAooooAKKKKACiiigAooooAKKKKACiiigAooooAKKKKACiiigAooooAKKKKACiiigAooooAKKKKACiiigD//W+qaKKKACiiigAooooAKKKKACiiigAooooAKKKKACiiigAooooAKKKKACiiigAooooAKKKKACiiigAooooAKKKKACiiigAooooAKKKKACiiigAooooAKKKKACiiigAooooAKKKKACiiigAooooAKKKKACiiigAooooAKKKKACiiigAooooAKKKKACiiigAooooAKKKKACiiigAooooAKKKKACiiigAooooAKKKKACiiigAooooAKKKKACiiigAooooAKKKKACiiigAooooAKKKKACiiigAooooAKKKKACiiigAooooAKKKKACiiigAooooAKKKKACiiigAooooAKKKKACiiigAooooAKKKKACiiigD//X+qaKKKACiiigAooooAKKKKACiiigAooooAKKKKACiiigAooooAKKKKACiiigAooooAKKKKACiiigAooooAKKKKACiiigAooooAKKKKACiiigAooooAKKKKACiiigAooooAKKKKACiiigAooooAKKKKACiiigAooooAKKKKACiiigAooooAKKKKACiiigAooooAKKKKACiiigAooooAKKKKACiiigAooooAKKKKACiiigAooooAKKKKACiiigAooooAKKKKACiiigAooooAKKKKACiiigAooooAKKKKACiiigAooooAKKKKACiiigAooooAKKKKACiiigAooooAKKKKACiiigAooooAKKKKACiiigD//Q+qaKZ5i0eYtAD6KZ5i0eYtAD6KZ5i0eYtAD6KZ5i0eYtAD6KZ5i0eYtAD6KZ5i0eYtAD6KZ5i0eYtAD6KZ5i0eYtAD6KZ5i0eYtAD6KZ5i0eYtAD6KZ5i0eYtAD6KZ5i0eYtAD6KZ5i0eYtAD6KZ5i0eYtAD6KZ5i0eYtAD6KZ5i0eYtAD6KZ5i0eYtAD6KZ5i0eYtAD6KZ5i0eYtAD6KZ5i0eYtAD6KZ5i0eYtAD6KZ5i0eYtAD6KZ5i0eYtAD6KZ5i0eYtAD6KZ5i0eYtAD6KZ5i0eYtAD6KZ5i0eYtAD6KZ5i0eYtAD6KZ5i0eYtAD6KZ5i0eYtAD6KZ5i0eYtAD6KZ5i0eYtAD6KZ5i0eYtAD6KZ5i0eYtAD6KZ5i0eYtAD6KZ5i0eYtAD6KZ5i0eYtAD6KZ5i0eYtAD6KZ5i0eYtAD6KZ5i0eYtAD6KZ5i0eYtAD6KZ5i0eYtAD6KZ5i0eYtAD6KZ5i0eYtAD6KZ5i0eYtAD6KZ5i0eYtAD6KZ5i0eYtAD6KZ5i0eYtAD6KZ5i0eYtAD6KZ5i0eYtAD6KZ5i0eYtAD6KZ5i0eYtAD6KZ5i0eYtAD6KZ5i0eYtAD6KZ5i0eYtAD6KZ5i0eYtAD6KZ5i0eYtAD6KZ5i0eYtAD6KZ5i0eYtAD6KZ5i0eYtAD6KZ5i0eYtAD6KZ5i0eYtAD6KZ5i0eYtAD6KZ5i0eYtAD6KZ5i0eYtAD6KZ5i0eYtAD6KZ5i0eYtAD6KZ5i0eYtAH//0fp+iiigAooooAKKKKACiiigAooooAKKKKACiiigAooooAKKKKACiiigAooooAKKKKACiiigAooooAKKKKACiiigAooooAKKKKACiiigAooooAKKKKACiiigAooooAKKKKACiiigAooooAKKKKACiiigAooooAKKKKACiiigAooooAKKKKACiiigAooooAKKKKACiiigAooooAKKKKACiiigAooooAKKKKACiiigAooooAKKKKACiiigAooooAKKKKACiiigAooooAKKKKACiiigAooooAKKKKACiiigAooooAKKKKACiiigAooooAKKKKACiiigAooooAKKKKACiiigAooooAKKKKACiiigAooooA//0vp+iiigAooooAKKKKACiiigAooooAKKKKACiiigAooooAKKKKACiiigAooooAKKKKACiiigAooooAKKKKACiiigAooooAKKKKACiiigAooooAKKKKACiiigAooooAKKKKACiiigAooooAKKKKACiiigAooooAKKKKACiiigAooooAKKKKACiiigAooooAKKKKACiiigAooooAKKKKACiiigAooooAKKKKACiiigAooooAKKKKACiiigAooooAKKKKACiiigAooooAKKKKACiiigAooooAKKKKACiiigAooooAKKKKACiiigAooooAKKKKACiiigAooooAKKKKACiiigAooooAKKKKACiiigAooooA//0/p+iiigAooooAKKKKACiiigAooooAKKKKACiiigAooooAKKKKACiiigAooooAKKKKACiiigAooooAKKKKACiiigAooooAKKKKACiiigAooooAKKKKACiiigAooooAKKKKACiiigAooooAKKKKACiiigAooooAKKKKACiiigAooooAKKKKACiiigAooooAKKKKACiiigAooooAKKKKACiiigAooooAKKKKACiiigAooooAKKKKACiiigAooooAKKKKACiiigAooooAKKKKACiiigAooooAKKKKACiiigAooooAKKKKACiiigAooooAKKKKACiiigAooooAKKKKACiiigAooooAKKKKACiiigAooooA//1Pp+iiigAooooAKKKKACiiigAooooAKKKKACiiigAooooAKKKKACiiigAooooAKKKKACiiigAooooAKKKKACiiigAooooAKKKKACiiigAooooAKKKKACiiigAooooAKKKKACiiigAooooAKKKKACiiigAooooAKKKKACiiigAooooAKKKKACiiigAooooAKKKKACiiigAooooAKKKKACiiigAooooAKKKKACiiigAooooAKKKKACiiigAooooAKKKKACiiigAooooAKKKKACiiigAooooAKKKKACiiigAooooAKKKKACiiigAooooAKKKKACiiigAooooAKKKKACiiigAooooAKKKKACiiigAooooA//1fp+iiigAooooAKKKKACiiuM8e2etX/hqa20Df8Aa2eMr5bbGwGBbnI7UAdng0YNfKX/AAivxY9bz/wIP/xVH/CK/Fj1vP8AwIP/AMVQB9W4NGDXyl/wivxY9bz/AMCD/wDFUf8ACK/Fj1vP/Ag//FUAfVuKK+VvhnrGtXPja1tL28nlTEoZHkZlyEPUE44NfVNAEckkcKGSZlRB1ZiABnjqfepK8y+JvhfW/Eelp/ZFw37jLNa9BKfUHuw7A8enNcF8OPiHf297F4W8Qb5FZvKhkYEyRsP4H7kdh3H0oA+iaMj1riviMSvgrUyDg+V/UV8y+F/BmveLYpptLdAsDBW8xyvJGeKAPs/I9aK+K/FHhPW/CLW66pIpNwGKeW5b7uM5/OvqzwOSfB2kE8n7HF/6CKAOoqH7TbfaPsnmp523f5e4b9ucZx1xnvU1fL3jrw94q8Ka63iy2u5bhHk3Lc/xxk8BHA4x2HG0jsOlAH1FRXBeAPGX/CYaY0s8RiurYhJsA7GJ6Mp9+47V3tAHN6r4v8NaHdfYtWvkt5tofYwYnac4PAPoa6JGV0V0OVYAg+oNfKXxo/5G/wD7c4//AEJ6+pbL/jzg/wCuSf8AoIoAtUUVzfi/UrrR/DN/qdiQs9vFuQkZAOQOn40AdJVW8vLXT7WS9vZBFDENzuc4UevFeV/C3xhrfip9QXWJEcW4iKbEC43785x16Cuv8e/8ibqn/XA/zFAGnpHiXQteaRNHu0uWiALhA3APTqBW3Xzp8DP+P3U/+uSf+hV7d4ov7nS/DuoalZkCa3t5JEJGQGUZHHegDeorx/4W+Mdc8VT6gmsSI4t0jKbUC4LFs9PpXr9AC0V5z4v+JOjeFZTZBTd3gGTEhACZ6b27fTk15qvx01AS5bTISn90SsD+e3+lAH0hRXnHhL4maJ4omWwZWtL1s4iflWxydrdD9Dg16PQAUUV5/wCO/HNn4SsTHERJqEy/uYuu3/bb0A/WgDc1Lxf4Z0e7Njqd/FBOoBKNkkZ6ZwDiuhjkjmjWaJg6OAysOQQeQRXyBo3grxD4ysL/AMRlyzjLIX5a4kzlgD7Dv68etdv8MfiClgE8La8xjQMVt5X42En/AFb56c9D+FAH0XRSUtABRVHUtSstJspNQ1GUQwRDLM38h6k9hXhmqfHFUmZNI0/fGDxJO+0n/gKg/wA6APoGivANM+OMUkypq2neXGfvSQvvI99pA/nXt+l6pYazYx6lpsomglGVYe3UEdQR6UAaFFeWeM/iYnhHWF0lrE3BMKy7xJt+8WGMYP8Adrk/+F6Rf9Apv+/o/wDiaAPf6K8NtfjjpTuFvNPnjU9SjK+PwOK9T0HxPoniWAz6RcLLt++h4df95TyKAN+iiigArG1jxDovh+NJdZuktlkOE3ZJYjrgAE/jXO+MvHmleErcoxE96w/d26nn6uf4R+prwrRtB8RfFLWJdV1OYx26nDTY+VfSONfb/wCueaAPqHTdTsNXtEv9MmWeB87XXpxweuCD9av18l2174l+E+vvaTDzbaQ5Kc+XMn95T2Yf/WNfSfhzxPpPiixF7pcuSPvxtw6H0Yf16UAdDRRRQBXe6tY2KSTRqw6gsAR+BNN+22X/AD3i/wC+1/xr5H+IIjk+IV/FcSmGJpYg7gFtqmNMnA649KP7B8D/APQzP/4CP/8AFUAfXH22y/57xf8Afa/40fbbL/nvF/32v+NfI/8AYPgf/oZn/wDAR/8A4qlGg+B+/iZ//AR//iqAPrlLq1kYJHNGzHoFYE/kDU9fInwx2r4/s0jcyIDMFY8bgI2wce9fXdAC0V59e/FDwbp95NYXV1Is0DtG4EMhAZTg8gYPNVv+Ft+Bf+fuX/vxJ/8AE0Ad7fajp+mQm41G4jt4x/FIwX8s9fwp9neWuo2sd9YyCWCZdyOvRhXgHxD8WeBvFmjbLS6f7bbHfATDIA2fvISRgA9ves/4ZfEPTfD1hPpOvyukAbzIGVGfBP3lwoOB3H40AfTNFea/8Lb8C/8AP3L/AN+JP/iaP+Ft+Bf+fuX/AL8Sf/E0AelUlUdRneDTLm6gOHjgkkU+hVSRxXzDp3xB+JuryNDpbtcug3MsdvGxAzjJwtAH1ZXPR+LfDU2oppEN/E93IxRY1yTuGcjOMA8eteF/8JD8aP8An1uP/AVP/ia4b+zPG1/q7a5DYzNdiXzGeKMDEink7V4ByOeOaLgfZ9FfNP8AwkXxo/59bj/wFT/4mqd/4y+LOl2/2vUklt4QQu+S2RVyegztoA+oqK4D4ba7qfiLw3/aOrSCWbz5E3BQvyqFxwoA7139ABRRRQAUUUUAFFFFABRRRQAUUUUAFFFFABRRRQAUUUUAFFFFABRRRQAUUUUAFFFFABRRRQAUUUUAFFFFABRRRQAUUUUAFFFFABRRRQAUUUUAFFFFABRRRQAUUUUAFFFFABRRRQAUUUUAFFFFABRRRQB//9b6fooooAKKKKACiiigAqOVikTuOqqT+QqSoZ/9RJ/uN/KgDxzwJ8SdY8U+ITpF9b28cYhkk3Rhg2UIA6sR3r2mvhrw/qWuaVqjXXh4O11tdcRxmQ7CRn5QD6Dmu6/4Tb4q/wDPO5/8BG/+JoA+q6K+VP8AhNvir/zzuf8AwEb/AOJo/wCE2+Kv/PO5/wDARv8A4mgCp8NP+SiQfWf/ANBavrRmCqWboBk/hXyp8MtM1eHxva3V5Z3ES4lLPJE6Lkoe5AFfVTrvRkP8QI/OhAcKfid4GBIOpLkcf6uX/wCIp+hXPgjXdZuPEGiGOa9jjCyyhGXCnv8AMAMkcEjnFeY+IfhBpuk6Ne6tFfzSPbxtKEKKASO2c074F/63VP8Adi/maAIfif8AEOw1Sybw5obecjuPPmAIU7TkIueTyBk/gK9C+Ffh+fQvDCtdqY571zOyNwVGMKPyGa4XxdeeD/CPjRr240h7ueSNJgBIqxK5JywQg88fT2q7/wAL0sP+gVN/3+X/AOJpAVvjnbylNLugp8tTKhbsGbBA/Q0zwt8W9K0zRbDRruzmMtvGkG5CpU7eAeSDRffGTQtTtms9R0N54X6o8qkf+g1Z8FW/w/8AGN5cRW/h8WrWyrJuaZ2zk9gCKAPXtd8SaL4aijm1q48hJWKodjvkjk/cBrlLj4l/D27t3trm+WSKRSrq0ExBB6g/JWv4w8HWnjK2gtryd4BbuzgoAclgBzn6V84/ETwVZ+DZrKKznknF0sjNvAGNhUDGPrTA+iv7Z8K+EPDdreQfudNk2iExoxzvBYEj73IHU1jf8Lc8Ff8APxL/AN+m/wAKlj8L2fi3wJpGm3sjxIkMEoKYzkJjHP1rnv8AhSPh/wD5/Lj/AMdoA8g+JOvad4l8Q/2jpTs8P2dI8spU7lLE8H6ivdbb4s+C4raKNp5cqiqf3TdQAK8B8feG7Xwnrn9l2Ujyx+Qku58ZyxYY4+lex2/wV0CWCOVry4BdFY/d7jNIR3eg+PfDniW/OnaVK7zCNpMNGVG1SAeT9RR8Q/8AkSdV/wCuH/sy1m+FvhvpXhPVDqtlcTSyGJotr4xhiCTx9K6Lxbpl1rPhq+0qy2+dcRbE3HC5yDyefSmM8b+BZAk1fJA4t/8A2pXq/j11Pg3VACP9Qe/uK8Dj+EXjqHPktAmeu2cjP5LVPVvhx410vTZ9Rv5IzBAm6QCdmOPoRzSEdX8DSBeank4/dJ/6FXsPjh1Pg7VwCP8Aj0l7/wCya+UvC3hfXvE0s8ehsqtCoZ90hj4JwOgOa7BvhP4+dSryQsDwQbhiD+lAHQfAr/j51b/rnD/Nq9z1y9m07Rru+tkMksUTMiqMktjC8d+a84+GHgvW/Cc1/Jq4iAuFjCeW+7lS2c8D1r12mM+TPA3g278SeJC/iKCZYEDTymRWXzGyMLk+pOT7A19Lf8Ix4d+z/ZP7Pt/Kxjb5Yxit3k8V4Jrvxlu9N1C70y206MvbyNGJGkP8JxnaB+maAPKvGmnReFPGFxBpJKJbuk0IzkpkBgPwPT2r7GjuFFmlzcMIx5auxYgAZGTk18u+DdDHjzxI+sa7fQlzL5r2+f3sm3kAKeAgwBwTwK9/8aeGh4o8Py6VG5ikGHiIJC7l6BgOqnp+tAHn3jH4u2Vij2Hhgi5uOhuDzEn+7/ePv0+tee+DvBGreN9SOs620n2Nm3SzOTvmP91Cf1PQfWu68KfBu3tjHfeJ5BNIPm+zJ9wH/abq30GK9zjjjijWKJQiIAFVRgADoAB0FAHJ3fifwl4VePRLm5jszEihIgrYCnp0BFee/ET4bjWQ3iLw4ublwHlhHAlBH3l/2sdR3+vXhPi//wAjqP8ArjDX1FY/8eNv/wBck/8AQRQB8w+DfibqfhqQaTrqvcWaHbg/66HHYZxkD0P4V9I6Pr2ka/ai70m4SdO+D8yn0ZTyD9a5fxd8O9F8Vg3Df6Le4wJ0HX/fX+L69a5j4e/De+8MaxcanqkysYwY4BEx2uGHLsP0APfn0oA534xyazqOp22k2dvNJbW8fmNsRmVpH75AxwK7rwJ4C0fSdFtrq/tUmvriNZJGlXJTcMhAD0wOvvXp2TXG+N/FjeD9Kj1JbcXG+UR7S23GQTnODQBx/wAUfCWhnw1caxbW8dvc2u1g8YC7gWAKtjr1496574GXlwx1OwJJhQRSgdgzZB/MAVxnif4jar40ij0cpDp9rI678sSCQeC7YztB5wBXu3w78K2XhrRd9vcJdy3ZDyTx8occBVPoP50AeKfGn/kcE/68ov8A0KSvZ/D3gvwlc6DYXFxpVrJJJbxs7NGCSSoyTXjHxp/5HBP+vKL/ANCkr6N8L/8AIt6b/wBesX/oIoA5vUfhf4M1CIotkLViOHgJQg+uOh/EV886xpes/DXxPHJbS7in7yCXoJE6FWH6EfjX2RXhvxytkbStOvMfOk7R5/2WUk/qBQB6nY+IrC88Ox+JGJW3aHznwCxUAfMMDJJByK8J8UfGG/1DdYeGI2to2+Xzm5mb/dA4X9TXffB+X7T4LFvN8yRzyx4PTa3zEf8Aj1dLoHgLw14cma6sbcPOzFhJJ8xQE5ATsoHQd/egD5w8KaBoWo3Z1DxfqkNvGGJaBpP30jDru7qM/j9K+i7Txf4EsLaOzstRtIYYhtRFcAACvPbz4Ji7vJrv+1CvnSNJjys43EnH3vevO/HPw+Hgy2trgXn2n7Q7JjZtxgZz1NID3fXNd+HXiKxbT9V1C1ljPIPmAMjf3lPY1856lZHwtq63nhbVUu1BLRy27jzFA7Oo9u/Q+1df4V+FA8S6FBrP9oeR5+75PL3Y2sR1yPSvQfC3woXw3rcOsG/+0CIODGY8btyleuT60AZXhP4xJeSRad4igKzOQizwqWDE8Dcg5B/3c/Svdq45fAfhmLXYfENvbCG4hJbanEZYjhtvQEdRjFZfxCn8ZwwWR8HK7OWk8/YEPGF253++elMDwT4g/uviFfzyQefGksTMhB2uBGmQSPWl/wCEn8Pf9Ctbf99SV1ovvjf2iuP++IaPtvxw/wCeVx/3xFSEccPFfhonA8MWhPpvepB4n8PZ/wCRWtv++pKZb+D/AIi2mpLq9tps8Vyknmq67BhicnjOPw6V2H2344f88rj/AL4ioA5f4ZBm8fWcqxGNGMxC4OFBjbA5r66r5tN98b+8Vx/3xFXqnw/m8XTafcnxgrrOJgIt4UHZtH933zTGY+o/CHw5qeoXGozz3KyXMjSsFZcAucnHy9OaxNT+Dvhmx025vUuLotDE7gFlxlRnn5a9xrlvG919j8I6pP3FtIo+rDA/U0AfM3w58JWHi/Ubi11F5I0hiDgxEA5Jx3Br2D/hSfhf/n5u/wDvpf8A4mvB/CvizVfCU89xpSRu06qjeYpbAUkjGCPWu1/4XL4v/wCeFt/37b/GkI9D/wCFJ+F/+fi7/wC+l/8AiaP+FKeF/wDn4u/++l/+Jrzs/GfxcOsNsPrGf8a978Fa1eeIfDVrq98EWabfuCDC/KxAwPwpjOiuYUls5bdxuR42Qj1BUgjivlPQ9Y8QeFrua40TQvLeQGNiyTvlQc/xMfSvrJ3WNGkc4VQST6AcmuSu/HHhX7PIkWsQRSFSFfl9p7Hb3x6UAeEap8WvGEkE2mzQRWkki7CVRlkXd6bjwce1c14ZuPE3hfUDqdlpkksxUqDLFIQM9SAMZJ96k1yx0u1vG1ax8Rx391v83JicOXBznJBWtCw+KnjuP/Ro5xdOwIUPEGf8NuOfwpCN65+MHjKzcR3djbwsRkB43U49cFqo6t438WeKdMFnf6OlxauwkHlxzAErnBDK1cPa6pBdeIBqPjDz7xd2ZlBw5I6A56KPQYr6j0T4i+C9Rjjt7W7S0wAqxTDytoHAAP3cfjQMZ8M7YW3hSIfZTZs8sjtEd/ByBn5yTyAK9ApkcscyCWJg6NyGUgg/Qin0wCiiigAooooAKKKKACiiigAooooAKKKKACiiigAooooAKKKKACiiigAooooAKKKKACiiigAooooAKKKKACiiigAooooAKKKKACiiigAooooAKKKKACiiigAooooAKKKKACiiigAooooAKKKKACiiigD/1/p+iiigAooooAKKKKACoZ/9RJ/uN/Kpqin/ANRJ/uN/KgD5Y+Dv/I7N/wBe03/oS19WV8m/CW4htvG4FwwTzIZo1zxlsg4/Q19X70/vD86ECH0Uzen94fnRvT+8PzoAq6hqFlpdo99qEqwwR43O3QZOBn8adZ31lqEIuLCdJ4z0aNgw/SvOfi5qFvb+DprUyL5lzJGiLnkgMC35AVmfBO0MPhq5uiMfaLpsH1VFVf55oA7rxv8A8ihqv/Xs9eR/Av8A1uqf7sX8zXrXjp0j8H6ozkAfZ2HPqcAfrXyTo3iTVNGsbzTtLOx7/YjOud4UZ4XHc5xSA+pPGvgrTPE2nXNzHCp1HycQTZOcpyo64wenTvXiHwytvDF/qE2g+JbNHuHOYGkLKdy8NGcEc9x+Ne9eA4tRsfCFjDraGCaFCCHPIQE7M+h24yDXz58Tp/DU3iD7f4dufMuHObjyx+7DrjDK46n1xxnvTA6/4m6Z4J8NaYLLTrGJdRucbMMxMaA8uQW79BW98GNAax0ebXZwQ98wWMf9MkJ5/wCBHP4AV4Xo0tjrXiWGfxddsIJX3Tyvli2BwpI6A9M9hX2nZPZvaRHT2RrcKBGYyCm3HGMcYpAWq+dfjt/x9aT/ANc5/wCaV9FV85fHR0a90qMEblimJHcAsmP5UwPavCJA8LaXn/n1i/8AQRXR18p+GNe8UeIvEGi2lkjNb6V5Y8tOECIAru59SP8AAV9WUAfKHxo/5G//ALc4/wD0J6+prL/jzg/65J/6CK+WfjR/yN//AG5x/wDoT19TWX/HnB/1yT/0EUAWa8T+L+v6zojaaNJupLbzRLv8s43Y24zXtlfPfx0+9pX0m/8AZaAPXPBd3c3/AIV028vJGlmlgVnduSxPc1B49/5E3VP+uB/mKx/A2v6HbeEdMt7i/t45Et0DI8qhgfQgnineN9f0K58JalBb39vJI8JCqsqlicjoAaAPOfgZ/wAfup/9ck/9Cr6Lr5n+DGpafp13qLX9xFbh40CmVwmcN2ya98/4Sbw5/wBBK1/7/J/jQB4TdeKvESfE3+yVvphafb44/K3fLsJXIx6V7/q+r2OhafJqmpOUt4sbmCliMnA4HPWvluaeG5+LCz27rJG+oxFWUgqRleQR1r6g1/SYtd0a70iY4W5jKZ9D1B/AgUAZ/h/xhoHih5o9GnaVoArOGRkwGyBjcBnpWnc6Lo96GW7s4JQ+d2+NTnP1FfJGj6prXw38Sv8AaITvTMc0LcCRDzkH8iDXsj/G3w6LffHZ3Rmx9whAuf8Ae3Hj/gNAHlHxA0ePwb4tU6GzQKUS4hweY2JIIB64yO/Y4r6p0K/bVNFstScYa5gSQj3ZQTXyTK2t/EzxXvVMSTkL8vKQxL6n0HJ9ya+wbG0isLOGxg4SCNY1+ijFAFqiiigD5T+L/wDyOo/64w19RWP/AB42/wD1yT/0EV8u/F//AJHUf9cYa+orH/jxt/8Arkn/AKCKALNLRRQBxGr/ABE8KaHqEml6lcPHcRY3KInYcjI5AweK6547W9hUyossbAMu4BhyODzXgHxj8J3TXS+KbJDJGyLHcBRkoV4Vj7EcfWo/CPxgg03TIdM8QQSy/Z1CJNDhiVHADKxHIHGQaAO7+IPgrQr3w7eX8FrHb3VrE0ySRqEJ2DJVsYBB9+lcB8E9ZuxqN1oTuWt3iM6KeispAOPTOareNvixHrumSaPokEkMU42yyy4Dle6hVJAz3OTXUfBzwrdafBN4iv0MbXSiOBWGD5YOSx/3j09hSA4X40/8jgn/AF5Rf+hSV9G+F/8AkW9N/wCvWL/0EV85fGj/AJHBP+vOL/0OSum0n4y6fpul2unvp0rtbxJGWEigEqMZ+7QI+ha+fvjjqcRTT9GQgyBmuHHoMbVz9cn8qq6l8cbmSIppWnLC54DzSb8e4UBf1rj/AA54U1/4ga0dS1QyfZnfdcXLjGQP4U9T2GOAKBnuPwmsXs/Bds8gwbh5JsexbC/mADW/411+fwx4em1i2jSV42RQr52/Mcdq6W3ghtYI7a3UJHEoRVHQADAFE0UE6GK4VZEPVWAI/I0wPmr/AIXjrf8Az5W35t/jXIeLvH9/4xt4Le8gihFu5cGMkkkjHOa+uP7K0j/n1g/74X/CvE/jVZ2VtpunG1hjiJmfJRQM/L3xSA4jw78VdU8N6RDo1tawSJDuwzltx3HPOD71tH45a2AT9itvzb/GvTPhlp+nT+CrGWe3idz5mWZVJPznuRXe/wBlaR/z6Qf98L/hQBNp9w13YwXbgBpY1cgdAWGauUxQigKmABwAKfTA+X/jNc3EXiqFYpHQfZEOFYgfef0qzH8LNWkjV/7fthuAODI3euk+Keg+Hbi8XWtX1Q2siQiNLdFDyPtJPAyD378CuS8M/DDQfFWnDUNO1Vxg7ZI2iXfG3oefyPekIuf8Kq1b/oYLX/v41Mk+FmqxxtJ/b9sdoJwJG7V55rHheLS/F3/CMCXzF8+KHzSoB/ebece2a7DxT8PPDnhFbdtU1OZjcMQqxQqWAHViCw4FAEvwguLl/GDRSyu4FvL1YkcEV9S14D8ONL8IafrI1HTNcW5maNoxBKnkv82OgY5OMds177TGFeO/GfWRZ+HotJjbEl9KNw7+XH8x/wDHsD869Q1fV7DQtPl1TUpPLhiGSe5PYAdyT0r5VJ1X4peMgcFI2OPVYbdT/P8AmTQB7L8H9IWz8Ji9lQb72VpOR/Cvyr+BxXqvlx/3V/IVFaWsFlaxWdsu2KFFRB6BRgVYoA8J+OIRdN01VAGZnPA9FFdz8Ml2+BtN90c/m7V5v8dLuPdpdiD86iWVh6A7Qp/HB/KvWvA1sbTwhpduwwRbqf8Avolv60AbGsata6Hpk+rX27ybdQz7Rk4JA4H418xag3wqv9QmvvOv4BM5fyoowFUnrjIPGa+odS02z1ixl03UE8yCYbXXJGQDnqOeory/WfCXwp0CPzNWSOHjIUyuXP0UEk/lQB5vaS/By2IMsd9c4/567hn/AL421j6n4xh0/WjL4KP2GxKoNqxIrEj72SQWP4moNRi0nxLqSaR4F0h48n/WOzM7D1IJKoo/ye1Zfifw3/wjeuR6LJL5reXEZGHA3P12+w7ZpCPZtS+IHwz1qIJq9m1w2ANzQfMPowwR+BrzjUIfhbcTLLYXN9apuBaMx+YpXPIUnBHHck1HrfhK48EamlzqdmNS0yTG1yWUEHnBZfuuPyPvXoXh+x+D/iBUSOEW1w3HkTysrZ9FOcN+Bz7UAeleDPEvh/XbNrTw8jxw2KpHtZSuAQcYz16c12dc9oPhjQ/DayjRIPJE+0v8xbO3OOpPrXQ0xhRRRQAUUUUAFFFFABRRRQAUUUUAFFFFABRRRQAUUUUAFFFFABRRRQAUUUUAFFFFABRRRQAUUUUAFFFFABRRRQAUUUUAFFFFABRRRQAUUUUAFFFFABRRRQAUUUUAFFFFABRRRQAUUUUAFFFFABRRRQB//9D6fooooAKKKKACiiigApCARg9KWigD5w8R/BvV5NSmutBmheCVzIElYoyFjkjODnB6Vjf8Ko8f/wDPWL/wIb/CvqiigD5X/wCFUeP/APnrF/4EN/hR/wAKo8f/APPWL/wIb/CvqiigD5ah+DnjC6nUX81uidC5kaQgewwP519E+HNDt/Dei2+jW7F1gXlyMFmJyzY7ZJrcooA5fxjoJ8S+HbrSkO2VwGiJOB5icrn2PT8c1yPhD4X2fhxPt9xItxqe0+XIy5jhYjqq5+bHqfwxXq1JQB8q6rpHxR8T6nPpt8J5VikKMc+Vb49R0DD8zXeeGPg1Y2TJd+I5RdyDnyEyIwfc9W/Svb6KAPMPFXws0LX087T1XT7oAANGv7tgOzIMD8RXktr4X+JPhDVobPS2kCTyBFkiO+A5PV1PC+5IH1r6pooAigWVIUSdxJIFAdgNoZsckDnGTXlHjf4bSeLPEFrqUM4gi8vy7gn5mwpyu0epyQa9booAw/D/AId0rwzYiw0qLYvV3PLu3qx7/wBK3KWigD5e+L+lapeeK/Os7OedPskY3RxO65y/GVBGa+mLMFbSFWGCI0BB/wB0VZpKACvEPjHomr6w2m/2XayXPliXf5YzjO3Ga9wooA+YtM+C2q39hDez3sdrJKgZoZImLIT2PPUVe/4UVqH/AEFYf+/Lf/FV9H0UAfOP/Ci9Q/6CsP8A35b/AOKpP+FFah/0FYf+/Lf/ABVfR9FAHydpHgbxFo3jS0ja1lmt7a7jzcKhCFQQS3PavrGiigDG1jw9ouvxCHWLWO4C/dLDDL9GGCPzrjV+EngkSeZ9nlI/umU7f8f1r0uigDM0vRtK0S3+zaTbR20fcIOT9SeT+JrSpaKACiikoA+Zfiro2sX3i8XFlZXE8fkxDfHE7rkdeQCK+krJStnArDBESAg9jtFWc0UAFFFFADWVWUqwBBGCDyCDXB6j8MvBmoymd7LyXY5PksUBP05A/AV31FAHD6X8OfB+kSi4t7JZJFOVaYmTH4Hj9K7elooA5rVvB/hnXbsX2r2KXEwQIHZnB2gkgfKwHc1l/wDCtfA3/QKi/wC+pP8A4qu5ooA5S08DeELJxJb6XAGHTcC/6OSK6lEREEaAKqjAAGAB7CnUUAA6181+IfAfj+91y9u7Fn8iWZmjxcFflPTjPFfSlJQB8p/8K5+JX95//Ak/41DN8MfiDcgC5TzQOgefdj8819ZUUAfKEXw0+IsKCOEGNB0VbggD8Aaf/wAK5+JX95//AAJP+NfVlFAHhfw+8IeMtF8Qre64zG2ETqczF/mI44JruPiDZ+KbnRxJ4VuHjmRsSRR4DSK3HDHoR/Ku8paAPnHRPg5qt/ML7xTd+XuO541Jklb/AHnPAP510Hi2DxP4QmtLXwDbMtk0RDxxRCT94p+8zYySQR1PavbqKAPlTQvC3jHxF4wg1jWbWWLFwk88sq7BiMg4A98YGK+htf8ACOgeJlH9r2/mOo2pIpKuo9iP6iulooA+eNc+CTorTeHrzeRyIZxg/g4/qK9A+Gmj+INI0aWPxDLKZWlIjikbf5aLxwcn73Xr0r0aloA+efiR4d8ba94kt7OIefYynFvsyI48D5jJ6N7nqOBXq3g3wfY+ENN+ywHzbiXDTzYwWb0Hoo7CuwooAK+f/Fd38U9O1+6j0d7meyL74SkaMArDO37uflORzXv9LQB8saV4C8ZeL9ZXUPE4lhiJBllnxvZR/CiD/AAV9RxRxwxpDEu1EUKoHQADAH5VJRQBheJdNvNW0S6sNPuHtbh0/dyISpDDkDI5wehrwXRPg3rWoyfa/Elz9mDHLKD5srfVicD9a+l6KAMLQfDmj+GrT7JpEAiB+855dz6s3U/yrwH4laDrd942N1ZWU80OyH50jZl468gdq+mqWgCq9tBdWf2W7jWWN0CujjIIx0INeN+Ivgvp17I1zoE/2Njz5LgvHn2Ocj9a9upKAPMfht4T1rw1bXX9tzs7uwSKISF41RedwB4BY+w6V6dRS0AFFFFABRRRQAUUUUAFFFFABRRRQAUUUUAFFFFABRRRQAUUUUAFFFFABRRRQAUUUUAFFFFABRRRQAUUUUAFFFFABRRRQAUUUUAFFFFABRRRQAUUUUAFFFFABRRRQAUUUUAFFFFABRRRQAUUUUAFFFFAH//R+n6KKKACiiigAooooAKKKKACiiigAooooAKKKKACiiigAooooAKKKKACiiigAooooAKKKKACiiigAooooAKKKKACiiigAooooAKKKKACiiigAooooAKKKKACiiigAooooAKKKKACiiigAooooAKKKKACiiigAooooAKKKKACiiigAooooAKKKKACiiigAooooAKKKKACiiigAooooAKKKKACiiigAooooAKKKKACiiigAooooAKKKKACiiigAooooAKKKKACiiigAooooAKKKKACiiigAooooAKKKKACiiigAooooAKKKKACiiigAooooAKKKKACiiigAooooAKKKKACiiigAooooAKKKKACiiigD//S+n6KKKACiiigAooooAKKKKACiiigAooooAKKKKACiiigAooooAKKKKACiiigAooooAKKKKACiiigAooooAKKKKACiiigAooooAKKKKACiiigAooooAKKKKACiiigAooooAKKKKACiiigAooooAKKKKACiiigAooooAKKKKACiiigAooooAKKKKACiiigAooooAKKKKACiiigAooooAKKKKACiiigAooooAKKKKACiiigAooooAKKKKACiiigAooooAKKKKACiiigAooooAKKKKACiiigAooooAKKKKACiiigAooooAKKKKACiiigAooooAKKKKACiiigAooooAKKKKACiiigAooooAKKKKACiiigD//T+n6KKKACiiigAooooAKKKKACiiigAooooAKKKKACiiigAooooAKKKKACiiigAooooAKKKKACiiigAooooAKKKKACiiigAooooAKKKKACiiigAooooAKKKKACiiigAooooAKKKKACiiigAooooAKKKKACiiigAooooAKKKKACiiigAooooAKKKKACiiigAooooAKKKKACiiigAooooAKKKKACiiigAooooAKKKKACiiigAooooAKKKKACiiigAooooAKKKKACiiigAooooAKKKKACiiigAooooAKKKKACiiigAooooAKKKKACiiigAooooAKKKKACiiigAooooAKKKKACiikoAWikpaACiiigAooooA//1Pp+iiigApQpPSpVjxyakoAhER7mneUKkooAj8taPLWpKKAI/LWjyhUlFAEflD1o8oetSUUAR+UKPLWpKKAI/LWjy1qSigCPy1o8takooAj8taPLWpKKAI/LWjy1qSigCPy1o8takooAj8taPLWpKKAI/LWjy1qSigCPy1o8takooAj8taPLWpKKAI/LWjy1qSigCPy1o8takooAj8taPLWpKKAI/LWjy1qSigCPy1o8takooAj8taPLWpKKAI/LWjy1qSigCPy1o8takooAj8taPLWpKKAI/LWjy1qSigCPy1o8takooAj8taPLWpKKAI/LWjy1qSigCPy1o8takooAj8taPLWpKKAI/LWjy1qSigCPy1o8takooAj8taPLWpKKAI/LWjy1qSigCPy1o8takooAj8taPLWpKKAI/LWjy1qSigCPy1o8takooAj8taPLWpKKAI/LWjy1qSigCPy1o8takooAj8taPLWpKKAI/LWjy1qSigCPy1o8takooAj8taPLWpKKAI/LWjy1qSigCPy1o8takooAj8taPLWpKKAI/LWjy1qSigCPy1o8takooAj8taPLWpKKAI/LWjy1qSigCPy1o8takooAj8taPLWpKKAI/LWjy1qSigCPy1o8takooAj8taPLWpKKAI/LWjy1qSigCPy1o8takooAj8taPLWpKKAI/LWjy1qSigCPy1o8takooAj8taPLWpKKAI/LWjyh61JRQBCYvQ0wqR1qzRQBVoqZo88ioaACiiigD//V+n6nRcDJ61HGuTn0qegAooooAKKKKACiiigAooooAKKKKACiiigAooooAKKKKACiiigAooooAKKKKACiiigAooooAKKKKACiiigAooooAKKKKACiiigAooooAKKKKACiiigAooooAKKKKACiiigAooooAKKKKACiiigAooooAKKKKACiiigAooooAKKKKACiiigAooooAKKKKACiiigAooooAKKKKACiiigAooooAKKKKACiiigAooooAKKKKACiiigAooooAKKKKACiiigAooooAKKKKACiiigAooooAKKKKACiiigAooooAKKKKACiiigAooooAKKKKACiiigAooooAKKKKACiiigAooooAKKKKACmOueR1p9FAFWinyDBz60ygD//1vqZBhafQOlFABRRRQAUUUUAFFFFABRRRQAUUUUAFFFFABRRRQAUUUUAFFFFABRRRQAUUUUAFFFFABRRRQAUUUUAFFFFABRRRQAUUUUAFFFFABRRRQAUUUUAFFFFABRRRQAUUUUAFFFFABRRRQAUUUUAFFFFABRRRQAUUUUAFFFFABRRRQAUUUUAFFFFABRRRQAUUUUAFFFFABRRRQAUUUUAFFFFABRRRQAUUUUAFFFFABRRRQAUUUUAFFFFABRRRQAUUUUAFFFFABRRRQAUUUUAFFFFABRRRQAUUUUAFFFFABRRRQAUUUUAFFFFABRRRQAUUUUAFFFFABRRRQAUUUUAFFFFABRRRQAUUUUAFFFFADHGVqCrR5FR7PagD//X+qaKKKACiiigAooooAKKKKACiivLPGvxGk8G67p+nXViTZXZBe6LcAZwwA9V4Jz2oA9TopqOsiCRDlWAII7g06gAoqre3tpp1rJfX0ghgiG53boo9TXJ/wDCyPA3/QXt/wAz/hQB21FeMeM/i9puj2Mdz4ZmtdRkZ9rxl2BUEcMAAMj1rpNO+KHgu8sLe6uNRhgkljVniYnKMRyp47HigD0OiuJ/4WR4G/6C9v8Amf8ACuyiljniSeFgySKGVh0IIyDQBJRRRQAUUUUAFFFFABRRRQAUUUUAFFFFABRRRQAUUUUAFFFFABRRRQAUUUUAFFFFABRRRQAUUUUAFFFFABRRRQAUUUUAFFFFABRRRQAUUUUAFFFFABRRRQAUUUUAFFFFABRRRQAUUUUAFFFFABRRRQAUUUUAFFFFABRRRQAUUUUAFFFFABRRRQAUUUUAFFFFABRRRQAUUUUAFFFFABRRRQAUUUUAFFFFABRRRQAUUUUAFFFFABRRRQAUUUUAFFFFABRRRQAUUUUAFFFFABRRRQAUUUUAFFFFABRRRQAUUUUAFFFFABRRRQAUUUUAf//Q+qaKKKACiiigAooooAK8v+IOi+O9VuLR/B999jSNHEw8zZuJIx2OeK9QooA+X9R8O/GfTNPuNSudaPlW0TyviY52opY4464Fchpfh34ifE7R/tb3/wBqtYZigW4k6OqgkgY9Gr6a+I10LLwNq87d7Zo/+/hCf1r5v8AfEPWvCWgnTbHRnvY5Jnm80bwCWAXHCkcbaAOsg8EfGi1gS2t9Y2RxqFVROcADgDpU3/CH/G7/AKDR/wC/5/wqQ/GzxMBk+HH/ADk/+Ir0T4b+PZ/Hdtd3E1otr9mdUAVi27cM9wKANHxfZzzfD69s76YLKLMCWVssNygbmOASeQegr5z8LXXwZs9Git/Eym9vgzl5Y0uVUgsSowCvQYHSvry9ls4LSWXUGRLdVJkaQgIF77s8Yrxnxre+CNT0OXT9D1jR7GaXh5PkdtncKUOVJ9cHigDxDX9Z+HZ121h8O6XCmnLjz5rj7SxbPXCCQN8o6ep9q7oap+z2elnKf+A3P/xdcHo3i1/BZOk2UGma1GzFjIInZiT/ALTKh/Qil17XTr2u2g8XWL6PpaEMYraDaxBHXLbSc+vYdBQBf8Xy/CbULKGDwg32C5EwLvKlwwZMEbed3OcHpX2Bo8fk6RZxZDbIIlyOhwoGea4Pw7rPwu1WGK00Z7HKKFSKRFSTA4HyuAxrr/EutxeGNBudaeEzJaqp8tDgkFguB+dAG9RXzz/w0Fpv/QIuP+/i/wCFH/DQWm/9Ai4/7+L/AIUAfQ1FfPP/AA0Fpv8A0CLj/v4v+FH/AA0Fpv8A0CLj/v4v+FAH0NRXn3gPx/beOku2t7SS1+yGMHewbdv3dMAdNteg0AFFFFAHJr4luZZJVttOmmWN2QsmCMqcVGnii7kme3TTZzJHgsoxkZ6Zqx4X/wBTef8AX1L/AOhUmh/v9X1S8H3TKsYP+4MH+VAEEXii7nZ0h02d2iba4GPlPoa3tOvrm9ieSe1e2ZTgLJ1bjORWT4f/AOP7Vf8Ar6NdRQBx8viDWYZY4ZNNw0xKoPM6kDPpUlhr2q37qU0/Ee/Yz+Z93B54x2rCJ1XUbuGf7WEK3kkMQ2A7Nqk57Z44xTtGk1Gyez/0jdDdXEqsm0DlSQTn3oA321fXQSBpZIz18wf4Vb0jV59RnuLa5t/s8lvtBG7d97n0FXm1XTEYq11ECDgguOCPxrC0OWObW9UlhYOjNHhlOQfl9aANTU9Zt9LlihlSSR5QSojXceKoHxLGVO20ugfXyicVV183a61pxsgjTYk2h87eg64rOvJvEQ1qyEqwCbD7FVm2Hg53c/lQBf0/xLci326jaztKCeUiOCO1atrr0d1cJbi2uELnG54yAPqaydTm8T/2fP8AaI7ZY9h3FGbcB7c1Y0GTXmtrTzEgNqY1+bLeZtxweuM0AdFeXtrYRGe7kWNPU9/p61kw+J9ImlWLzGjLfdMilVP4kYrMnRb/AMXLbXQ3R20PmIp6FjjnH410GrWVtd6dNFOo27CQcdCBkGgDSyMZ7Vgy+JdIikaISNIV6mNGcD8QMVj2V1d33g+TyiWmRHjBHUhf64rY8OtYf2RALXaAFww4zu75/GgDSsdRstRjMlnIHA6juPqOoq7XGQeU/i4vp+DGISJyn3d3OM9s9K7OgBkkkcKGWVgqqMkk4AFc/wD8JVou7HmNtzjfsbZ/31jFVvETG8u7LRc4Sd98nuic4/HFWm1bw4qnT2mh2Y2bf4cdMZ6UAb0UsU0azRMHRhkMDkEVgv4q0RHKNPypIPynqKn0vT10mwkhjm82PLOh/ugjoPasDQdR0ux0aJ790V5Wd8EbmwWPYAmgDftfEWk3twttbzbpH6DBHTmtO6u7ayiM91II0HGSe/oKq2N9pl+C9i6OV64GCPw61ja0A+u6XHP/AKrc5APQuAMUAblnqdjflltpAzL1Xow/A81NeXkFjbtdXBwidccnngADua5u9Cx+K7EwcM8biTHdcHGfxxVicnVdZS0Xm3siJJfRpD91fw60AdGjb0DgEbhnB4NOoooAKKKKACiiigAooooAKKKKACiiigAooooAKKKKACiiigAooooAKKKKACiiigAooooAKKKKACiiigAooooAKKKKACiiigAooooAKKKKACiiigAooooAKKKKACiiigAooooAKKKKACiiigAooooAKKKKACiiigAooooAKKKKACiiigAooooAKKKKACiiigAooooAKKKKACiiigAooooAKKKKACiiigD/0fqmiiigAooooAKKKKACiiuM8b+NdN8E6V9uvP3k0uVt4R1kcD17AdzQB5r8dfEHl6Xa+FbM7rm+kV3ReTsU/KMf7TYx9K9a8IaL/wAI74ZsNGP37eEB8dN7fM+P+BE14r8NvCuq+Kddf4jeL0JZ23WkbDAJHCuFPRVH3PU819AalqFrpVjNqN6xWGBd7kAsQo74HNAD75tllO57Ruf0NeCfs8RkaDqUp/iuVH5Rj/GtnxV8YfCK+H7tNIujc3U0TRxIFYYZhjJJAwB1q/8ABPR5tK8Exy3CGN7yVpgGGDt+6p/EDNAHZ+NNZl0Lw9cX8Vk2onKxm3UEl1kO08AHjB54r5YjuPD8b7z4Hunyc4Zpsfoor6w8UeI7Pwpo8utX8cskMRAIiXcfmOBnsBnueK8Pfx98QvH0hsvBWnnT7V+DdyckD13kbV/4Dk+hoA861jx5ZW+nPpOiaCuh3aurCZeJkxzjLDcM/Wui0X4v3M2jwaBqGjNrUsakO0h81pOScldrHgGtrxn4BsfCHw9u7mWQ3mp3M0RuLp+WJLZIXPIHr3PetDQ/h3B4k8DaNrekTHT9Zt4T5VzGSu7DtgPjn6Hr9RxQB59/aWjrqsOrxeCbmOSB/MEa+Z5TMOhZChBwefSvqzQNQbxFoFtqN/aGA3Sbnt5RnbyRghh7Z5FeKJ8R/HXgp/sfjvSWuoU4+1wDGR6kj5D/AOO17poWrwa9pNvrFtHJFFcpvVZRtYD3FAE39kaV/wA+cH/ftf8ACj+yNK/584P+/a/4VoUUAZ/9kaV/z5wf9+1/wo/sjSv+fOD/AL9r/hWhRQBXgtLW1z9mhSLd12KFzj1wKsUUUAFFFFAHAWOqLpenXjqN00l3KkSAZJYnj8q6fQtPbTtOSGXmV8ySH/bbr+XSuY0rVLTTjcw3kMpb7TI64iZgMk4IOK2v+Ep07/nncf8Afpv8KAMu01KPRdS1BL2KX99MZEKoWBBrV0CS4upbzUJFkSOaQeUr5HygYzg9M0n/AAlOnf8APOf/AL9N/hWlp2q22pbxbrIuzGd6FevpmgDkdGKm9Z55Y44oLq4f5nAYu2FHB7YzQYfs2qafBFcxzwieRkVMbl3cncQTnrxxVGzNgHuvtOmy3bfaZPnRcgDPTqKnQ2R1jT/sthJZnzDkuuN3Hbk9KANLQtK069S6luoFkf7TKMn03GuntLHT7BylpGkTOMkDqQPauU0fWLDSzd2t+5ik+0yNgg9Ccg1Pb3Uer+JIrqzy0FtCwL4IG5u3NAFq/wDn8UWCDny4pHP4ggfqKx9SvrTUr1Yp7O6E8QO0I21sHv61p2s0cmuX2q3DeXBaqIFZuBnq36/zqvq2o6VqIX7F5s91GcxSW6klT9emPagDJe1tth8yz1HbjndIcY98113h6/gvbELaxPHFBiNd/OcD171y9w+vzpEmuxS/ZMfvBbgbm/38HI/CuqsNY0Rljs7SVYyMKsRG1vpg0AQ6tpLXV1Hf2EwhvIhxnkMvowqvJb67dRPHq0kMVsoJk8nO51HOMnoD3qfWNLvJbqHVdLZRcwgqVb7rqe1UbhfEerp9hmgSzhfiRw+4kdwPrQBnaZeSaR4Ue9hX5pJW8vPT5jtB+nFaFr4SsZ4hc6gzyzzDc5B2jJ54AFbl1pFtc6UdJHyRhQqkdQV6H86x4JvE+nxLavax3YQbVkD7cgdMjFAENrE/h3WINMgbfaXgYqGA3Ky+46/jXaVy1lpmpXWpLq2sFUaIFYoUOQue5NX7pNZOrQPbOoswP3gOM5/n9MUAc94it2uPEFhEWKJMhjYjg4ycjPuOK6ltI0x7f7KbeMR4xgKM/n1zUGtaW2pQIYH8ueFg8T+hHb6Gss3Xix4/swtIkkxjzt/y/XbQBD4dIW0v9Mmk/cW0jIrk4wpznk+lbOlaPpdhbgWirKG58w4YkfX0pNM0WGx097KU+a02TK394t1rJt4fEGiJ9jtYUvLZSfLJbaygnoaAGarbQ6drdhfWahHmkMcirwGBHXFdNqGnWupQiG5B+U7lZThlI7g9qxLTTNSvNQTVNZ2oYc+VChyFJ7k+tdTQBzE9rZ+H4JdRTfNcuBGjSNuZmPCqPaqVzHc6TpttZQvtub6YCWXuGbliP5CtaS0uL3WVmuFxbWgzGD/HI3VvwqbWtOk1C2T7OwSeFxJGT03DsfqKAMa4jm0G+s2gnllhuZPKkWVt/J6MM9K7GuXFjqupX1vcaokcMVqd4RG3F37H2FdRQAUUUUAFFFFABRRRQAUUUUAFFFFABRRRQAUUUUAFFFFABRRRQAUUUUAFFFFABRRRQAUUUUAFFFFABRRRQAUUUUAFFFFABRRRQAUUUUAFFFFABRRRQAUUUUAFFFFABRRRQAUUUUAFFFFABRRRQAUUUUAFFFFABRRRQAUUUUAFFFFABRRRQAUUUUAFFFFABRRRQAUUUUAFFFFABRRRQAUUUUAFFFFAH//S+qaKKKACiiigAooooAKy9W0TStdt1tdXtkuYkdZFVxnDKcg1qUUAIqqihEACgYAHAAFRzwQ3ML29woeORSjq3IZWGCD9RUtFAHFQfDjwNbTrcQ6RbB0OVygIBHoDxXaABQFUYA4AFLRQBDcW1vdwNbXUayxOMMjjKke4NPiiihQRQqEReAqjAH4Cn0UAZesaNpmvWTadq0Int2IYo2cEjp0qbTdNstIsYtN06MQ28IwiDoATnv7mr1FADJIo5kMcyh1bqrDIP4GljjSJFjjUKqgAADAAHQCnUUAFFFFABRRRQAUUUUAFFFFACYHpRgelLRQAmB6UuBRRQAyOKOIERqFBJJwMZJ70NFG7KzqCUOVJHT6U+igBhijY5ZQT7ilVVXhQB9KdRQBG8MUiNG6gq/3gRwfrSpHHGNsahR6AYp9FABULW8DOJGjUspyDgZBqaigAooooAKKKKACiiigAooooAKKKKACiiigAooooAKKKKACiiigAooooAKKKKACiiigAooooAKKKKACiiigAooooAKKKKACiiigAooooAKKKKACiiigAooooAKKKKACiiigAooooAKKKKACiiigAooooAKKKKACiiigAooooAKKKKACiiigAooooAKKKKACiiigAooooAKKKKACiiigAooooAKKKKACiiigAooooAKKKKACiiigAooooAKKKKACiiigAooooA//T+qaKKKACiiigAooooAKKKKACiiigAooooAKKKKACiiigAooooAKKKKACiiigAooooAKKKKACiiigAooooAKKKKACiiigAooooAKKKKACiiigAooooAKKKKACiiigAooooAKKKKACiiigAooooAKKKKACiiigAooooAKKKKACiiigAooooAKKKKACiiigAooooAKKKKACiiigAooooAKKKKACiiigAooooAKKKKACiiigAooooAKKKKACiiigAooooAKKKKACiiigAooooAKKKKACiiigAooooAKKKKACiiigAooooAKKKKACiiigAooooAKKKKACiiigAooooAKKKKACiiigAooooAKKKKACiiigD//U+qaKKKACiiigAooooAKKKKACiiigAooooAKKKKACiiigAooooAKKKKACiiigAooooAKKKKACiiigAooooAKKKKACiiigAooooAKKKKACiiigAooooAKKKKACiiigAooooAKKKKACiiigAooooAKKKKACiiigAooooAKKKKACiiigAooooAKKKKACiiigAooooAKKKKACiiigAooooAKKKKACiiigAooooAKKKKACiiigAooooAKKKKACiiigAooooAKKKKACiiigAooooAKKKKACiiigAooooAKKKKACiiigAooooAKKKKACiiigAooooAKKKKACiiigAooooAKKKKACiiigAooooAKKKKACiiigD//V+qaKKKACiiigAooooAKKKYxydg/H6UAG4nhPz7UbSerH+VPAwMCigBmwep/M0bB6n8zT6KAGbB6n8zRsHqfzNPooAZsHqfzNGwep/M0+igBmwep/M0bB6n8zT6KAGbB6n8zRsHqfzNPooAZsHqfzNGwep/M0+igBmwep/M0bB6n8zT6KAGbB6n8zRsHqfzNPooAZsHqfzNGwep/M0+igBmwep/M0bB6n8zT6KAGbB6n8zRsHqfzNPooAZsHqfzNGwep/M0+igBmwep/M0bB6n8zT6KAGbB6n8zRsHqfzNPooAZsHqfzNGwep/M0+igBmwep/M0bB6n8zT6KAGbB2J/Oj51/2h+tPooAQEMMilpjfKd4/Gn0AFFFFABSFgoyaWqE8m9sDoKAHvcnolQGaQ/xGo6KAH+bJ/eNJ5sv940ykoAk82X+8aTzpf7xplJQA/wA6X+8aTz5v7xplIaAHGeb+8apve3QcqHOBU5rOcfvDQBa+23X980v226/vmqgpaALf225/vml+2XP981UFOFAFr7Xc/wB80v2u4/vmqtOpAWftdx/fNL9quP75qtS0AWPtVx/fNH2q4/vmoKKALH2mf++aPtM/981BRQBY+0z/AN80faZ/75qCigGT/aZ/75pftM/981BS0ATfaJ/75pftE3941BS0ATfaJv75pftE3941BS0ATfaJv7xo+0Tf3jUNKKAJvPm/vGjz5v7xqGlxTAlE83940vnzf3jUVFICXz5f7xpfOl/vGoRS0AS+dL/eNHnS/wB41FRTAm86X+8aPOl/vGoqWgCTzpf7xpfNl/vGoqKAJPOl/vGl82X+8ajooAk82X+8aPNl/vGo6KAJPNl/vGjzZf7xplFAEnmyf3j+dHmy/wB41HRQBJ5sn940nmy/3jTKKAH+bL/eNHmy/wB41HRQA/zpf7xo86X+8aZSUAP86X+8aTz5v7xplIaAH+fN/eNJ9om/vGozTTQBIbmf+8aYbq47OajNRmkBKby4/vmmm9uR/GagNRmgonN/df36jOo3Y/jqu1QmlcC2dSvP79M/tO9/56foKpmm96ANFdSvT/y0/QVYW9uz1c1loK0IlzTQmJPfXyLlJCPwFZKa1qhlKNLwPYf4VtSxgriuckiMdyc+lDBGNqfizXbe+e3hnwq7eNinqOe1ZH/CdeJEV3+0A7c8GNe34Vn6yf8AiazEf3gP0FYUn+qkHThqybZokj0XRviXcfZVn1mFWQLlniGCP+Ang16tp+o2eqWqXtjIJInGQR/UdjXyrD/yA5Ce0ZrrvCmvS6C0c2cwMiCVe2MdfqKpT7icex9E0UyKRJo1mjOVcBlPqDyKfWhmFFFFABRRRQAUUUUAf//W+qaKKKACiiigAooooAKYnOT6n+VPpidD9T/OgB9Vb24NrayXCruKDOCcZq1Wbq//ACDZvoP5igDH/wCEim/54L/32f8ACr2n6tLfTGLylTAzncT/AErka1dGVGu23pvGw8Yz3FAHY5l9F/P/AOtRmX0X8/8A61VvLg/54H8qPLg/54H8qYFnMvov5/8A1qMy+i/n/wDWqt5cH/PA/lR5cH/PA/lQBZzL6L+f/wBajMvov5//AFqreXB/zwP5UeXB/wA8D+VAFnMvov5//WozL6L+f/1qreXB/wA8D+VHlwf88D+VAFnMvov5/wD1qMy+i/n/APWqt5cH/PA/lR5cH/PA/lQBZzL6L+f/ANajMvov5/8A1qreXB/zwP5UeXB/zwP5UAWcy+i/n/8AWozL6L+f/wBaq3lwf88D+VHlwf8APA/kKALOZfRfz/8ArUZl9F/P/wCtVKKKMRgPAc/SpPLg/wCeB/KgCzmX0X8//rUZl9F/P/61VvLg/wCeB/Kjy4P+eB/KgCzmX0X8/wD61GZfRfz/APrVW8uD/ngfyo8uD/ngfyoAs5l9F/P/AOtRmX0X8/8A61VvLg/54H8qPLg/54H8qALOZfRfz/8ArUZl9F/P/wCtVby4P+eB/Kjy4P8AngfyoAs5l9F/P/61GZfRfz/+tVby4P8Angfyo8uD/ngfyoAs5l9F/P8A+tRmX0X8/wD61VvLg/54H8qPLg/54H8qAIdRvpbGJZQivubbjcR2J9Pasj/hIpv+eC/99H/Cn62ka28ZSPYd/XHsa5ukB2Om6q9/M0TRhNq7shs98egrarkfD/8Ax+Sf9c/6iuuoAKYn3R7cflT6Yn3fxP8AOgB9FFFADJDtQms01oTf6pqzqACkpaSgBKKKKAEpKWkoASkNKaQ0ANNZz/6xq0TWe/8ArGoAQUtJS0ALS0lLQAopRSClFAC0tJS0gFpaSloAWgUUUALRRRQAopaSloAKWiigApaKKACloooAKWkpRTGFLRRSEKKKSjNAC0UlJmgY/NGaj3UbqAJKdUW6nbhTAfRSAg0tAC0UUUCCilooAKKWkoAKKWkoASilpKADFJS0lACU006mmgBpppp5phoGMNRmpDUZpCIzUZqQ1EaCkRNUTVKahakBGaTvSmjIHJoAnjHNa0K9KwBqOnxNiW4jU+7AVtWd9YzkLDPG59FYGmhMtyJxXNavFmBiCQfUda6514rntWX/AEdqoR43NkXDBiSc9TWfJxDIe+01fuT/AKW/+8aoSZ8qT0wa52bIoQ86FLn+4atFcaYQOD5Q/lVWI/8AEhl/3Gq3Kdun/wDbMfyoGfTOinOjWR/6d4v/AEAVp1maL/yB7L/r3j/9BFadbmAUUUUAFFFFABRRRQB//9f6pooooAKKKKACiiigApidD9T/ADp9MTofqf50APrN1f8A5Bs30H8xWlWbq/8AyDZvoP5igDh6E1GTTp1eLq4K/dJ9PSiuc8QX9zYJC9sQCxYHIz2pSlZXHFXdjq5vFzwzeQ8iB8ZxsNVJfG1xE4UqSp6uIm2r9Sa8ybxJqGOXjz/u/wD16F1/UZiY2MZQjBBTr+tY+3Rr7Jnp58bkYYyKUzguEO0Z6ZNMn8cSpxbYnfP3VXH6nivMk1S7aJ4GWIxryF2cZHTjNaVhq15PdRRT7CGbbwuOMfWmqy2B0j0RPE+sSLkQquem7H9KqN4u1y3kC3UcbBuhiRjge9VdgOcUeWfpWvMZ2L//AAlWtrJvZIvJb7uFbf8Aj2qb/hJ9aJDJChU/QH8s1nNgnrTMAfxU7hym3H4j1Rvvqi/hn+tWP7fvtoJK/wDfP/1653appCycjFK4WOg/4SG/z1X/AL5/+vS/8JBf9in/AHz/APXrndqnGBik8vnilcLHSDX78jOV/wC+f/r03/hIb/1T/vn/AOvWCo2rg0hA9adwsb//AAkOoZxlP++f/r05dfvySCU9vl/+vXPDae9B2oBnvRcLHQHxBfdiv/fP/wBej/hIL/1T/vn/AOvXO/J6UnljGRSuFjffxFqSj5FVz6AY/rVZ/E+uKBst1Y/UCstF2tu7U4gHnNO4WJp/F2veakNtDHuJ5LhtoH1FObxdrTt5UESB84y6tt/MVVG3pmnBV5b0ouFjSHiXXUX99FEzf9M+n/j1OHijVAWM8QjRRndgN+GFOayCVbtmkdRskZRyqMR9QMii4WNB/HAjYK8qgn1jb/Cmp47SUM6SqUQ4L7Dtz6Z9a8jh8Qa88YZzCCf9k/401dX1ZUaFI7dY3JLKI+CT1J560ai0PX08bTSOFQEqej+UxU/Qipl8YSM3liRC5HA2NXjq67r0ShITCqjooTAH609fEPiA/eMX4Kf8aNQ0PX5dZudRjjSUrt3Z4Ug9D61FXBeF9Z1DUdRubW+2YgEZXYMfeBznn2rvaYjd8P8A/H5J/wBc/wCorrq5Hw//AMfkn/XP+orrqACmJ938T/On0xPu/if50APooooAin/1TVn1oT/6pqz6AEpKWigBtFFFACUhpaSgBKSlNJQA01nv/rDWhVCT/WNQAlLSUtAAKWgUUgFoopaAFpaSlFABS0gpaAFFLSUtAC0UUUALS0UCgBaKKKAFooooAUUtJRQAUVVubyC1TdK3PYdzXMXOr3M5Kxfu19utZVK8YbmsKUpbHWSTwxD944X6mqjarYrx5mfoK4ssWOWJJ96SuR4x9EbrDLqztBq1if48fUGrKXltL/q5FP41wRNRs2OlCxcuqG8NHoz0UuKYZBXBQ6pd25wrll9G5rdg1VLiPOCHHbtXRTrxkZTouJuPOqDLHAqi+oHpEPxNZjOzncxzSZqnPsSody211O/ViPpTPMY9SfzqDNKGpXKsWRI45DEfjVmO9nT+LI96zwaeDQmDSN2G/RuJRtPr2rQBDDIORXKg1bguHhPByO4rRT7mbh2OhpKjilSZdy1JWhmFFLRQAUYpaKAEpKdTaAEop1NoASm06m0ANNMNPNMNADDUZqQ1GaAImqM1I1RGkNEbVAamasvU71bC0e5bkqMKPUnpSGUdW1mDTE2/flI4T+prgLzVb6+YmaQhf7q8LVKeaS4laaY7mY5JohhlmbZEhc+ijNMQ+Mc1ejHQ1WMUsLbJlKH0YYrUjsbwjd5L4/3TTEa+n+ItS04hQ/mx90fn8j1FdhJqdrquntNAcMB8ynqprzV1ZTtYEEdjUK3kljJ50fTow9RTArz/APHzJ/vGqMg/cS4/umrbyLLK8kfKvkiqcvEEuP7prnZsjNi/5AMv+638qvyn/QMf7A/lWfDzoMyj0b+VaMoP2MA/3R/KgD6Y0b/kEWf/AFwj/wDQRWlWdo//ACCbP/rhH/6CK0a3MQooooAKKKKACiiigD//0PqmiiigAooooAKKKKACmJ0P1P8AOn0xOh+p/nQA+s3V/wDkGzfQfzFaVZur/wDINm+g/mKAOHrjPGRItYSP7zfyrs64nxqQtrBnuzfyqKnwsqG55P5t+lwQykqOuR27Vt2crGQNJ8uR0NJHIs6qN27afXOKvwJGskpDiOVomEUjLvVH7MV71xwpu+rNYpx1bHwFXL961dOj/wBOt+37z+hrL8yMGMGQSzJGBLIi7Fdx3C9q0dMYPewNngP/AENVy2lY0vdHfcDPNAbAAz+NIDGc5FOBiABJ68Cus5xxUA8ZpvfvStIvVuB6mm5A6Y596AJQwHU0wxjJOevP505dpqInqMcZNAC7QMc0bsNnOablOBinjyycCgBwAddxzSfnTtyqMLTTt7UAKOB1NKwEmDnpTQVPXH50SfKRtHWgBNgznNNOMY3UmVBPHNOzHjmgByncdtKRjpmgbF570bgaAEHrzTwQQU9ajyM44p+F2k+1ADCgAxmgjCSYOf3b/wAjTCcj5hTsqVk4/wCWb/yNAHkUBJhXNTcGooP9StSZqyBB1p6U0HrT1pAbPg7/AJDl/wD7kP8AJq9NrzLwd/yHb/8A3If5NXptAG74f/4/JP8Arn/UV11cj4f/AOPyT/rn/UV11ABTE+7+J/nT6Yn3fxP86AH0UUUART/6pqz60J/9U1Z9ACUUUlACUUUUAJSUtJQAlJS0lACVnyf6w1oVnv8A6xqAEpaSloGLRRSigQUopKdSAKWkpaAAU6kooAWlpKWgBaWkpRQAtFJS0ALRRRQAtFFFABWdqF+lnHxy56Crc8ywRNI3QDNcHcTyXUzSuevQegrnxFbkWm5vRp8z12EllknkMkpyTTKSlry27u7O9K2iHUZoppoENZqrsc09jmomq0AqIZGCDvWvGgjUKvaqtom1d/c1brqpxsrmM5XdiZX7Gn5qvmpFOa1MyXNLmo807NMRJmng1DmnA0CLANSA1XU1KDVCZct52hfcOncV0CMrqGXkGuWBrW0+Y5MLH3FaRfQzkuprUUUVoZhRS4pKACkNLRQAlIaWkoAbSGnU00ANNMNPNMNAEZqM1IajNAETVEalaoTSGiJq4LxfckyQ2oPABc/yFd41ea+LM/2mp7eUv8zSGcxXX6PqtnpmlSshH2ticAj8q5CrNpJFFcxyzp5iKwLL6j0piO71si+0C21GVQJSRkj3yK6XVdWuNJs7V7dVbeMHcM9AK5vXyLvRba8tTsgB/wBX6Z4H5VoeKf8Ajxsvof5CmIPE0MN1p9vqqIFeTAbHuK84vP8AVmvS9V/5Fa1z7V5reD92aYGRpshaN0/uMfyNWZAfs0xPpVDSQczkdMj+taEo/wBEmI9P6Vg9zVbGXb/8gWUfX+Vacx/0cDHas2050iQf56VpzjEOM9ulIZ9LaR/yCrT/AK4R/wDoIrRrO0j/AJBVp/1wj/8AQRWjW5iFFFFABRRRQAUUUUAf/9H6pooooAKKKKACiiigApidD9T/ADp9MTofqf50APrN1f8A5Bs30H8xWlWbq/8AyDZvoP5igDh689+IaCXTYoi23cWGfTIr0KvPviAhksrZME5dhx7jFRP4WVDc8z0PSjpcbxCQuWYE5GMGu80nS1v3dpJCqodpwMnJGfyrk4WfzI5WXb5kaFv99RtP8q6LT9QksLsyJnY2N2PaudNc3vHTJO2h3jeH9Pt7IxCEMJiBv6sCR1zXAxebYXBVvlkhcjp3ANekPOl7ZeWpKx4DiQEKB35J6VwuuvZyyLJZuXYLiRuxI7g962qxjpYypt6pmc3iHVP+ev6D/CuY1m6vtTkSSaZv3YwAOB+lXHGKoyVo+xKHaRaXE91+9VrtFUs0ZZgSB1xgjmvatPktrm0imszmEqNvsB2/CvNvCLFdXULxlG/lXa6OphvtQso+ESYSKOw8wZIH481NrA9TolCrSmM9R0pmxiMGpMYUL3ApiGlD6U5UI5xUeMHkinAE9CKAEdW35HSm7DipC235SRTMvtwSKAF2Dg80/bu+71qPY9PRduSe9ABsIpAh9KGH0pB7EUAPdT5eB1zUW1s1Jyo3Eim7mJypGKAECdc09QuMUza5zg0eWxI9qAH+We9LtOxztz8jZ/I0Nz0xSBiiS4I+438qAPIIyCuAMYzxSljnHao4GDIG7mnMRVECl/SlV88dKQEVGME8CgDovBmTrd+f9iH+TV6dXmPgv/kN3/8AuQ/yavTqAN3w/wD8fkn/AFz/AKiuurkfD/8Ax+Sf9c/6iuuoAKYn3fxP86fTE+7+J/nQA+iiigCKf/VNWfWhN/qmrOoAKKKSgApKKKAEooooASkpabQAhqhJ/rGq+aoSf6xqAEpRSUtAC0UCloGFFFLQAUtJS0hCilpop1AC0UUUALS0lLQAtFJS0ALQKKUUAFFFIaAOa125+7br35Nc7V7U5PMvn9sCqNeRiJc02elRjaKFpaQUtYGotRseKcaiY1SERk1HjcQvrSk0sPMqitI72EzWX5QFHalzTaWu05R1OBwaZmloAmp1MB4pwNUIfSimZp1AEgNSg1AKkU00Jk4NTwPskVh2NVwactUiTrAcjIp1Q253Qo3tU1bmAUUUUAFJS0UAJSUtJQA2kNOppoAYaaacaYaAIzUbVIajNAETVCamaoTSGiFq4fxdakrFeKPu5Rvx6V3DVQvbaO9tntpfuuMfQ9jSGeOV2ejW2najpUlm3lpdAnDsBnHbmuWvbOaxuGt5hgjoexHqKrqSDkcUxHoWsPb2OhQ6QJFklBBO32Oa6jUdNj1e0tkE6R+WMnJB6gV4/GSTknNaMbNjqaYjtvEl5apZwaVauH8r7xHsK89u/wDVmtA1La6ZLqMhABEScu3oPT8aYHJ6dGY4GY8F2J/DtVubixlJ/wA8VPIAjMigAAkCorjP2CU/X+Vc5sjHsudKcdyRWnchtgJ7f0rNsRnTmz6itOdjjnnNID6X0j/kFWn/AFxj/wDQRWhWfpH/ACCrT/rjH/6CK0K6DEKKKKACiiigAooooA//0vqmiiigAooooAKKKKACmJ0P1P8AOn0xOh+p/nQA+s3V/wDkGzfQfzFaVZur/wDINm+g/mKAOHrg/HRxaW56fO38q7yuI8aWz3cFtBHwWdv0FRNXi0ioOzuebxEDaV5B5FbMA3SfN6UkulQ2kPm25f5eW3kfpinW+z7RknqK5pQcdzpUk9idASrqzEr2BJxn6VHIpEBUHv8AyFWItpZwKsxW32iWO3DBS7EZ69Qalbob2OVk5FZ78HBrtH8IaqSQJYcfVv8ACsXUPCXiCJkFsqT7upU4x9c4rsuYIs+EzGNW3OcKsbEk9BxXc6IPPa51PkLcyfu/eNBtU/j1rz2y8Na9a3Ie/s3lhH3kikUFvY89PavW4EHlJ8hj+UfL/d9vwpXEx4bGec1LtDKH5pmwjtT2X5doNMQ046U4EDvUewjvSEMM0ASsoY7s1GUUDOakRcoSRzUflgdAaAEJGRz+FSJiTI9Kbs7gGnqpHPSgBpG2gAe9N2Ek8/hSYbj/ABoAl4cYzxTNi9CaEGXAI4pWQZzg0ANOFzzigPjAzShM9jShDnFADmQKe9MOCkn/AFzf+RpXUt3ppUhJMf8APN//AEE0AeRQDEK4qTaOtMgH7lak/GqIEKg8UqoO1H409etAGx4NH/E7v/8Ach/k1enV5l4N/wCQ5f8A+5D/ACavTaAN3w//AMfkn/XP+orrq5Hw/wD8fkn/AFz/AKiuuoAKYn3fxP8AOn0xPu/if50APooooAim/wBU1Z1aM3+qas6gApKWkoASiiigBKSlooASkpaQ0ANNUJP9Y1XzVB/9YaAEpaQUtAC0tJRSGLS0gpaBBS0lLQAtLSUtAAKWkFLQAtLSUooAWiigUALQKTNLQAtNboaXNNbpQM8/uzm6kP8AtVDmp74bLuRT61WzXiVfjZ6kPhQuaeDUeacDWZQ41E1S0xlppgVGzToDiYVIyVEBskVvQ1cZWaBq6NYGlpgNOBrvOMcKWkopgSr0p9NUcVIBVCCloxSgUAKKkWmgVIopoTJBTxTQKeoycVRJ0toP9HT6VZxTYU2RKvoKkxWyMWNoxS4opiG0UUUAJSGlNIaAEppp1JQAw0w080w0ARmojUpqI0ARGoWqU1E1IaIWqBqnaoGpDM2/0621GPy7heR91h1FcNd+Hb+2YmFfOT1Xr+Ir0anp1oA8lEUsZxIjKfQgitS1tbm4IWCJ5CeyqT/KvWbbGRXRW44FUiTzXTPBt7ckSX/7iP8Au9XP+FdXd2VtYae1vaoEQD8SfUnvXVN0rA1f/j2f6GmB4BJ9889zUVzxp8nfk/yqSQfMT71Hc4GnNjvu/lXObGXYDNiR7rWjMeuOKzdOz9iI91rTmAz9KQz6W0j/AJBVp/1xj/8AQRWhWfpP/ILtP+uMf/oIrQroMAooooAKKKKACiiigD//0/qmiiigAooooAKKKKACmJ0P1P8AOn0xOh+p/nQA+s3V/wDkGzfQfzFaVZur/wDINm+g/mKAOHrk/FLSIltJFjcrNjIz2rrK5rxGq+RHK7KioSSWOBzUy20KjvqcbdXUt1AIdgVW+9kL29MAYqssS7+OuK3F0q6nhEkWxlbBBDcEUiaLfCXIVcf71YNye5ulFbGRHhXcgds1f0xt97AR1D/0NWRomoDeSq4P+1Viy0m9huoZmCgI+Tz2xUpO+w21Y6wM4zlc05W4yRTNrEnmgRn1rpMCT94D0NIfM96c3zdMVha1rEOiWwuJV8wswVVU4J/Ohgbylu+ahIfJ+prj4PGVnKu+WGRB7YatCHxVpU4xvaM/7a4pXQWOgBfjinBju5XHvWP/AG7pJALXafr/AIVONT0xuftSYNF0Bp5c/dFBL+9R281tOpW3lEhHpU5t3PYUcyAYu/vmkk3nGKl+zuO4pvlyLwORRdAQ5fsKXc2Pu5o+cE5OBSbGxnNMCTJPAHNGX75pqoQdxNKwz0IoAPnz3p/zbT1zioQB6in4I+bPSgCPDge9Q3cssVncSKMFYnI/75NWCzH7pqnfgmxuTn/ljJ/6CaAPJ9OdpLCCVzy6An6mrXvWfpWf7Nt8/wDPMVdOQaogfT1qEgmmqSDg9KAOh8Hf8hy//wByH+TV6bXmHgw/8Tu//wByH+TV6fQBu+H/APj8k/65/wBRXXVyPh//AI/JP+uf9RXXUAFMT7v4n+dPpifd/E/zoAfRRRQBFN/qmrOrRn/1TVnUAFJS0lACUUUUAJRRRQAlJS0lADTVB/8AWNV81Qf/AFhoASlpKWgBaWm06kAtFJS0AFLSUtABTqSigB1FIKWgBaKKKAFoopaAENNzT8Um2gZkS6vFDK0RRyVOMgVH/bUB6o/5VrlT2ppVqmz7juuxxGoyR3FwZ0O0EchuKziyr1cV1+sWT3VqQv3l5FcMIm7mvOxMFGV2tztoS5lZMkNzEP4v0NKLuEfx/oaj8pvWl8o+tc3NHsb2fclF5B/frc0uwk1aN5LV1whwcnHNYaxH1rRtpZbfIQ4z6cUKUL6oTUujN0+GL/8AvR/nUUnhbUWHBj/76qib+4H8R/Oom1G4H8R/M1TlR7MSVTuaB0m7jcxvtBXrzS/2Xceq/nWOdQkc7WJH41OJ3IyGP51105xktDGcJJ6mj/Zlz/s/nS/2bcf7P51niaQfxH86kSWQn7x/OtFYjU0hp8444/On/YZ/QfnVISv/AHj+dOEr/wB4/nVE6lv7DP6D86X7DP6D86q+bJ/eP504Syf3j+dPQNSz9in9B+dSC0n9P1qsJZP7xp4kf+8aYiwLWb0qza2krzqCOOtUQ7/3jXRafG8cYdictVRWpLZpiN8dKQxsOcUb29aQux6mtTIjpKcaaaYhDSUppKAA0006koAbSUtJQAw0w1IajNAEZqI1K1RNQBC1RNUrVCaQ0QtULVM1QNSGRGnp1plOXrQBq23UV0Vt0rnLXqK6O26CqRLLZ6Vgax/x6yf7p/lW+elYGs/8ecv+6f5UwPACctgVFeEf2e3/AAL+VSEZ6etR3YI0/H+9XObGXpxP2M59VrQlzvIrP07/AI9Dn1WtGTk+tIZ9L6T/AMgq0/64x/8AoIrQrP0n/kFWn/XGP/0EVoV0GAUUUUAFFFFABRRRQB//1PqmiiigAooooAKKKKACmJ0P1P8AOn0xOh+p/nQA+s3V/wDkGzfQfzFaVZur/wDINm+g/mKAOHrivHAB0yLP/PVa7WuS8WAGC1BGQbmPg/7woA8zj1XxFbXMdhYzww25zs38kdz0966yafVbG2+03urxIDjpHnOfTmvPtZnMfjjULcjESyFUAGAME9K1Zokl2tJ82wcZ5FRJMpM72KHxBcRLJBqcDxuMg+X1H51YGn+IGGP7RhyPSL/69c5o175Y+znOByK6uOcsOuBUalFI6b4jyf8AiZRfhH/9enx6dr4X59UQH2iz/Wr/AJvvQZcAk9KeoHPao2saZAbg6krtwAvldT+dcjc3tzqDK9/J5jIMLgYAz1ra8S3Jcxp23dK5bPei3cVy2iooOzpQWTIPeoA/eo5mVY9w45pqIXJN4c/N0qzbxPPKkEQyznA+tZvAQP71ueH77T4Lv7TdOPkIUfVuKfKK56xpGmQ6ZarEhG88s3vWyGTHJzXmWq+NYYrhrSzI+XhpD93PoK5dvH7wykPMsiggkL147DHrS5B3Pd/NQ96cGRhkYr5ql8f3YjlNsrhZGJ5PT6V7zo8hmsLeT+9Gp/MUcguY1pYlkXA6nvWY0bIxQnGK1V6cGqs7cg4571SjZBcrPkJnPtUYJ7VPvyMN0phZA2Dn8KBjQJCCRTwHK4Peml+uKTe3GKAE2cYqpfjFjc8/8sZP/QTWkzYPGKo37E2Fz/1ycf8AjpoA8g0r/kHW/wD1zWrhyTiq+mqV0+3Q9kAq7xmqIIiSopqgk5NT/WlUe1AGv4M/5Dl//uQ/yavT68y8G/8AIcv/APch/k1em0Abvh//AI/JP+uf9RXXVyPh/wD4/JP+uf8AUV11ABTE+7+J/nT6Yn3fxP8AOgB9FFFAEU/+qas6tGf/AFTVnUAFIaKSgAoopDQAUlLRQAlNp1IaAGmqD/6w1fNUH/1hoASlpKWgApaSloAKdSUtIYUopKUUCClpKWgBaWiigBaWkpRQAtFFFAC0UUUAJRinUUDGFciuN1fTTBIbmIfu2+97Gu1pjorqVYZB6g1FWmpx5WXCbi7o80wDRitvUdIktiZrUbo+69x9KxQQa8erSlB2Z6MJqSuhQKlBqMU4GsixSaryGpzUTipGjLnYrzU9pfKx8tzz/OkljyKpxaXc3Mn7kED+96VrRclL3RT5WveOiVt3SrCnAqJLCaBBtO8jrnvQrjO1uD6GvTs1ucN09i0Gp4aq4NSCmBMDUgNQCpVppCJgalBqFAzHaoya2rXTzw8/5VSVyW7C2NoZCJZB8o/WuhWoEAAAHAFTCtlGxk3cfmkzSUUyQpKWkoASkpaSgApKWkoAbSGlpDQAw0004000ARNUTVK1RGgCFqhapjULc0hkLVA1TtUD0hkJpydaYacnWgDVtuorpLboK5q1PIrpLbpVIkuHpWBrX/HlN/uN/Kt89K5/Xf8AkHzn/Yb+VAHz8x5xTb0n+z/walJJpt8c2PP91qwNjN0wf6OR/u1oScEiqGm8wY/3avy9evakM+l9J/5Bdp/1xj/9BFaFZ+k/8gu1/wCuMf8A6CK0K6DAKKKKACiiigAooooA/9X6pooooAKKKKACiiigApidD9T/ADp9MTofqf50APrN1f8A5Bs30H8xWlWbq/8AyDZvoP5igDh65PxZnyLT/r5j/wDQhXWVyfiz/UWn/XzH/wChCgDyLxYxTxNcH/p6l/pV5G3QZrP8YZHiOfH/AD9Tf0q7CSYPwoGUrbUvI1FUPI9K7VddtIky6OfpivImkI1l8noK6+3lDxjdWUkaRVztrPXUu3KRw7COm45zWt9q3Ll4z+dedwFbe4WZCRzgjtXZQ3AdfrSiwkuxzfiKTc8XGPmrKIIXpV7xI6iSBQfmJJx7VTVwY+a0SIYwcYNUryUxoWYfKBk1dOcA1TuF82F17EHrVWJucpLq7scCTAzwBzxVKHULtXeGI43c9O/49KqEEEliSEJzgY4p24sMhTtJ6scdaYCuJWYJIwPrk5/SojG0eQpY49BipFI88xccn+Ef1qKdn3tuB4P8TY60gJViX7LIGA3dgx5+tfWPhxt+jWbr3gXH5V8mQSM5EZGFUfNtGevvX1t4YgkttBsreb7yRLnPWjUDcyfLPtVVnZ8HBBxzWgoGemM1n3OEk470mxoRtxXAzmocSelKhbdtFObfnjpSKEy4ByM04NgdPwqIhzRjOKAJfnHUVT1At9guD6ROfyU1bdu+KoXxxY3QI/5Yyf8AoJoA8p01y+n27t1MYNXMCqGlEf2bbD/pmtXsjoaogM88U9ajLBetKrKelAG54Oz/AG5f/wC5D/Jq9MrzLwac65f/AO5D/Jq9NoA3fD//AB+Sf9c/6iuurkfD/wDx+Sf9c/6iuuoAKYn3fxP86fTE+7+J/nQA+iiigCKf/VNWdWjP/qmrNoAKSiigApKWkoAKSg0UAJSUtJQAhqg/+sar5rPf/WNQAUtNpaAFpRSUtAC0UlLSGLQKKKBC0tJS0AKKWkpaAFooooAXNFFFADqKKKAFpaSlFABRilooGNK5rLutHtLolyuxz/EvFa9FJxTVmNSa1Rxc2gXcZJhcSD34NUW0/UE+9C34c16FijFc0sHTe2htHEzW554LK+PSF/yqzHo1/L95Qg9zXdYpcVKwMOpTxUuhzEHh6FfmuDvPp0Faws4kXYigAelaOKTFdMKUY6RRjKpKW7Md7bHaq0llFKMSIDW+UzUZiBq7E3OZbR0/5ZOy+3UUz+ybkdJFP1FdP5WKUIRS5EPnZzyaTcH70i/gKvRaVEvMjFv0rVCmnhDRyoHNkMUEUQ/dqBVpRmhUqTFUQKBinimiloAdRSUtABRRRQAhpKWkoADSUtNNACUhpTTTQA00w080w0ARmomqU1E1AELVC1StULUhkLVA1TtUDUhkBpyHmmGlXrQBrWvUV0tr0FczbdRXS2vQVSJZdPSue17/AJBtx/1zb+VdCelc94g40u5P/TNv5UdAPnzOOKS//wCPQ+ymlGetM1Aj7Hj/AGTWBsUNMH7j/vmtB2y2B2rP00fufwWtBgC3HWkM+mNK/wCQXa/9cU/9BFX6oaV/yDLX/rin/oIq/XQYBRRRQAUUUUAFFFFAH//W+qaKKKACiiigAooooAKYnQ/U/wA6fTE6H6n+dAD6zdX/AOQbN9B/MVpVm6v/AMg2b6D+YoA4euT8V/6i0/6+Y/8A0IV1lcr4qANvbZ7XEZH/AH0KAPHPGHPiWf8A6+pv6VdhysH4VB4rXf4muB/08y/0qYkRwc8cUIbOGuHC60w9Vrq7NgVwa45z5msuw7LXW2YYLmokaQLxW4mcJaoZCuCwHYVrwzzwArLGVx6isfR71ovE6W4IAmhdefUDNeoxxW91FtnQEMO3T9KVhN6nkes3Xn6jGn91eanXhOKi8Q6W2m6stwo/dSjA9iKdCwK/WrjsQx7H5QvqaglcrHjqanAy/wBOlXdPsDfXqQ4JAO5selUhHl88MhnbcCp3HI71EQVbLqMd88mtrxRbS2mt3UEo4Dbhk4GD0/SsOKYRkLuyP9kZ/U0APYZ+fcxx0IGB+NQSxtJKrMAAQCec1O8RIJ5IP95sfpXT+Cde0vQdRe41WIXCNGYljCBwTnPVumMdaAM7w1ZrqOu2lrNkrJKCccAqnPSvreBAqADsK8msfFvhW91OGRII7Vy+EIjVeSO7D64r1qMgqCDnNAE6darXe3cM4qwg5zVS+ZdygjNJjREoQHfijKEfdqNGBYA4xTmKA9RUlCgoP4aflQC2OlQgqeTilDr06CgA80dSMVVv2VrC6/64yf8AoJqyWjGM9KpX7IbG52gf6mT/ANBNAHkukj/iW2+P+eYq4QOuaqaUuNNtz/0zWru055qiBoANM6HipCp7UJGRyaANzwYf+J5f/wC5D/Jq9OrzLwaP+J5f/wC5D/Jq9NoA3fD/APx+Sf8AXP8AqK66uR8P/wDH5J/1z/qK66gApifd/E/zp9MT7v4n+dAD6KKKAIp/9U1ZtaU/+qas2gBKKKKACkoooAKSikoADSUtJQAlZ7/6xqv1Qf8A1hoASlpKWgBaWkopALS0lFADqWm0tAC0CiloAWlptLQAtLSUtABTqbS0ALS0lLQAtFJS0ALSikpaAFopKWmMWlpKUUgClpKWmAUUUUCDFJinUUDG4oxT8UUCG4pwFLS0AApaKKAFooooAUUtNpaACiikoAKKKKAEpDS0lACU2nGm0ANNMNONNNAETVEalaoTQBE1QtUzVA1IaIWqB6naoHpDK5pV601jQp5oA1rXqK6a16CuYtuorprToKpCZfNc54i/5BNz/wBc2roz0rmfEv8AyB7on/nmaOgup4CPQGo7/wD49j/umnDrwOKjvz/oxB/umsDYqabzCPotXsfMTVHTOYvXhaukEtjFID6a0v8A5Blr/wBck/8AQRV+qGl/8gy1/wCuKf8AoIq/XQYhRRRQAUUUUAFFFFAH/9f6pooooAKKKKACiiigApidD9T/ADp9MTofqf50APrN1f8A5Bs30H8xWlWbq/8AyDZvoP5igDh65XxV/qLb/r4j/wDQhXVVyvinmC2/6+I//QhQNHl+vwmTxJdv2W5l/pXO63qkFlF5TsPMPYVe8UXl/J4q1LT7HajJLI+49eT0rzG/Bikb7V/ried3JoTsBpaRIbq8klPeu6E0dpAXkOMCuH02SK0ImiXcCOg9asa7b6gYhNK/7phnK9B7Gpe5adkaeiX6Xni6zOcgMQMfSvcoVbcBt5BxyAf5V82eCzs8S2jn5sPgY96+jfLAlAKMfmH8P1qiGcz8Qogun2068ETYP4jFchaOfLzXceOowfD67RgrKvXjvXAWwPlhaEhGnEcgseK9J8K6aYrb7Ww+aUE/gOlcHY2xubmKD++RmvarZPLiWJRtCKBj2psDw/4q6Z5N7baqirtlXy3J9R/9avLI4y2Blm9lGBxX0z4z0d9X0SaFBmSMeYn1FfNS78EydeRlzj9Kd0A9SiE7Qo46scmqiKWxgk/N2GOtWk3RuBFja/dV5FQjexMb568ljgcUXAUlmiAPXg4HAUjvX0v8P/EKa1oyxyvuubX5JPf0P418yx+Y+6IZbbnHpXT+DfEEmg6slzK5+zv+7lGMDB6H8DSA+t15FUruQhgoGSKLWZZoxKjBgwBBB4INMk+ZzuJHtSY0RFiFyB1pvmN3qUqrLtBpnljj2qShm/nvipN+UPWj5eQeaAyDigCHLAepqvfOfsNyCP8AljJ/6Ca0CkanrVLUNv8AZ9zgn/Uyf+gmgDyPSs/2Zbf9c1q8ao6UP+Jbbf8AXNf5VfqiBmO9SLTKeKANfwd/yHb/AP3If5NXpteZ+Dv+Q5f/AO5D/Jq9MoA3fD//AB+Sf9c/6iuurkfD/wDx+Sf9c/6iuuoAKYn3fxP86fTE+7+J/nQA+iiigCKf/VNWZWnP/qmrMoAKTNLSUAFJS0lABSUtNoAKSlpKAENUJP8AWNV81nyf6xqAEpaSigY6lpKKQh2aKSloAWlptLQAtLSUuaAFpabS0AOopKXNAC0tNzS0DHUtNpaBC0uaSigYtLSUUwHUtNpaBC0tJRQMdS02igB2aWmU6gQtLSUUALRRRQAtKKSigB1FJRmgBRS0lFAC0UlFAC0UUZoAKKSigApKKSgBKaadTTQA00w040w0AMaoWqU1E1AELVA1TtUDUhohaq7VYaq7UhldqF60jUimgDWtTyK6e06Vy1r1FdRadBVITNE9K5fxOcaLdn/pma6c9K5bxVxol1/uf1FD2EtzwXsD0qG//wCPZv8AdNSHstQ6j/x7sP8AZrA2KumH5PwWr/Oeaz9Nz5f/AAEVe3fNSA+m9L/5Btr/ANck/wDQRV+qGl/8gy1/64p/6CKv10GIUUUUAFFFFABRRRQB/9D6pooooAKKKKACiiigApidD9T/ADp9MTofqf50APrN1f8A5Bs30H8xWlWbq/8AyDZvoP5igDh64/xjMbewinA3eXKjY6ZwwOK7CuL8b/8AIJH++v8AMUmNHh13qLXPjO7vGXZ9oAcrnO3dzjPfFWdc0mDUIPN2jzFHDDr9KwLltviRz/sJ/IV3C/vLYg+lC1QPc8w09Hiu/s0nIU5r0WNY7i1MMoyCMVxbJs1hgP7tdhZMNozUyNIHNaVp66b4tsivCPJx9a99jcFwCSeSfunjH1ryJUDeJNNx2lz+VevRoZGEowx5znJzVwIkc/45Zf7DVM/elWvP7NM4HpXZePJv3NrarjhyxA9hXJWqlEDHrVkHb+FbdJL0zsP9WML9TXqMf3a43wvZCKyWRhhmOT6812i9MVL1GIQD2zXzJ490X+xdekMSBYLj94hPqeoA+tfTvA61wnxE0P8AtjQmmgXM9r+8Q4ycdxSsM+bkHmYAJOOcE7QQetI6kyAgKCOvc49aNzbPN7jqzdPyqYHzl+QkHruA7+lMQL8kgkySGHBPAHrUYk7uAxBxvbpj6U1vOQ4kXfjByTn9KnAWYM6qOfvBuPyFFgPaPhr4qaZxod52H7lz3x1X8O1euz48zFfIlm0ltPFcWzlJlYFWPUEelfTuhak2qaTb3k5BkZdrnH8SnBqWho2WAVc4qLcpOSakDA8NTTsBwaRQgCNnNPCIajJXnijngD2oAmLBvWqN/gWFyP8ApjJ3/wBk1cYAHqKo35BsLkZH+qf/ANBNAHkulEnTbcH/AJ5rV3JBqnpeP7PgA/uCrbHmqIAlj0pFc5wxpwIAqMfMaAOg8Gn/AInl+P8AYh/k1em15j4M/wCQ3f8A+5D/ACavTqAN3w//AMfkn/XP+orrq5Hw/wD8fkn/AFz/AKiuuoAKYn3fxP8AOn0xPu/if50APooooAin/wBU1Zlac/8AqmrMoAKSikoAKKSigApKKSgApKKSgANZ7/6w1fqg/wDrGoASlpKWkAtLSUZoAWlpKWgBaKSigB1LTc0ZoAdmjNNzRuoGPzS5qPcKXcKAJKWot1LuFAEmadmotwpd1AEmaWo80bqAJaKZuo3CgCSlqPdS7qYD6Wo80u4UASUUwGlzQA/NLUeaXdQIfS5pmaXNADqWmZFLuFAD80Zpm4UbhQA+lzTMilzQA7NGaZuo3CgCSjNR7qXdQA/NFMyKM0APzRmm5ozQAtJSbqM0AFNNLmmk0ANphpxphNADGNQsalNRNQMhaoTUzVA1IERNUDVMxqu5pDK7Uwdc05jTFPNIDWtTyK6m0PArlLU8iuptDwKtCZonpXKeLDjQ7r/c/qK6oniuR8XtjQbrH90fzFD2EtzwrJyMVXv8eU3+7Uq5B96r3/MLZ9KwNiDTT8n4Cr/G7iqGncR4/wBkVcFID6f0r/kF2v8A1xT/ANBFX6z9J/5Bdr/1xT/0EVoV0GIUUUUAFFFFABRRRQB//9H6pooooAKKKKACiiigApidD9T/ADp9MTofqf50APrN1f8A5Bs30H8xWlWbq/8AyDZvoP5igDh64zxsM6Uo9ZFH6iuzri/G/GmxH0lX+dDGj52vQR4kkB4+RP5Cu6tyPI/CuIvxu8Ty/wC6v8q7eEYg/CkloD3OKlX/AInTn0WuptFO0GuZHOsSD2rr7ZNsfNS9zSOxHaJH/b1tPMwRIVZstwM4ro9S8Z2diDb2CCacYxnJX656Vgm0F1IFGNx/SsG9gjj1NkTnaACfetI6Gc9yxNdXeo3H2m9bfI3T0A9hW3p9sbmdIF7nr2rHTAYbetdx4TtvtFxJIOFQDn3qmSehafD5cSoB04rZC4XNVICiDk1a8xT3xSUQuNGDQwBGCMg8EVGW2kntT2YFadgPmfxv4dbQNVeSMf6LcksjNyFJ7YrjYmC4bA9AzcfpX1br+iWniDTZLC5AyRlG/usOhr5d1PT7jSrqWzuRiSE43N0x2IosBA0ckg86IssgPzDoCKjDPEwWbDbufU1bijmuwjQpnfhSzdCa1LXRLu5ZbdiqhjlQPvfQUrDKUMkUTK7L1P1P4DtXuPw/Wc6dOr5EYlzGPYjJ/WuJ0rwhKqxmCNpZGJ5PRSPU17Rp9l9gs0tlKhgMtjkZPXFKWw0X1Rg+7tTmVjzxTQS3y5xRjHBNQUAQ9DinCPHXpTAATkfyqTggrkc8UAMZVbiqmoJ/oNyR/wA8ZP8A0E1Z8s9M1Uv122Nz83/LGT/0E0AeTaUP+JbbY/55rV7aM5qlpX/IMth/0zWr1UQNIB4pVVewo4zinL7UAa/g4Aa5fj/Yh/k1em15n4OH/E9vz/sQ/wAmr0ygDd8P/wDH5J/1z/qK66uR8P8A/H5J/wBc/wCorrqACmJ938T/ADp9MT7v4n+dAD6KKKAIp/8AVN9Ky61J/wDVN9Ky6ACkoooASkooNACUlLTaACkoNITQAGs9/wDWGrxNUHP7xqAFpabRSAfmim0ZoAdS03NGaBjs0ZpuaaTQApbFQSXCxqXPRQSfwpsjVl3zkWk2P7jfypXGeX3fxO1F5nWzhjSMEhS2ScCqJ+IviA5IaIf8ArzRG+Zs+pqwu4glcnHJwOgpiPQh8Q/EJ/5aR/8AfFH/AAsHxFn/AFkf/fArz8N6UufzoA7/AP4WD4hwcyp/3wKB8QfEJ/5ap/3wK4DnacGkTcBQB6D/AMLA8R/89U/74FA+IHiI/wDLVP8AvgVwOc08Z4ANAHejx/4jx/rk/wC+BSf8LA8R/wDPZP8AvgVwmWoznFAHdN8QfEQbHnIOP7gp/wDwn3iMjInX/vgV58xPmHvxUu4gYNAHd/8ACf8AiP8A57r/AN8ikPj7xJnP2gD22CuGHJp3NAHcN488SZyLgf8AfIpP+E78Sd7kf98iuHJPelBzzmgDuV8eeJM/8fI/74FN/wCE+8Sbtv2kcf7IriAxHeok3S3HlxjczcADuaAO/wD+E88SHP8ApI/75FKPHfiTn/SR/wB8CuHKvESkgKMOqsMH9aeCeooA7Y+PPEv/AD8gf8BFH/Cd+JT/AMvI/wC+RXE9c+tL9KLAduPHXiQj/j5H/fIpP+E68S97kf8AfIri8sKARTA7I+O/EoYj7UOP9kU//hOfEuMi6H/fIrh8nzGwfSpCT0NIDs/+E68Sj/l6H/fIo/4TnxLnm66/7IrjRjPFKMmmB2R8ceJv+foY/wB0U1vHPiQKT9q/8dFcduOeaR/9WeaAOzHjjxKet1/46KP+E48TA83X/jorjgTjrSZ65oA7MeOfEo5+1f8AjoqVPHviQc/aFb6oK4f6GjJHegD3Lwd4xvtZvGsNQCFthdWUY6diK9GL4rwD4eP/AMVEv/XJ/wCle4yy7etAiy0oFRm5VTyaxp7vGcV5rrGuakl/JFDKVRSMAAelTcpRuenS+J9FtywmuVBQ4I6nNNj8V+Hpfu3kY/3jj+dfP1zvmnLyOdzHJPuTXJs95fw3dm4CvhQhPoW4NS52No0bn2PFPDcRiaBxIjdGU5BpxrkPAoMfhWyRuqqQfwJrrCataq5hJWdhrGompxIqMmmBG1Qsae5qFjSBEbGqzmpWNVpGpDInNMUjNMZqrPI0eSOh7+hpXA6C2PIrqbM8V5laa3i4jQgFWBUjuHH9DXfaXdpLCZGb5VYjd0B+lOMkxM3yeK5Dxif+JDdf7o/9CFdWWBHFcf4ybGg3P0X/ANCFU9gW54cCM5NVr8gRuR6VMuPyqtesTGx9q5zUbp5Gzn+6Kuggms/Tz8n/AAEVcHy9KAPqLSf+QXa/9cY//QRWhWfpP/IKtP8ArjH/AOgitCugxCiiigAooooAKKKKAP/S+qaKKKACiiigAooooAKYnQ/U/wA6fTE6H6n+dAD6zdX/AOQbN9B/MVpVm6v/AMg2b6D+YoA4euJ8df8AIKT/AK6rXbVxPjr/AJBcf/XRaAPALlN3ieUdeF/lXaYKwYrnBaufEc0rD5dikH8K3bi4jiIhY/MRwKpK4MxLPTpLnVWdRztrtjo07Q/u3G8Dp/8AXp2g2Ejg3YTg8Cuyitwi/MMe1NqzBM5Cy0+W0t2luBiRs++BXFLEZp5Z35yxr1PWJFtbJpmHPRR7mvOGARAi9TyT9aAbGRR8E9zXqvhSFbfSvMYY3k4968xVdxGOg4/GvZtFtz9jhyMKijHuaTA14oiRluCaewUtsXt1NOZufLTqevtTlRUXFKwDQgLe1O2LjOKcAKfijlC5WZBk4rzbxT4Gl13UEvkdFUAAg5zXp5Hz0/aMU7Aebaf4C0q2ZHlLsVOcE4Ga6m18OaTZyieKAbwcqx5Iz6Vu7VJqQLgbT0piES2j2GNBtBHbiqs0SRkZatGIYBzVW6AZwAOnWokikVgFX5s0ZB5yaV1ITgd6i2k4qSh3HTml2Lgtz0pNnXnFPVeNuaAIidwySaq3wH2C5OT/AKmT/wBBNXfLbvUU8Alt5o2BAaNwT/wE0AeP6Vj+zbb/AK5ir9VLGMRWsca8hVAFTsCOaogfwOtKGX1qPG4UwZU0Ab/g4/8AE9v/APch/k1em15j4M/5Dd//ALkP8mr06gDd8P8A/H5J/wBc/wCorrq5Hw//AMfkn/XP+orrqACmJ938T/On0xPu/if50APooooAin/1TfSsqtWf/VN9KyqAEoopKACkoptABSZoNJQAZppNBNNJoACaoOf3hq4TVFj85oAdmlzTKM0gH5pc1HmjNAyTNJmmZozQA4mmE0hNRs1IYyQ1lX5P2SbH9xv5VoOazNRbFnOR2jb+VID5WZvmb6n+ddt8PbiNfE8EcoDLKjqQRkHjNcKx5P1NbvhScw+JLFwcfvQPz4pgfSd54N8NX+ZJbNFJHVPlP6Vyt58MdImBaymkgb0J3D9a9Ft5ty4NTHCnqOaAPCbv4Z67Dn7JJFMuOOdpP51zs3hDxJaHZNZOfdMMP0r6dFOFAHya2l6nGrO9rKFThjsPFVzDOF8zy32HvtOP5V9dlVYbSAQeophtrdl2GNdvpgYouFj5EHPGCSPQGk4VsNlSfXivrZdPsVJKwRgnqdo5qCXRNKuGWS4tYnZehKjii4HyYWG/g1LvU+mcV9Xf2HpG4v8AZIcn/YFImg6OjF0tIQT1OwUAfKqgkFgCQOpAOBUscNxL/qY3cD0Umvq+PTNPijMUdvGqtyQFGDViO1t4xtjjVR7ACgD5cg8P65d4+z2UrA98YH61t2/w+8UXA5gWIeruP6V9IhQOBSnpgUxHz6nwt11yPOuYU9cZNcv4u8PR+DHtQl0Zrt/3hAGAqqePzr6pCheTXyB4/wBX/tfxZeTKd0cJ8lPTC9f1oA+kNJGkeJNLt7u7t4pWkjU5ZRnpzzUN54F8N3GSLbys94yRXE/DO/ebw/HGDzA7IfzyK9dhuN64ekM8xuvhhbOd1jdsns4zXPXXw41+E/6M0cw9jg/rXu3HUU4Gi4HzmfBPicMVNpnaeu5cH6c1nSeGtfhk8t7KXPsMj8xX1B1p3FMLHyjJo2sREu9pMqn1Q00WGoOrsLaQiP7xCnivq8qD1pPKQEkKOevFAj5LW3uGOBDIf+An/ClW2uycLDIcf7Br6y8iIdEX8hTvIiHRR+VAHymmm6nKdsdrKTjP3DU0eha3cJthspiT/s4/nX1OIlHIFPCAUAfNdt4J8Uz4/wBF2A93YD+tdBa/DDV5ubu4jhHouWNe7hBSkcUAeP2/wvtUcefdu/qFAFcN4v0yx0bWDp1jnZGik7jkliMmvpdEwcmvmDxdefbPEt9LnIEpUfReKYM1/h9hfES/9cX/AKV7JdSnoK8W8AN/xUC/9cn/AKV6/dNyaUgRnzycGvNNWOdQlPuP5V6DOeK871MRNeyJJKImkcRoSCeSPb04qDRGLMcSD6f1rnbY/wCnzf7sP861jLv2knJAwfqDisO3b/Tpf92L+dZy3OqGx9K+Cn/4pu1/4F/6Ea6dpBXkcWo3Nh8PZLmzkMc0akqw6j5qx9K1DxHctDqU1wzWxmWM5PJJ9q05rJI5nC7bPaWnHPNZd/qBUw20OS8z7SV4KgDJPNZN3qkVq0YlJ/eEgY9etXbaC2aRprzYo3CSI55wQDk0KabtcnkfRDrK+k86exuch4mBQueWRh198GqWtapPp/lSR4KMSG+owR+YBp0lulwlzcrL+/Lbo/ZEPA/HH61zXii8xpLv3DKR7HNO4rHbS3EccTTMfkVSxPsBmuQ03xHLqmpTWQhCpEoJbPQlQSPzIFcFceN78WP2OSONkKLGTzuI7/mK2/A9zHcw3tyVxJJKWY/XJxS5kU4NK529xdwwn52x7dTWPcapCuTukTj+6SMVfkYZzjNc1qInvt6ROVVFJ4PJrGrU5UQ9DmZtcS2u5JFJXftZScgBgfftiu30jxdNeXcOm6ZtUJGFTefvN1Yj3NeT33h/xW53paO6hcfLhgRUKaFq1kGk3yRBVDZ27T9B9KxjKa1ZnqfYlpFerCpupPmPJUDOPxrnPGbY0G5/4D/6EKqfDvUJr3w1FFcGVpICVLyc7snjB7gdKl8aNjQrj/gP/oQruUrxuioniWfSq94f3TfSpCwzxVe6J8t/pWJsFgcAj/Zq4f6VRsTjj/Yq3uyMe1Az6n0j/kE2n/XCP/0EVo1naP8A8gmz/wCuEf8A6CK0a6DAKKKKACiiigAooooA/9P6pooooAKKKKACiiigApidD9T/ADp9MTofqf50APrN1f8A5Bs30H8xWlWbq/8AyDZvoP5igDh64rxwR/ZceehlWu1rD12yhv7Zbaddyu6j3GWAyPcZoA8vsLC4mnS7NjJNCcgSIy8446E+tbF7pkGpII7nTLldhG1l2Zx9c13kHhtLSJYIL25VF6AGPA/8cqVdDfPGoXX5x/8AxFacz7CsjEtY4LW3WKCznVVGAMr/AI1J9udc/wCgTkjpyn+NbX9hSf8AP/df+Q//AIioIFeMyQO5fyn2hmHLDAOTjjPNJza6DUUcN4ka4vbVJFtJYkjJZy+3gY68HtXCsqZ3E8V7ZqNiNRsprIyGMSqV3AcjNcO3gWZGAhuUfH98EfyqozT3E4voc1p1mLq5RSdqZBJPpXtVv8yIIUKogwoPf3rB0bQf7Oj3XBWSbPUZ2gduDXSJI0fGQSfehyiHKyzFBtGTyT1qQpVUXbDqBTmuGZc9M/WjmiFmThcninFKq/aSOAB+tO+0n2o54hysm8vJzTzHkc1W+0N1AFBuZMZwBRzRDlZYEQzTwgxVL7W/fFM8+R8gEDH1pOcQ5WWJ5CqlE6/WqYLev60hLHlmz+FIB7j8qyk7stIdlgMnn8aaXbPyinHDrt4p8FpNcNiPoOp7CkMhJkwSKljtrqYjy1JHHPQfma24LGGDk/M3qf8ACrucDFFhXM+10i4u3KFxGQM/3v8ACqep6fJp++J5A+6FzwMdiPWuu0wYuH/3P61jeJxm4H/XB/607CufPlqCIV9MVIQSaIc+UoNS5piIiGXpTVU9TUtOHvQBr+Df+Q3f/wC5D/Jq9NrzLwd/yHL/AP3If5NXptAG74f/AOPyT/rn/UV11cj4f/4/JP8Arn/UV11ABTE+7+J/nT6Yn3fxP86AH0UUUART/wCqb6VkVrz/AOpb6VkUAFJSUZoASkopKACmmjNNJoACaYTQTTCaAAmqLH5zVotVJj85oYx+aM03NGaQx2aM1XM2JdmOO5qXNK4WH5ppNNzTSaAHFqiZqC1Rk0ANY1m6if8AQp/+ubfyrQJrN1H/AI8Z/wDrm38qQHymxwx+pq/pEoi1ezk/uzp/OqB6mpIHKXMLj+GRT+tMD67gbHNcN8UJ5ovD0U8LtGyTphlJB5+ldlbtlAfWuJ+JgD+F3z/BKjfrQtwZ45D4s8RwqBHfTfL0y2a6jTfiX4ltGH2iRbhP7rqM/mK8zD85NTKSBk1pYi59Eaf8VNMnAF9bvCe5X5h/jXTReO/DMsXmi7Cj+6wIb8q+VhIAMg80/wA4gdaXKHMfYEWvaPMnmR3cJXGc7x0q5b6hZ3Sh7eZJAem1ga+NBP2qeO8mj5jdl/3SRS5R8x9lJc28hKpIrFeoDAkfWiK6t513QyI4zjIIPPpXxwmoTq+UkdS33sMRn605b+4QhY5XUA5wGOAfWnyBzH2UJo2JUMpK8HBHH1qN72zhOJZo0OM8sB/WvjsaldoWYTSfOcn5jz9artdSSHLsWPqSTRyC5j61ufFnh2zBM99Fx2U7j+lcvffFTw7bA/ZlluD7DaPzNfN4kHcYpGf34qlAXOez3fxfZ43W3scZBAJfkZ714RIAZHmnY7pHJJ92OTV7dn7vGaytT+XYB2OT+NDikhKTZ6H4K8Q2egCaK6LMsjBlK9vWvXLPxx4blwGuCh/2wRXytHNtPJq8lyfWp5UVzH2Pa+IdGuRiG8iY/wC8B/OteO7tpMbJUbd0wwOa+LI7g5yDircV9MmCkjAjpgkYo5A5j7RD9qcHB7jmvjca1qUbF0uZQxGCQ5zipotf1SLydl1KBESV+c8E9aOUfMfYwb1o3V8hTeJdYluFmlvJiyggHceAetNXXdWilSWO7mDJwp3k8UcouY+vxIueSM+maUuo5JA+tfHFxquoTzNcNcSl2+8dxyanl1e+nUCS5lbjGCxo5A5j60n1jSrQZubqKPHq4rm7v4i+FLRtn2hpT/0zUkfnXzOreZksdx9+afszwOKpQDmPoyL4meH7m6hs7ZJpJJnVF+XAyTivRMV8qeEbbzPEViMZPmj9Oa+rTSkrAncrzOIo2kP8KlvyGa+Prucz3c055LyMT+Jr6s8RXH2XRLy4zjZC/P1GK+PjOQM+tSM77wHKE8QLu4HlP/SvYbiTd05r5ds5r179PschjkAJBBx0r0ew8aapZYj1SITKP4hw3+BrKc7PU1hC60PR5Q7ZwK8s8Sb49SiYggCU5zxzgV6Lp3ibSNSAEUoR/wC6/Brmtflc3zJ8roWBwcEdB0qXJJXLjF3seerIDczJ/dkb/wBCrLgb/TZf92L+ddJJp8MVzK65GWJ6+9U10+FZWdc5IXPPp0rJ1EdEVZHYTyn/AIV9NH6qf/QqyNJ8QW0WmwaRsbzftCuX7AV0yW6HweYmGQVPX/erC07TVZ4pxt27wMVTntYzSWtzqLvVYEG+VwEUE5PQVsWep6LfWcM8txCSYwOXA6cdKiurSBohGyKQeMYrm73wvos+N8Cg4yccVjKyqNihfozsYdW02JoQ08YGCGG4elcV4pmZtIkli+ePcpDKcjGaqReDtGLLuiJHOfmNbOp2MFl4d+yWy7UTbgfjmt1LQTWqPF55y6FcHivSfh4zNZXRUZ/eD+Va2mLBp8JjtYkmLjdIxAz9Oewrdg1nTLIlBaCJWXcQi4LED2qorqwnO65UWnSY9FNZ8Nrc+e8hjPz8Y+lbWn6to94iNPI0DP0Ru31roEsFuQW02RJivUbhkVXKnqYs5e01REPlsdrDgj3rTggW/u7czKGhDgsTyMA1MfCSyz/aLthuPJx1FPvo7bwzpz6jNuNvHy5RSxAJ6464ppMG0d1ZwadZwfZ7ALHHuZtoPdjk9feuR8cHGgzntlP/AEIVydr4+8O6ldx2tlM7O4xgoy8/iK1PE26TQrhd2eFP5EVTatoSo6nkgKk1FckGN/pTRle9RyOWBQ965+ZG3KySy9+61aLVRgIjPzemKlEq7SAad0KzPrXR/wDkE2f/AFwj/wDQRWjWbo3/ACCLP/rhH/6CK0q6TAKKKKACiiigAooooA//1PqmiiigAooooAKKKKACmJ0P1P8AOn0xOh+p/nQA+s3V/wDkGzfQfzFaVZur/wDINm+g/mKAOHqMgGePPv8A0qSo8/v4h6k00BPeSNHGSvWq1jcmVfn61duUDxkHmsCIOirKDgMwG3HTJxROaja44xbOoB4zWLchjO23pmtaL7grHuGInb605bCjuQfMM0uTSiTrmnB1xmsyxZFXGPSosAnmpfMbPNNLn1/SgBoU9McVIQwXA/CnK2epqEs2T9TQAEOME0nPel8w+lODqWxQA5AChJqLaBwKl8zsvSjeT0oAj2dxUiAjJx9aFc9z+lErNxtoAaVc/Sm/N70byDU0CmeQRDqep9BQBLZ2rXMnzZEY6kd/YV0SxogCoMAdKI1SJAkYwBTsmmITFABpcmnZ4oAv6Z/x8Pn+5/WsLxV5v2qPyyAPKbfn056e9bel5+0Pn+4P51ieKo0e6jZ+qQuy89+aYjwaPGwBelPzUcTlowT1NO384NAhc80ophYDpSK+aANzwd/yHL//AHIf5NXpleY+DTnXb/8A3If5NXp1AG74f/4/JP8Arn/UV11cj4f/AOPyT/rn/UV11ABTE+7+J/nT6Yn3fxP86AH0UUUART/6lvpWNmtmf/Ut9KxaAA0lFJQAU0mgmmk0ABNMJpTTCaAEJqNjSk1ExoAQtVQn5zUpaqufmNIaJqQsFGabmo2IJCnp1NIYzIYtuPbH41JFJ5ibu/Q/UVGChz6ZphcJMB2fj8RUoZazTC1NzTSaoQpNMJoJppNIBCaztSP+gz/9c2/lV8ms7USRZTkf882/lQB8rHqfxqPcVIb0IP60rZ3H6mmMTgZ9aYH1tp777aJ/VFP5iuY+ISeZ4XusfwgN+Rra0yKYWkGDhRGn/oIqj4xUy+HruMc/uzQtwPl/1NSK/A5zUSgkAg04kr1rUzZKJOcUGUEY9KptKFPy9a7jwppFrqVjPc3EQlZX2gE4obsK1zkt/fNOEgALE+1ehHQ/DsgxJDJE31OM1LN4P0NtgQuA3Uhuho50PlZ5x5ynK96eJhnbXcP4DtWDSQ3bAL2Kg1TTwTduu6G5Tr3WnzITizk/N3n5h0oZwoznr2rpJfBepREZnjY9uCKefA+rMA/mxc/WjmQuVnK+ad33sCnByW9RXWN4F1ZCA0sWTzxmrQ8C3qY824QZPZTT5kHKzkVY7vasm9Jk3n0/pXpf/CEXOCRcrn021TPgC6dGLXSAf7prOUrlxVjzJOxqdGKnOOtdzH8Pr0RGUXCFR1+U5q/B8OmkCs95tz6LRzILM89EnOatJJgbjXpB+HFugz9rckew5q3a+BNNQETNIx6ctinzIXKzzAup5z1pPORTjPFeqp4M0BG2uHLem41cj8MaD0FsMj1HNPnQcjPIxKr4wQalDDdgGvY4PD+ilf3VlGSvqKtXuj6ebO4t0tokYwsQVUcEDIo50HIzxgSFR60oOSAprNEjE7Rn0NWIWLA4I49a0sZ3NeJiTjpWiiknNZtpudxjitlY9o65oGdd4Eg3+J7TP8JZvyFfStfPnw7Td4hQkfdjc/yr6CHIrKW5cdjg/iPc/Z/CN6c4LhUH/AmFfJrs1fSPxfuDD4digB5mnUfgvNfNZPFSy0avhuA3WtLF/wBM2P5Yr0K90Q3Fm8SMd+Mr9RXG+A13eJ0B/wCeT/0r2WS38tyv41Nr6FXseUw6Fq6j54d3vkA1pRQ6tYgfaIy8fo3OPxr0MR0pjBGDWboLoaKszhtqznePlJ5waaLGcsSqj68VT8Sak+nap5dvgAKMjHBJqvbeKZZc5tlAUgE59a5p07PQ6IVLrU9EiEQ0QWTuocgjH41VsreOBUWRlG1s1zp1WYMP3K+1SjU7gjcYlBou+wcqO/ae2bHzg1Waa2LElhiuJOqzEH92tMOozH/lkvNO73J5bHcpJABwwpt88E9t5O4c4rkI9UuB/wAsVqQ6tdH5fKQU03sHKtzoBHBgcrkjBqN7a3aZHDcxg4x71iLqF1n7iUg1S767EH4UXkHKjoPKtSu2TD85OQDVjTpodDna40uKNWkGHJJ5/CuTGrXecbV/KlGpXbjO1T+FCnMORHoH9v3srEtKiZ/urzn8aqS37zgi5leRCCCD0IPtXHJfXYOdq/lU/wDaF4ONq/lVOcyfZxRvWsOhRSGRoVDcEEL3q/qmpWlzYvax5y4wOK5D7dd5z8v5V2+kaXHqGnx3UhO85Bx6g04ub0QpKK1Z52dPkBwcVG2myHnivWj4egJzls/Wo28OwHqWqfYSH7aJ5H9hIznHSozpkhHBFesN4btRzzUL6HAgO3NP2Eg9tE9X0dduk2antBGPyUVo1T09dtjAvpGo/IVcrrRyMKKKKACiiigAooooA//V+qaKKKACiiigAooooAKYnQ/U/wA6fTE6H6n+dAD6zdX/AOQbN9B/MVpVm6v/AMg2b6D+YoA4eo/+XiP8f6VJVaWQRTRse2aEBsOm9cdKrfY0ByAPyqH+0R0CGlGogj7hqm0FmXgu1cVi3DMJ2AGeavfbgRnYazZWEshdeMmlJ6DSG/Oc4FIA59aUbh0NPUNt5PIqChWOemfzqPkH/wCvTd3ejOTigCQbzwKDIce4oQnuKYQAT6mgBdzkdKTDnqDSYIHWnqG3ZJoAcuQuGzTTn3/Okc4baTTd1AD8t2/nS7mXhu9MG4EcU5xnBPagBN7ZPHFbmmwlIfNI5f8AkKwlQswC9+K6xF2IEXgKMCgQ8ZzmlNB4GaZnFMB1HPWm89qeORQBoaYc3D/7g/nWL4oz54A/54P/AFrY0r/j4f8A3B/OsfxRn7QP+uD/ANabF1Pn62wIVxT2AzTYABEtSYGck0CEGMc1F34qUhW4zihVHXNIDa8G/wDIcvx/sQ/yavTq8x8GjGuX/wDuQ/yavTqYG74f/wCPyT/rn/UV11cj4f8A+PyT/rn/AFFddQAUxPu/if50+mJ938T/ADoAfRRRQBFP/qW+lYlbVx/qW+lYdAC000U0mgAzTSaCaYTQAE0wmgmoyaAEY1AzU9mqs7UhiM1VweTSs1RK1IZPuqIAN8zd6Y7HGB3prE4+Y/gKTGKDlcepNDKCpVevY+9QowEYApQSRzx7CkBMr7lz37/WlzVRpI4D8xCqecn1qk2s2Iz+8zj0piNYtTc1mwapaXU3kQvlwM49quF6AHk1n6iQbKcf9M2/lVkvWbqT/wCgz/8AXNv5UAfLzdT+NRsRtNJuBJpUiknIhhUu7nCqoySfpTA+stGk83SbSRc4aBDz1+6Kp+IV8zSrhPWNh+lM8OvexaFaxahH5UyIFK+w4FLqr77OVfVSP0oA+WE5AHpSuCBUgQB2X0Yj8jVeVyOFrUzZUZlDc9a9M8CSuunXG3/nof5V5YXyST1r0vwYzrpMpBAzIf6Up7BDc7ewaVvmbGB61pvC5+chWJ6CsLT5vkw/XP8AKtYzqXG0/rWRoKIWGRtAJ9KnS3SKMcYPqKRfvZ545yPWkeWRpBGmKAJpHiWMIcuxqURFU3sCFHaooV2uXfkjinGZ2k2hjjkmgBstwzyLFCpJPc9OKesFyzF3PyjsKjjlAk3Y5AOKQXDYZQMHnp0oAj34JyD+NJC7spzgDtTUJaNt3vUkI/5ZjBAyTQBJB/qWQMMHqaswKBD1z+FRw4PbGegqaHGAu7JOaAGGDzUIZ+ho+zM8JUudyHrVxQ/AwMEEVDGSCyucZH8qYEbWUWFcscjrTjAu8Nkkj+VToztGQMEClU5XLHFOwXJ7eKNJQckZ7VTcD7fJCTkMuPzFacWCFYc89azpFUak7PwOKYj5ymAt7qWPuHI/DNNVsMSvGTRqWU1O4XqBK/8AOqoZt3HeuhHMb9k4DZLV1MYDxhq4W2LCTGetdhp025QrHrSKR6h8OFzq8snZYf5mvcEbIrxn4dqFubuXHRVWvX4pAayluax2Pnr4wajdy6xb6bIjLDChdWI4Zm9D7V46xx1r658faLBq3hy68xQZIEMsbHqpXk8+4r5DfBGfWpZSOs+H/PiiP/rk/wDSve54ty7u4rwX4d8+KUH/AEyf+lfQ+3jBqRmLspNlW5I9rEVE2FBY9AM1QjwHxVO02tXJU8B9v/fPFXvDNqt2BFIDiViD9BXN6jI0t7NOed7sfzNeleD7YBY8j7ke7/vquX4pHVtE0odHaKMJKcleMjuO1SPZQr6muidcVnTrVuhG9zNVpGP5NovBQ4pxeyAwQaWQVTcUnRiP20iczaevVWNRSXumRqXKvgc8VSdaoTjKkeoNL2KH7Zkv/CUaCG2iOUHOOg/xrWGoafIPkV+fWvHbgFZmGcYNd/ZNviRvUA0lTT3G6jR1Aks88RmrK3VmqhRGcVXtLNrofI6AjsxwasyaRexjO3cPbmn7OHcXtJh9rsuvltmmyXtiqFhE3AzVFo2Q4cEH3phXIx61XskT7WRrWrWd7bJdRqVDjoevWvU/CaJ/Zvlr0Rz+vNeP6FLiwMWM+W7L+tepeCZyy3EJGMFWH41nRdp2NKusTlNSurmLU7hUkYYlYcH3pI9W1CPGJn/GoNXP/E2ucH/lq/8AOoFGeTUtu4WVjdi1zUDjLg/UVdOq3JA3gHNc7GuGzWmgGKpTfcTiux7ZYHdZQN6xqf0q3VPT/wDjxg/65r/KrldaOUKKKKACiiigAooooA//1vqmiiigAooooAKKKKACmJ0P1P8AOn0xOh+p/nQA+s3V/wDkGzfQfzFaVZur/wDINm/3R/MUAcPUUkSyEFu1S0UAQCBPel8lff8AOpqKAuQ+UvqaPJT3qaigLkPkR0vlIPWpaKAIPIj96XyU96mooC5D5S+/50vlJ71LRQFyHyUo8lB0FTUUBcgMCE5OaPIT3qeigLkPkr6n86Xyl9TUtFAXLGnWsU19FG+cEk9fQE12X9mW3+1+dctpH/ISh/4F/wCgmu5oAz/7Ntjx8350f2Zbf7X51oUUAZ/9m23+1+dH9m23+1+daFFAFGC2jt7g+Xnle5z3rnPEaK90gboYiPwJIrrHi3sGDMpxjjH9RXJ66hS6QFi3yd8ep9BQBwS+FNGUbRG2P940v/CK6P8A3G/76NdHRQBzf/CK6P8A882/76NKPCujjojf99GujooAybDRdP02R5bRNrSY3EnJOOn861aWkoA3fD//AB+Sf9c/6iuurkfD/wDx+Sf9c/6iuuoAKYn3fxP86fTE+7+J/nQA+iiigCG4/wBS30rCzW7cf6l/pWAaAAmmE0pNNJoAQmmk0E1EzUABNRsaRmqFnHegYO2KqO9JLMBVbEsv3RgepqRitIKZGxIyKmW3UctyaVxtFAEOSST6cVXnuIokLO3QdqsduOazJ4HYkqnJ96l36FK3UWPULRoUc7xnjp0xUv2u3basJZyfvHGAtZbWl1INrAKtX4IVTgZY+grOKlfVlNx6Io67LEdOkXPzZGPzrzwEBGyTz/hXqlzpy3cRjn6HsvtWWPDOnjghvzrVEHPeGcHVWHX91XoGwHtVSw0u1sSTAmCepPJrSICgsxwB1JoEVjGvpXJeKdf0jQ7CX7YwLupVYwfmOawPF3xEtdMD2WlfvZ+hf+Fa+dtSv7vUbhrq9kMjsc5Jp2A0UkEi7xwDzXr3wx0VpZZtamQhUXZCxHBY/eI+leY+GtEv9dmit7SJihIDyY+VR3JNfTMMdvpFnHZW52xwqFA/mfxoAtSOyk7jzWZfTZhZc5zVG41JSSFOaxb3UgsTMzDCjJxSA8Wu28q6nVhgiRh+tZUkmc+9XdXuUnvJZYxgO26sZmbGDWyM2IWGOO9el+DX3aU6L1EhzXmXeu58F/bJI7lbfGFZSc+9KewR3O/09STyfl3HrWoqkDd3zWPZtJErI2NykmraTTkcfWsjQ1Y2cAljxViIhcsRzWZGSUyePerCbyhXdzjIIoAuqzFSxPFTrgglByBx6GqcYUhcnGRg1KWRB1+7QAqwqZG3dCvT3qSNEEYX2PNUYpVzI3NJHMjKd3HDGgCc+XtVQRyTmkhfAOBwSSfpVeHyidoHQY/Op4nBOMcZx+AFMCzC4J+9g9T/AIVZgbk8jrzVOEx+dnGec/hVtVDH5eMncaALscg3AMR/hSq0RlQKRnnOetQxlH6jB3VVdZo5hJ2GTxVCubKBACobrmoWWPAGRnms2C9DKxcfiKmhmin+4Dx60CNOMgIoHFV5HH29lcZGAalhEbIfM9aSaCMz5BIf+lMD5h1KUSancuBgGVz+tUxkHPaprsbby6HpI386hbBAANbXMGiaJ3DZrfsbsQzpuPBrm1BzuPIq6uWH9aBn0X4BlCR3T+rKP0r02G7XPWvnnwbrf2ZWikbAbr9R0r0iDxDDk5OB71lLc1jsek3kMOp6fNYTMVSdChI6gGvkTxZ4YvvC2oG0uPnifmKUdHX/ABHevpSy1+1YjLcU/wAR6Tpvi/SH0+Rgr/eik7o3r9PWpGfOXw6H/FUx/wDXJ/6V9FCvI/D/AIN1Dwv4phN5PDKHifaEb5+3JU8169SKK86ZXdWLqknkabczZxtic/pXRYyMVxvjF/s+hXI6b8J+ZpN2TY0rtI8HihdnVThgxA/Ova9AgRIHdF29F/IV5RpMBk1CEDpnP5CvbdOjKWa5/iJNctHWR0VtIj3Ws+deK1nWs6cda7DlRhSrVJxWjMOaouKkopuKoSrWk4qjMKQHnOpRBLtxjvXW6O2+0j+mPyrmdeUx3efWtnw7Jutdp6qxFQlqW9jq3ZoQJlBbtgdatWesXG7EMrcfwmousOfSrum2qvdJKoGTWdRalwehprqwmGy7hWT370vl6VMQyloT6HkVBdWo+2yrjHzHp70psxgbW/OnyyWwuaL3GWenyWclwY5EkjkbcuDg+/BrqfDuorpdzPNcjCmPj3YHgVxTyiK8FkfvFdwPYirUYllfZGGZj2HNZ3alfqaWurFp2a4meZj8zsWP1JqdUYCqyRvGcSKVI9QRVxTxigCWJTnJrSjB28VmxNk9a1IicUIR7Rp//HjB/wBc1/lVuqlh/wAeMH/XNf5VbrtRyMKKKKACiiigAooooA//1/qmiiigAooooAKKKKACmJ0P1P8AOn0xOh+p/nQA+op4Y7iJoZRlW4PapaKAMn+xNP8A7h/76P8AjR/Ymn/3D/30f8a1qKAMn+xNP/uH/vo/40f2Jp/9w/8AfR/xrWooAyf7E0/+4f8Avo/40f2Jp/8AcP8A30f8a1qKAMn+xNP/ALh/76P+NH9iaf8A3D/30f8AGtaigDJ/sTT/AO4f++j/AI0f2Jp/9w/99H/GtaigDJ/sTT/7h/76P+NH9iaf/cP/AH0f8a1qKAMn+xNP/uH/AL6P+NH9iaf/AHD/AN9H/GtaigDJ/sTT/wC4f++j/jR/Ymn/ANw/99H/ABrWooAyf7E0/wDuH/vo/wCNH9iaf/cP/fR/xrWooAzItJsoZBLEGVl6HcfpVzyB/ef/AL6NT0UAQ+QP7z/99GjyB/ef/vo1NRQBD5A/vP8A99GjyB/ef/vo1NRQBB5A/vP/AN9Gq0+mWtwweYMxAwMselaFFAGT/Ymn/wBw/wDfR/xo/sTT/wC4f++j/jWtRQBk/wBiaf8A3D/30f8AGj+xNP8A7h/76P8AjWtRQBk/2Jp/9w/99H/Gj+xNP/uH/vo/41rUUAUbXTrWzkMkCkEjBySeKvUUUAFMT7v4n+dPpifd/E/zoAfRRRQBDcf6l/pXPE10Nx/qX+lc4TQAE0wmgmo2NAAxqBnApssgRc1iz3bEkA0mxpGhJcAcVB++l/2R71ThlBG7nd61Z88+ppDJlgReTyfU1NiqQnz6+lO8/wCv50AW9tMZAeoqv5/1/Ok88e/50AT+WBSeWKg84e/50eePQ/nSsBN5ftQsQXoMVB549P1rzm41/Vf+EqGnpMVg5+QfSonNRtcqMXI9PKUzy68pn8TanFPJGJCQrkdewNUbnxbqiRMyucgcc1a11FY9Xvr6z0y3a5vHCIvr1NeC+LPiBdamWtNOJit+hI6tXK6vr+o6sCLuUsPTPFc6eaBFSUsxJY5JqhIrM4VBuJOABySa1hE8rCONS7scKoGSTXs3hHwXDpca6jqKCS7YZCkZEYP9ad7BY2vDEuvw6BBbXSQwtjIwu0hewIHerN1Be3HCzHPc44rdYEjB/KmbcDpgVDZVjkG0e8b705/AVxfiaQaehtVmaSQj5hxgCvUtRvbbTbV7u6cKqDp3J9BXzrquoNeXM0zZzI5Y59+lVBX1ZMnYy3kLMW61Dnccmmbx2pu8CtrkWJDgjBr0LwMGSC6lXuyj8hXm7NnmvS/B6EaW79N0h/QVEnoNI6iAyFmYZzzVqMyRxljySe9V7fYMjPHNWlCPHjOcGoKJzIwtt3TNWI32hTkcCqeFZBF6dakiVWRmX6CgDRSUFFbPGc07epy+e2apoAYuemO3tUwlQLtxx1z9KYCL8khBJ5XP4mrEUUaxFSST0qj9pLuc4GBz/ShbsojMSCVB/M0AWQq7fNUHg0sTqmVI9B+dZKamvKMQORSrdozH5v4qYjXSQhtwHcDrVuGc73yDgkCseK4AYDdkbquRTKXYk9GGMUAbscqbwpHC+9aSASAZXhsiuaNyBuwedwq6mofvtrNhVwcUxE9zYtHEzRrkVmLMYxtwR610aXiThox0NY99ZCVC8X3geRQBcglBRVAJzUty0iXcTKPvAr/hWJBPNbsEcEVtzTpMiMDnBpgfM+pRyQXk8dwNsnnsGH41SZk8w4Heul8dbYfFM2BhSFk/EiuOEuSTnNVcnlNJWHQY5qeNznbWYsnHSp0n54qlIXKdRp0zRXC4JHevdNDmttTs8uimRPlbivnayuF81QDg16V4S8Qw2l9Ik/Mb/KfY+tKaugi7M9YW0t0/1aAH2qUwwucsu3HcHFTQyRTxiWFgwPcVLgN161zmpyVp4Va18TDXo7hpEaNlZJCWIzjG0+ntXcAVWEeOU49hUocqdrjj1FVcCXFecfEq48jSIYx1kl/RR/8AXr0gjFeN/FKUvcWVsp+6rOR9Tipm/dZdP4kcv4cIkuzJ02r+pr22FNkKL6AV4v4Sty9woIzvkA/Ac17gwxwKzoR3Zdd7IquKz5q03HFZ8w610MwMK4FUHrSuF5NZr1JRXaqUwq61QeTJOdkS7jQBw3iCIEo+KXw8dvmJ05BrpdY8N61dQD7PblyD0BFZmj+G/ENvcsZrORVI6kjr+dZvcvodRD80RFaOkuBInscUy30y/QYkhYU21UwXJjcYKtyKmr0ZVPqjpr9ALneP4lBqoBWpdwvKsTxjPy4qr9mm/umrT0M2tTlNU/c6pZz4yGyh/Gul0idotSgcDADjP48VnaxpV7dpCbdMvFIG5OOO9a0NldLKsgUDBB6+nNYVU+a6N6bXLZnr0kMMn+sRW+oFZs2kabL96BPwGKWLV7VwA25T3yKvLLHKN0bBh7V16M5dUeU+LhJoIinsLbdEzbXfJO09hj3rqbfS45baOcFkMiBip7ZGcV08qI42uoI9DzVeTgUuSPYfOzrrIbbSJfRAP0qzVe0/49o/90VYqiQooooAKKKKACiiigD/0PqmiiigAooooAKKKKACmJ0P1P8AOn0xOh+p/nQA+iiigAooooAKKKKACiiigAooooAKKKKACiiigAooooAKKKKACiiigAooooAKKKKACiiigAooooAKKKKACiiigAooooAKKKKACmJ938T/ADp9MT7v4n+dAD6KKKAIbj/UP9K5kmuluf8Aj3f6Vy5NAAxqFmpWNQs1AFK8fCVzU82Ca275vkNcldyEKxqGUjdtHzEDVrNZOlvmyjPqP61o7qYDkPB+pp2agQ8H6mnE0AS7qTdUWaTdQBLupu6ot1NLUATbq8Z1e+Np4nkuY+SuQPrjFevbq8K1YNLr06LyTI1cuJ2RtS3ZOJ2mzK55ZiT+dU7uTMLj2oBMQKHqCf51WnYtGwHUit4bIyluce/LGnJBLJwik5rYhsoUIaU7j+lX8KR8tWI6jwuugaCn2i8kE14/UquVQeg9/Wu9h8Q6NMu5bgD/AHuK8VMbZyKcAwpWHc9sGr6SeRcofxqVby0lGY3Rh/vCvDzkdKVZHHQkUuULnfa94UGuTG6+1uvGFXhkH0FcPP8ADfU8Ex3MbEnuD0qW3v7q2bdBKyEehrUXxLqyf8tgfqoNO7QrI50fDPVN3zXEYH0NK3w3uE+/dD8FroG8SanJx54X6ACs+W7u5zullZ/xoux6FNPh+gHzTlj7Cr1hZtombFjlCcqT6mqm+UdHYfjUbq0hyzEn1NGojct5mkZh1wW4q2kzKrKBgGuYgSeCdZo3zg5I9a2JNR3DAU5FAGtDIRGcg+5pUn4KgEVzx1JwSuw47cVUOpT7iNrY+lMDrVnJGD8oHFOMrtgAg1xhvbwghVPPrTIbrUkJ3rx9aYHU+YyyD0Oea1LOGGUFXPUf5NcE81/LjeoyDxzU0FzfxckD86BG3qGjsiM8EhJHNcpFqkthKYLsMDnOa3E1bUVBDIGz71QvEj1FSZ4Nj+oOaYGhb6rE4LCQ44NattfwzMwD5HBrzWPT9Vtpibdcp6ManW21aKTzoFKt6ZyKAPUP7Rt2bYXwW5zn0qY3UQdZBIfmIBrzSaW+mjAnt3jcfxJyKopd65BIAiNIg9RigR7nZapbhggblTg8+9dHG1uysykYr55gvdXL7mjYVOt74ihuBPaSMmBypOQfwoA91uEhEgmY5HTFPH2cDMfPI4rhdI8VXEi+Xq8O3HdSCDWjJq+n5zDM6g8kAUXHY1tQ0LTtUm8+5gVzjGSOeKyk+H+hSO22LaG4Izx+HvWlaeI9NjVY5JDgDrg5rQTxJovKmYgHvtPFQ2xnJr8OdFKGFQwYE8k81Wk+FensMxTyIfzrtx4m0dflMwcHvgg1K3ivQ1HEpOP9k0XY7HnP/CqHVw9vekY9VrSsfhvJBJuubsuvdUG0n8a68+MtFUcFyf8AdqM+N9JHRJCfoP8AGnzMVkWrHTk0eJYLJ2ABPDnOc11Fv/pMZbG1l6iuEn8YaVMuAkgP0H+NS2HjGwt5csH2/Sp1uM7jGDkVOMhc9a5qTxRocjebBOVJ6qymrEPiHS5SFWdVJ9elMRvxqG4HFeL/ABJ06/GqR6i6E22wIrjkA9wfSvZYJUmXMTBvdSDUksUVxE1vcosiMMMrDIIqZR5lYqEuV3PHPBtt++hJXoGcn616cRVW18OQ6XO89n/qmXAT+79Par+zIp0o8sbBUld3RTccVQlGc1quh7VSkiNaEHP3KmsqQc10FxCTWTJCc1LKMxhUAklhbfEcEfrWi0FVngpDNDTfEsTv5MjYZTgg12tvfQzAEGvD54QA8ycHn+daNjq13ZkAncvpWSZpY9swjCvPdWBh1mTHRwrfpitLTdfjnA5wfSqevOkl3DOv8SEH8DSnsOO519kd9qpHargCEcis7RW3WoFbGwHtThqiZbkQhQ8ikMGORU3lkdKcN6+9XYVyvtK8U9JGjOVyD7VJ96k20WFcuR6i33ZOferHnJKPlP4GsvYCKYYGHKHBp3YrI9PtP+PWP/dFWKq2OfscOeuxf5VarQzCiiigAooooAKKKKAP/9H6pooooAKKKKACiiigApidD9T/ADp9MTofqf50APooooAKKKKACiiigAooooAKKKKACiiigAooooAKKKKACiiigAooooAKKKKACiiigAooooAKKKKACiiigAooooAKKKKACiiigApifd/E/wA6fTE+7+J/nQA+iiigCC5/495P901yRautuv8Aj3k/3TXGlqABmqB2pWaq8jUhmbft8prkLxvkb6V0183y1yl2fkb6VLGbOkN/oEf0P860t1Y+kn/QIvp/WtLdTAerjBye5o8xfUfnUC7CCSoJyeopfk/ur+QpASean94fnTfOj/vD86blf7o/Kk3L6D8qAFM8f94fnTDPH/eH50FvYflTd5oAPOj/ALwryKZR/wAJVLjkbifzFeq3d/BZQme5cIo/M/SvF7++87VJr+3JXeeM9axqwcrWNKckr3GXTf6RKPR2/nVUgketQyeY5JJyTUHmPGea2SsrEMdMGAz0qulwU4atBZkkXBqKWGJhyv5UxDFm3j5WqKSS5j5HIqpLbbTmImnw3LodkoyKALMV+jcPwavKUflTWXNZrMPMh61Q3zwHaeKAOjIA60mFbgVz66hMhw3Iq9HdI5yDg0ASzx4GV61DFdvGdr1dSRJBhqqXFtuG5aALqzq44NS5J+6c1zpjnj5Wp4L0qcPQBrNIVOOhpUuucPzUH2lWXJGRVdngY9cGgDXDo4ytRtJsPNZKyqrfIauLMsq7W60AWhMD3p/nkdeazHzG2c05J1b5aANNZEfpwacXdevIrM345FTR3QHyvzQBe85e604NE3tVTzoyM1F58e7HQ0AaO0djS5YcZqmJfQ08TdjQBZDml3Zqp5y0nnigC4CcU7JzVHzQaPNOaANAZoyaqrK1TBzigB+fagilDeop/BoAgINREEVewp7UGJTQBmktTcmtEwKab9nFAFHLU7eeParf2f0pPIxTAbHIxqYSspzTFixUoQUCNC2v5oSGikZD7EiursvFepwgLK4mX0fk/nXDBdtWEkAoA9ctPGNo+BcxtH6kfMK2hqGl3MbTWsyHAyVzg/gDXisc4qwrK3fmiwHeSeMfDS5U3QyOCNrf4VSfxn4a/wCfn/x01wV1p9tcDMi8/wB4cGueu9ClRTJbPvA/hPWk7lKx6dN4x8OnOLgn/gJrMl8XeH+0rH/gJrx5gVJVsgjsahb8am47HrzeLtBx/rG/75qs/izRW4VnJPA+WvJ80+EZmQf7Q/nSCx6NNJHHavNNkIOT61y/9syY3BBtzx9K3NdJTQJnPcqP1rhoPnhKccHvWPQ362PTrAW1wiyxOc+x6Vq3Jl8tMvuCt1PXmvI7LUprSXarbSDj2rurXWluYfJmGHOMGqe1mRre6PVNFuPLtHcn7qk/lXUafdRXkYcd68901y1u0Y/iGMfWjTNTk06f7O4favRiKmDKkj1gQg8ineSKraZew3sYKMCa2hCK2RizO8gUfZ1NaPlAd6d5S+tMLmb9mHajyMdq0vKFO8oYosFzo7Ti2jH+yKsVDbDECD2qatDMKKKKACiiigAooooA/9L6pooooAKKKKACiiigApg+VyPXkU+kZdwxQAtFMDY+VuD/ADp9ABRRRQAUUUUAFFFFABRRRQAUUUUAFFFFABRRRQAUUUUAFFFFABRRRQAUUUUAFFFFABRRRQAUUUUAFFFFABRRRQAUUUhYL1oARjtHv2pVG0AelNAJO5vwFPoAKKKKAEZQylT3rh7mMwTNE3Y/pXc1lanp/wBrTzIuJF/UelAHHs1VZGqWZZInKSAqw7GqUj1JRm3rZFcvd/cb6V0F2+RXO3Z+RvpUsZq6U3+gR/Q/zrQ3Vk6W3+gx/Q/zq/upiJFbj8TS7qrq3H4ml3UATbqTdUWaTNICXNV7iaSGJnijaZ/4UTqT6VMqu5wik/QV0FvZtFGOPmPWgDy658G+LNfmM9/cQWifwRjMhX8sCse6+F/imPLW93DMPbKn9a96iQqKsgjpVAfLsngXxkkvlFMkenSqdz4T8XQNtktS305r6vzTWjDcg4NAHx/N4c8TxAs9pIPoKga2160wJLaXHfKmvsBldeGHFNCBuJEVh7ii4Hx813dR8NbPnvwaptf7874yv4V9mNZWDn57eM++0ZrMn8NeH5HMslnE2fVRQB8gf2nIrZUYAqY6lDcDbKMH1r6nl8FeG7p9z2caj0UYrLn+GHhS4UjyChPdTQB8xvJGoAzkVXSUK3Xr0r6AvPgvpUrg2V1JEPf5qpj4GxsS76mw9MRigDxgXhQYI6d6sRakCOTx716Dqnwd8QWaM9jPFeIvIXlHP8xmvO7jw1rVup822YEceuKYhst2G/1ZwO9V3cH5unrUH9n6nEhLROB6YqAySAbWUqR2NIC8l4Yj6irQnt7g8HBrD8zggjBFRxuQwXoOv50wNeSaOM7QefWlguCGyDWK0oJ2t1HerUHzAsPxoA6TzldFyc5qsTtOQazPOMZINT/aEZfvUhlo3DxkYORSfatwJ9KypblRleSajL/KMHk0AdDDNv59KV5V3ZPWsVLlYT1/+vU731uw+Y4NMRrR3HqatCeMjkiuImumfiFjUUcl2w6nAosFzvRPB3YVIJYfWuLjLoMs2aet1NuxHk0rDOyMsKjJNN+1RdjXNpFcTgMxI/HrVlYRGfnagDcF0p6U8XWDiuaa6jiJ5qNtR2cg/SiwXOrF5Uy3ece9cYdSdm/rUi3s5P4Z4pgdqtzmp1lDVyEd+4X5utWV1E9B1oA6rJ7UYc9K5tNSf3qdb+U0AboD0rB+lZaXch71ZW6c0ATfPS/NSeeTS+aaQDxuo+YGmCSnBzTAkViKspLiqBJ7UBzQBtxzVMNjVhJKRVuOY+tMRJfaTbX6/P8AK/Zx1/H1rF/4RMf89yR9K6FJianWfHWk0NM5RvC0eP8AXN+QqNfD0dvIJTKx2nI4Hau2V4n69aiuol8gupz0rOSsi4tMpahZLeaQIJCVVnB468Vw9zpZs32xBnVhnOK9NmjzYxAdzmspkA64rOK90tuzucB/Y4kj+0PuGTyB2p8EaWzDDMcdM13BVCKy7qwilBaPCtWmlrMjrdHoGgP5jJzwQDXWT2KljxXB+GZGQxKx5HFerMoOD6jNYo1Zz0Nu1u2+ElD7cVfFxfY/1r/nV/ykPalEAq7k2M4S3/eZ/wA6mWS9x/rm/OrgiBqQRii7CxUEt7/z2b86lV7xjtEj5NWhDkgKM11Wj6OY2F1dDBH3VP8AM043YnZHRWystvGrdQig/XFTUUVuYBRRRQAUUUUAFFFFAH//0/qmiiigAooooAKKKKACiiigAIB4NM2DsSKfRQAzYf7x/T/CjYf7x/T/AAp9FADNh/vH9P8ACjYf7x/T/Cn0UAM2H+8f0/wo2H+8f0/wp9FADNh/vH9P8KNh/vH9P8KfRQAzYf7x/T/CjYf7x/T/AAp9FADNh/vH9P8ACjYf7x/T/Cn0UAM2H+8f0/wo2H+8f0/wp9FADNh/vH9P8KNh/vH9P8KfRQAzYf7x/T/CjYf7x/T/AAp9FADNh/vH9P8ACjYf7x/T/Cn0UAM2H+8f0/wo2H+8f0/wp9FADNh/vH9P8KNh/vH9P8KfRQAzYf7x/T/CjYf7x/T/AAp9FADNh/vH9P8ACjYf7x/T/Cn0UAM2H+8f0/wo2H+8f0/wp9FADNh/vH9P8KNh/vH9P8KfRQAzZ6saUKo6U6igAooooAKKKKACiiigCvPaW1yMToH+vX86oNoWlt1h/U/41r0UAYTeGtGf70Gf+BN/jUDeEfDzjDWoOf8Aab/GukoosBz0fhXQYUEcVsFUdBub/Gn/APCM6L/zw/8AHm/xreoosBgjwxog6W4/76b/ABo/4RnRP+eH/jzf41vUUWAwf+EZ0X/n3/8AHm/xpR4a0UHItx/303+NbtFFgMsaNpwGBHgexNO/smx/ufqa0qKLAZ39lWXTZ+ppf7Lsv7n6mtCigDP/ALLs/wC5+tL/AGZZ/wB39av0UAUDplmeCv60n9l2f9z9TWhRQBn/ANl2f9z9aQ6TYnqn6mtGigDOGlWQ6J+ppf7Msx/B+taFFAFD+zLT+7+tL/Z1r/dP51eooAo/2dan+E/nUbaRp7HLRAn3rSooAwLjwtoN2CLi0jfPtg/mMGsmT4d+DJhiXTkb6s5/9mrtaKAPPW+FPw+fO7SY+fR5B/Jqj/4VL8PP+gSn/fyX/wCLr0aigDzc/CL4dN10hOf+mkv/AMXTk+Evw8jGE0lB/wBtJf8A4uvRqKAPOm+E3w9bhtJQ/wDbSX/4um/8Kk+Hf/QJT/v5L/8AF16PRQB5v/wqH4ck5OkJ/wB/Zf8A4unH4SfDs9dJT/v5L/8AF16NRQB5ufhF8Om66Sn/AH9l/wDi6Yfg98Nz/wAwdP8Av7N/8XXpdFAHmy/CH4cp93SIx/20l/8Ai6l/4VP8PcY/slMf9dJf/i69EooA86Pwl+Hh66Sn/fyX/wCLpy/Cj4fJyulIP+2kv/xdeh0UAcCPhf4EAwNMTH/XSX/4umt8LPATddLX/v5L/wDF16BRQB5wfhJ8O266Sh/7aS//ABdIPhF8Oh00hP8Av5L/APF16RRQB50PhN8PF6aSn/fyX/4upR8LPAI6aWn/AH8k/wDi69AooA8/Pws8Anrpaf8AfyX/AOLoHwr8Ajppaf8AfyX/AOLr0CigDgR8L/Ag6aYn/fyT/wCKp4+GfgcdNNT/AL7k/wDiq7uigDhx8NvBI6acv/fcn/xVL/wrfwV/0Dl/77k/+Krt6KAOJ/4Vz4L/AOgev/fcn/xVH/CufBn/AED1/wC/kn/xVdtRQBxH/CuPBf8A0D1/7+Sf/FU4fDrwaOmnr/38k/8Aiq7WigDjP+Fe+Dv+fBf++5P/AIqk/wCFe+Dv+gev/fcn/wAVXaUUAcX/AMK88Hf9A9f++5P/AIqnf8K+8HjpYL/32/8A8VXZUUAccPAHhEdLFf8Avt//AIqn/wDCCeFP+fFf++3/APiq66igDkf+EE8Kf8+S/wDfb/8AxVPHgfwuOlmP++3/APiq6uigDlm8F+GXUI1mCF6Dc/8AjUJ8BeEz1sV/77f/AOKrr6KVkO7ON/4V/wCED/y4L/33J/8AFUh+Hvg89bBf++5P/iq7OiiwrnJweB/C9sQYLMIR/tv/AFatb+w9MGP3XTgfMf8AGtaijlXYfMzJ/sPTP+eX/jx/xo/sTTf+ef8A48f8a1qKLLsF2ZH9haZ/zy/8eb/GlGhaYP8All/483+Na1FFkF2UoNOsrZt0EQU+vJP65q7RRTEFFFFABRRRQAUUUUAFFFFAH//U+qaKKKACiiigAooooAKKKKACiiigAooooAKKKKACiiigAooooAKKKKACiiigAooooAKKKKACiiigAooooAKKKKACiiigAooooAKKKKACiiigAooooAKKKKACiiigAooooAKKKKACiiigAooooAKKKKACiiigAooooAKKKKACiiigAooooAKKKKACiiigAooooAKKKKACiiigAooooAKKKKACiiigAooooAKKKKACiiigAooooAKKKKACiiigAooooAKKKKACiiigAooooAKKKKACiiigAooooAKKKKACiiigAooooAKKKKACiiigAooooAKKKKACiiigAooooAKKKKACiiigAooooAKKKKACjNFGKAP/1fqmiiigAooooAKKKKACiiigAooooAKKKKACiiigAooooAKKKKACiiigAooooAKKKKACiiigAooooAKKKKACiiigAooooAKKKKACiiigAooooAKKKKACiiigAooooAKKKKACiiigAooooAKKKKACiiigAooooAKKKKACiiigAooooAKKKKACiiigAooooAKKKKACiiigAooooAKKKKACiiigAooooAKKKKACiiigAooooAKKKKACiiigAooooAKKKKACiiigAooooAKKKKACiiigAooooAKKKKACiiigAooooAKKKKACiiigAooooAKKKKACiiigAooooAKKKKACiiigAooooAKKKKACiiigAooooA//1vqmikU5UGloAKKKKACiiigAooooAKKKKACiiigAooooAKKKKACiiigAooooAKKKKACiiigAooooAKKKKACiiigAooooAKKKKACiiigAooooAKKKKACiiigAooooAKKKKACiiigAooooAKKKKACiiigAooooAKKKKACiiigAooooAKKKKACiiigAooooAKKKKACiiigAooooAKKKKACiiigAooooAKKKKACiiigAooooAKKKKACiiigAooooAKKKKACiiigAooooAKKKKACiiigAooooAKKKKACiiigAooooAKKKKACiiigAooooAKKKKACiiigAooooAKKKKACiiigAooooAKKKKACiiigAooooAKTIoY4UmoNxoA//1/qSM8YqWqynac1YByMigBaKKKACiiigAooooAKKKKACiiigAooooAKKKKACiiigAooooAKKKKACiiigAooooAKKKKACiiigAooooAKKKKACiiigAooooAKKKKACiiigAooooAKKKKACiiigAooooAKKKKACiiigAooooAKKKKACiiigAooooAKKKKACiiigAooooAKKKKACiiigAooooAKKKKACiiigAooooAKKKKACiiigAooooAKKKKACiiigAooooAKKKKACiiigAooooAKKKKACiiigAooooAKKKKACiiigAooooAKKKKACiiigAooooAKKKKACiiigAooooAKKKKACiiigAooooAKKKKACiiigAoooJwMmgCKQ8YqKlY5OaSgD/9D6fpytt+lNooAsgg8ilqsGK9KlEgPXigCSigEHpRQAUUUUAFFFFABRRRQAUUUUAFFFFABRRRQAUUUUAFFFFABRRRQAUUUUAFFFFABRRRQAUUUUAFFFFABRRRQAUUUUAFFFFABRRRQAUUUUAFFFFABRRRQAUUUUAFFFFABRRRQAUUUUAFFFFABRRRQAUUUUAFFFFABRRRQAUUUUAFFFFABRRRQAUUUUAFFFFABRRRQAUUUUAFFFFABRRRQAUUUUAFFFFABRRRQAUUUUAFFFFABRRRQAUUUUAFFFFABRRRQAUUUUAFFFFABRRRQAUUUUAFFFFABRRRQAUUUUAFFFFABRRRQAUUUUAFFFFABRRRQAUUUUAFFFFABRQSB1qMyAdOaAJCQBk1XZtx9qQsW60lABRRRQB//R+n6KKKACiiigApcn1pKKAF3N60bm9aSigBdzetG5vWkooAXc3rRub1pKKAF3N60bm9aSigBdzetG5vWkooAXc3rRub1pKKAF3N60bm9aSigBdzetG5vWkooAXc3rRub1pKKAF3N60bm9aSigBdzetG5vWkooAXc3rRub1pKKAF3N60bm9aSigBdzetG5vWkooAXc3rRub1pKKAF3N60bm9aSigBdzetG5vWkooAXc3rRub1pKKAF3N60bm9aSigBdzetG5vWkooAXc3rRub1pKKAF3N60bm9aSigBdzetG5vWkooAXc3rRub1pKKAF3N60bm9aSigBdzetG5vWkooAXc3rRub1pKKAF3N60bm9aSigBdzetG5vWkooAXc3rRub1pKKAF3N60bm9aSigBdzetG5vWkooAXc3rRub1pKKAF3N60bm9aSigBdzetG5vWkooAXc3rRub1pKKAF3N60bm9aSigBdzetG5vWkooAXc3rRub1pKKAF3N60bm9aSigBdzetG5vWkooAXc3rRub1pKKAF3N60bm9aSigBdzetG5vWkooAXc3rRub1pKKAF3N60bm9aSigBdzetG5vWkooAXc3rRub1pKKAF3N60bm9aSigBdzetG5vWkooAXc3rRub1pKKAF3N60bm9aSigBdzetG5vWkooAXc3rRub1pKKAF3N60bm9aSigBdzetJk+tFFABk+tGT60UUAGT60ZPrRRQAZPrRk+tFFAC7m9aNzetJRQAu5vWjc3rSUUALub1oyfWkooAKSlooAKKKKACiiigD//S+n6KKKACiiigAooooAKKKKACiiigAooooAKKKKACiiigAooooAKKKKACiiigAooooAKKKKACiiigAooooAKKKKACiiigAooooAKKKKACiiigAooooAKKKKACiiigAooooAKKKKACiiigAooooAKKKKACiiigAooooAKKKKACiiigAooooAKKKKACiiigAooooAKKKKACiiigAooooAKKKKACiiigAooooAKKKKACiiigAooooAKKKKACiiigAooooAKKKKACiiigAooooAKKKKACiiigAooooAKKKKACiiigAooooAKKKKACiiigAooooAKKKKACiiigAooooAKKKKACiiigAooooAKKKKACiiigD//T+n6KKKACiigAnpQAUU8RtTvK96AIqKl8r3o8r3oAioqXyvejyvegCKipfK96PK96AIqKl8r3o8r3oAioqXyvejyvegCKipfK96PK96AIqKl8r3o8r3oAioqXyvejyvegCKipfK96PK96AIqKl8r3o8r3oAioqXyvejyvegCKipfK96PK96AIqKl8r3o8r3oAioqXyvejyvegCKipfK96PK96AIqKl8r3o8r3oAioqXyvejyvegCKipfK96PK96AIqKl8r3o8r3oAioqXyvejyvegCKipfK96PK96AIqKl8r3o8r3oAioqXyvejyvegCKipfK96PK96AIqKl8r3o8r3oAioqXyvejyvegCKipfK96PK96AIqKl8r3o8r3oAioqXyvejyvegCKipfK96PK96AIqKl8r3o8r3oAioqXyvejyvegCKipfK96PK96AIqKl8r3o8r3oAioqXyvejyvegCKipfK96PK96AIqKl8r3o8r3oAioqXyvejyvegCKipfK96PK96AIqKl8r3o8r3oAioqXyvejyvegCKipfK96PK96AIqKl8r3o8r3oAioqXyvejyvegCKipfK96PK96AIqKl8r3o8r3oAioqXyvejyvegCKipfK96PK96AIqKl8r3o8r3oAioqXyvejyvegCKipfK96PK96AIqKl8r3o8r3oAioqXyvejyvegCKipfK96PK96AIqKl8r3o8r3oAioqXyvejyvegCKipfK96PK96AIqKl8r3o8r3oAioqXyvejyvegCKipfK96PK96AIqKl8r3o8r3oAioqXyvek8r3oAjop5jamEEdaACiiigAooooA/9T6fooqVExyaAEWPu1TAAdKKKACiiigAooooAKKKKACiiigAooooAKKKKACiiigAooooAKKKKACiiigAooooAKKKKACiiigAooooAKKKKACiiigAooooAKKKKACiiigAooooAKKKKACiiigAooooAKKKKACiiigAooooAKKKKACiiigAooooAKKKKACiiigAooooAKKKKACiiigAooooAKKKKACiiigAooooAKKKKACiiigAooooAKKKKACiiigAooooAKKKKACiiigAooooAKKKKACiiigAooooAKKKKACiiigAooooAKKKKACiiigAooooAKKKKACiiigAooooAKKKKACiiigAooooAKKKKACggHrRRQBC0fcVHVqo3TPIoAhooooA//V+oUXJ+lWKZGML9afQAUUUUAFFFFABRRRQAUUUUAFFFFABRRRQAUUUUAFFFFABRRRQAUUUUAFFFFABRRRQAUUUUAFFFFABRRRQAUUUUAFFFFABRRRQAUUUUAFFFFABRRRQAUUUUAFFFFABRRRQAUUUUAFFFFABRRRQAUUUUAFFFFABRRRQAUUUUAFFFFABRRRQAUUUUAFFFFABRRRQAUUUUAFFFFABRRRQAUUUUAFFFFABRRRQAUUUUAFFFFABRRRQAUUUUAFFFFABRRRQAUUUUAFFFFABRRRQAUUUUAFFFFABRRRQAUUUUAFFFFABRRRQAUUUUAFFFFABRRRQAUUUUAFFFFABRRRQAUUUUAFFFFABRRRQBXcYNNqeQZX6VBQB//W+qBwMUtFFABRRRQAUUUUAFFFFABRRRQAUUUUAFFFFABRRRQAUUUUAFFFFABRRRQAUUUUAFFFFABRRRQAUUUUAFFFFABRRRQAUUUUAFFFFABRRRQAUUUUAFFFFABRRRQAUUUUAFFFFABRRRQAUUUUAFFFFABRRRQAUUUUAFFFFABRRRQAUUUUAFFFFABRRRQAUUUUAFFFFABRRRQAUUUUAFFFFABRRRQAUUUUAFFFFABRRRQAUUUUAFFFFABRRRQAUUUUAFFFFABRRRQAUUUUAFFFFABRRRQAUUUUAFFFFABRRRQAUUUUAFFFFABRRRQAUUUUAFFFFABRRRQAUUUUAFFFFABRRRQAUUUUAFFFFACEZGKj2VLRQB//1/qmiiigAooooAKKKKACiivL/iDefEO1uLQeCIRLGyP5+UVsNkbfve2aAPUK8/8AEnxE0jwvr1loWowzBrwr++wBEqsduc98HqO2a8juvEPx1srWW9urZEhgRpJGMUfCqMk/gBXD3k3xH+KWmpM9ql5BbSlVkjREKvgZGeDjBHFAH2oCCMjkGivmS2v/AI82lvHax2oKxKEBaOMsQBgZOeTU/wDa/wAfP+fRf+/Uf+NAH0jJLHDGZZmCIvJZjgD6k1Q/tnR/+f23/wC/qf41y3jCC+vvh7ewz7UupLNfM3EIofALZJ4ABzXzv4X8KfDOfRopfFWuCC/LPvSG5jKBQx24+Ruq4zzQB9A+MviJpvhKxjvkjGoLI+wiCVMqcZGepwfpXSad4m0PUrCDUIruFUnjWQK0ihhuGcEZ4I6GvkDXrD4b2WuWul6JNcX1u5Hn3LXSRxJu9G8oj5Ryfyruh4O+CAGP+Eik/wDAmP8A+N0AfSP9s6P/AM/tv/39T/GtFWV1DKQQRkEdCK+MvF/hbwBb2MLeDNZS5ujKBIs9zGFEeDyPlXndjvX15o0bRaPZRPjclvEpwcjIQDr3oA0qK8U8Z+APHGva/NqWi639jtXVAsPmyrgqME4QY5Ncr/wqj4m/9DL/AOR5/wDCgD6Vor5q/wCFUfE3/oZf/I8/+FSRfCr4lpKjv4kyqsCR58/IB57UAfSNFMjUrGqsckAAmn0AFFFFABRXMP4t0xJHi2zMUYqdqEjIODUY8YaWSVCTZHUeWc0AdXRXKDxhpbEhUmJHXEZ4rY07VbfU4Xmt1cCM4IdSpzjPGaANOiuTbxZCjKj2dyGc4UFRyfbmpLXxRDeSLHFa3GGbbu2jAPvz2oA6iiuXbxPGCR9iujg/3B/jWhpetQ6q8sccUkTQ43CQAHn6GgDYorOv9WsNNKLeyeWXyV4Jzj6VnN4q0TadtwM9sg9fyoA6KiuR0/xfp01vuvnEMoJBUZIx2INalt4h0i7mW3gmDO5wBg80AbVFMkljhQySsFVeSScAVQg1jS7qXyLe5jd/7oYZoA0qKKzbjWNLtZPKuLmNHHYsM0AaVFRQzw3MYlgdXQ9CpyKloAKKguLm3tUElzIsak4yxwM1U/tjSv8An6i/76FAGlRUMFzBdJ5lu6yLnGVORmq91qen2JC3c6RE9AxwaAL1FQW9zb3UYltpFkQ91ORUryJEpeRgqjqScCgB1FQwXNvcrvt5FkA7qc0s88NtE087BEQZLHoKAJaKajrIgdDkMMg+1OoAKKKKACiiigAooooAKKKKACiiigAooooAKKKKACiiigAooooAKKKKACiiigAooooAKKKKACiiigAooooAKKKKACiiigAooooAKKKKACiiigAooooAKKKKACiiigAooooAKKKKACiiigAooooAKKKKACiiigAooooAKKKKACiiigAooooAKKKKACiiigAooooAKKKKACiiigAooooAKKKKACiiigD/0PqmiiigAooooAKKKKACiiigDjviFcraeCdXmbobV0/FxsH86+dfhv8AFLSfBfh99JvLSeeR7h5t0e3bhlUAcn/Zr0r466+tj4aj0KJszajIMqOvlxncePdsYrtvBXhGw0jwrp9hfWkL3CQhpS8as29/mYEkc4Jx+FAHn3/DQHh//oHXf/jn+NeheCPHlh45guZ7C3lgFs4RvMxyWGeME1vXmj6MlpM/2K3G2Nj/AKpOwPtXin7PCH+w9TmPe5QflGD/AFoA9+vbW1vbSW0vUDwSqVdW6FT1Brxfxp8O/DsWhyJ4X03T0vH+USTSBNi92XPBb0yQB1r0XxvrGk6H4aurzXIWns2AikjUAkiQ7e/1r5CjPwkV90o1RxnoPLXj0zzQBLpV/wCHvCW7TPFWg2+pzbixmS5RyB2HyF1/Diq+p33hXxLrtrY2NpB4d07d+8nZS8hGOScA/QDp3JrSv/EHw6sdLI8J6bKuoh1KTXgEoAB5ypJU/wDfNdVB8SfAeqaHb2njDSjd3iJtlljiRMkE42spUgAY4pCPW9G8B/Cy/tI20u2tL1UUDzFcSMSO7EHrXqUcaRRrFGMKoCgegHSvie21P4X2Gt2+r6f/AGnCkL72hBXDY5A3hgwGeo9K+w/D+tW3iLRrbW7NWSG6Teof7wGSOcfSmM2KKKKACiiigAooooAKKKKAOX8L/wCpvP8Ar6l/9CpNG/fa5qlyOQHSMH/dGD/Ks/TNSh0vTb+6lIyLqUIvdmzwK3PDtlLZ6cGuP9dOxmkz2L9qAKnh/wD4/tV/6+jXUVxGmanY6bqWpxX0ohZ7gsoYHkGtXQr6XUZ725Dl7bzQsORgYAGcfjQBzk17rOoXsE8QgAhu5IYt24fMFP3uvGPTvS6He6nZtbQyCIwXc8g4zuBBw3tjPSp9DinuLzAQ+VBd3ErP23EBQB785pptL2w1HTrScIYluJWjdSdx3nccjHGM+tAHe719RXMaOc69qpH96P8A9BrJ0jQbDVBdXF0HLi5lXhsDAY11Wm6NZaUXNoGHmY3bjnpQBheIZJYta054YftDgSYjyBngdzVC61TVBqtqv2Bo8hv3G9f3nB747Vsaid3ifT0/uRyOfyP+FZGq6lpV/eRTx3U0E1uCBsjyefrQBa1DUtUWymP9lmDCn94HU7ffpVnRL7UJorVZrA7WRc3BZeePvYxnmufluYJ42hm1S7ZHGCDCORXZaDeWVxYpBYuzrbKsZZhjOBQBjX6DV/EqaXc829vF5pTszHHX861dV0PT7iwkVIljdFLI6jBUjkc1BqumXov49Z0oqZ0XY8bcB19M1HJPrmoxNbTWosoiD5kpcMdvfaB6j1oAgt9UurnwnJdoSZ442QsOuV43flzVzQNN00aVDKkaSGVdzuwBJJ65NYui3i6R4XlvCu8GVginuSdo/CprHwzdPD9oe7ktmmG8xQZVFz6DNAEttFFYeKza6f8ALDLCWlRfuq3OPpXaVxOmxyaBqyabPtmW8yyT4w5I6huua7agDkvE6rPcabaONyy3A3A9CBjP6VbNl4WEvkGO1EnTb8ufyqXV9F/tWe3lMzRLASSF6nPXB7US+GtGltzbi3VcjAYfeHvmgC8UtNKspZLeNY441ZyEGBwK5/w7p0F3anV75BLPdFmJfnC5wAM1Qspbh9A1TTZnLtaCSNWPUrg4FdF4bYNodqV/uf1NAGRLbx6J4gtpLQeXBe5SRB93eOhxU+uqLnV9NsJ+YHZnZT0YqOAf896PEfz3umRL943GfwA5rY1PS49SSPLtFLC26OReqmgDDnijsPFNp9jURi5jZZFXgEKCQcfhVvUG/tPVItJTmGHE1x6cfcX8TyaY9omj+dreoTtdTom1CQFAz0VQO5NVGa70jToyuDf6jMNzEcKzc9P9kUAdn0orlHn1LRr21ju7n7VDdP5ZLKFKMehGO1dXQAUUUUAFFFFABRRRQAUUUUAFFFFABRRRQAUUUUAFFFFABRRRQAUUUUAFFFFABRRRQAUUUUAFFFFABRRRQAUUUUAFFFFABRRRQAUUUUAFFFFABRRRQAUUUUAFFFFABRRRQAUUUUAFFFFABRRRQAUUUUAFFFFABRRRQAUUUUAFFFFABRRRQAUUUUAFFFFABRRRQAUUUUAFFFFABRRRQAUUUUAFFFFAH//R+qaKKKACiiigAooooAK57xN4n0rwppcmqarIFVeEQffkbsqjuT+ldDXMeJ/CGh+L7aK11qHzBC4dGU7WHqMjswGCKAPCfBWj6l8TPFj+O/EUZWwtnH2eI/dZkPyqvqq9WPdvxr6Vurq2sbd7u8kWKGMZZ3OFUe5pbW1t7K3jtLSNYoYlCoijAUDoAKZfWVtqNnNYXi74Z0aN19VYYNAHBeLfiB4Y0/w7eTwX8E8zQukUcbhmd2GAAB+p7Cue+BOmvZeCvtUgx9rneRfdV+QH9KuW/wAEfAMEyym2lkCnOx5nKnHrzzXq1vbwWkCW1qixxRqFRFGAoHQAUAZPiHWNF0PTHv8AX3VLVSAd67gSegAwcmvCNR+J4125Oj/D3Q1uZ34E8sS4X3CY/ViMehr6D1TS7DWrCXTNTiE1vMMOh6EA5/mKTTNI0zRrYWmlW0dtEvRY1Cj9OtAHzD4t+Hj+H/BN54h1+UXWs3MsW9h9yIE8quMDPqcY7Dir+i/Dq6vPCWkeLvCMi2+rJCxeNwDHPh2HIbIBxxzwfY819A+JfDmn+KtKfR9T3+S7Kx8s7WyvI5qzoejWnh/SbfRrDd5FspVN5y2CSeT+NAHhWm/FSw0yf+y/HuhjT7pOGkjhBQ++wjcPw3V6xf6+W8GS6/4OiW6PlbrZAjbW+bBGwbT6+ldFqWkaXrFubXVbaO5ibgrIoYfrVm0tLextY7O0QRwwqERF6BRwBQB82/8ACyPjD/0AI/8AwGm/+OUf8LI+MP8A0AI//Aab/wCOV9NUUAfMv/CyPjD/ANACP/wGm/8AjlH/AAsj4w/9ACP/AMBpv/jlfTVFAHm/w78ReLvEEN4/iuwWxaFkEQWN49wYHd99mzjA6V6RRRQAUUUUAee6TeaHF9oTU3jEkd3I6B+oOeorpv8AhJdC/wCfuP8AOtM2doSSYUJPJ+UUfYrP/njH/wB8igDFk1vwzM26WaBz6sAT/KtKwv8ATbxWTT5EcR4yE6DNWPsVn/zxj/75FSRwQw58pFTPXaAKAPL7c6D5t1/ackyy/aJMCPdjbnjoCKsQHRv7YsP7KeVz5h3+Zu6Y4xuAr0O3srW1DLBGFDsXb3Y9TSy2dtNLHNIgLwnKH0JoA5fw9fWdul3FcTJG4upThjg4LVIL1b3xRClnLvihhYybT8uT0z2rcm0jS7iQyzW0bu3VioJNWLaytLMFbWJIgeu0AUAc7aut54lurskeXaRCEHtuJyfy5qDXbjSkkW8gulhvY+FKfOWH91lGciumksLOWGWB4l2TnMgHG4+p9+Kba6bp9kMWsCR+4Az+dAHDXGt6heJFb6gh063kH7yYKSW9hx8oPvXZ6WdKhtUt9NkQxjptYEn3PqTWmyq42sAQexrN/sXSxcLdLbosqHIYDBz+FAGbrEGpwXkOq6aDMIwVkgzjcPUD1qjdalqurxHT7KyltzL8ryy8BQeuPwrs6KAMC70OObQ/7IhO3Yo2N/tLzk/U9aoW+talZQra6hp8zyRgLviAZWx0PWuuooA5G1t9R1XVotVvoTbQ2wYRRt94k9z6VqXV1q0erQW9vAGtXGZJO4PPfPGP1raooA53W7C8kng1TTfmntifkJwHU9RVV9f1OVPJttMmWc8fPgIp9SfSusooAwtE0ltPsnjumEk1wxeU9snsKxrWXUPDhexa1kubUMWieLkgHnaQa7aigDkrG3v9U1VdYv4jbxQKVhib72T1Y11tFFAHO3MU2pazHBIpFrZ4kJPR5D90e4XrUuvWNxd28U1oA01tIJUUnG7HUZ+lbtFAHIyJf63fWjTWz2sFq/mN5mMsw6AAdveuuoooAKKKKACiiigAooooAKKKKACiiigAooooAKKKKACiiigAooooAKKKKACiiigAooooAKKKKACiiigAooooAKKKKACiiigAooooAKKKKACiiigAooooAKKKKACiiigAooooAKKKKACiiigAooooAKKKKACiiigAooooAKKKKACiiigAooooAKKKKACiiigAooooAKKKKACiiigAooooAKKKKACiiigD/9L6pooooAKKKKACiiigAooooAKKKKACiiigAooooAKKKKACiiigAooooAKKKKACiiigAooooAKKKKACiiigAooooAKKKKACiiigAooooAKKKKACiiigAooooAKKKKACiiigAooooAKKKKACiiigAooooAKKKKACiiigAooooAKKKKACiiigAooooAKKKKACiiigAooooAKKKKACiiigAooooAKKKKACiiigAooooAKKKKACiiigAooooAKKKKACiiigAooooAKKKKACiiigAooooAKKKKACiiigAooooAKKKKACiiigAooooAKKKKACiiigAooooAKKKKACiiigAooooAKKKKACiiigAooooAKKKKAP/9P6pooooAKKKKACiiigAooooAKKKKACiiigAooooAKKKKACiiigAooooAKKKKACiiigAooooAKKKKACiiigAooooAKKKKACiiigAooooAKKKKACiiigAooooAKKKKACiiigAooooAKKKKACiiigAooooAKKKKACiiigAooooAKKKKACiiigAooooAKKKKACiiigAooooAKKKKACiiigAooooAKKKKACiiigAooooAKKKKACiiigAooooAKKKKACiiigAooooAKKKKACiiigAooooAKKKKACiiigAooooAKKKKACiiigAooooAKKKKACiiigAooooAKKKKACiiigAooooAKKKKACiiigAooooAKKKKAP/9T6pooooAKKKKACiiigAooooAKKYW5woyaMOepx9BQA+imbW/vH9P8ACja394/p/hQA+imbW/vH9P8ACja394/p/hQA+imbW/vH9P8ACja394/p/hQA+imbW/vH9P8ACja394/p/hQA+imbW/vH9P8ACja394/p/hQA+imbW/vH9P8ACja394/p/hQA+imbW/vH9P8ACja394/p/hQA+imbW/vH9P8ACja394/p/hQA+imbW/vH9P8ACja394/p/hQA+imbW/vH9P8ACja394/p/hQA+imbW/vH9P8ACja394/p/hQA+imbW/vH9P8ACja394/p/hQA+imbW/vH9P8ACja394/p/hQA+imbW/vH9P8ACja394/p/hQA+imbW/vH9P8ACja394/p/hQA+imbW/vH9P8ACja394/p/hQA+imbW/vfoKMsv3hkeo/woAfRSAgjIpaACiiigAoooJA5NABRVR7tAcJzWTBqs82pXNlhQsKxsD3O/Oc/lSuh2OhorLa6nXoR+VVX1G6Xpt/KlzILG9RXLPrF6vZPyqA69ej+FPyP+NPmQWOworz+28VahNdXMDJGBCwAIBycgHnmrp8QX3ZU/I/40cyCx2dFcSfEV+P4Y/yP+NMPiO//ALkf5H/GjmQWO5orgz4m1EdEj/I/41GfFOpD/lnH+R/xpcyCx6BRXnDeLNVHSOL8j/jVZ/GWsL0ih/Jv8aOdD5WeoUV5M3jrWl6ww/k3+NQnx/rA/wCWMH5N/wDFUudBys9forxVviPrQuhAILfBUtnDZ/8AQqlPxE1kf8sIPyb/AOKp86DlZ7LRXiMvxH8QDBhgtfcMr8/iG4/I1ND8UboYF/brbH+9gvH/AN9A5H4gUcyFys9oorzWHxpdXCCSAQyKe65I/Q1OPFmof3I/yP8AjRzIOVnodFcCPFV4R92MH3Bx/On/APCTX2M7Ix+BI/MGjmQcrO7orjI/Esxx5qqv8vzrct9Ut5wMuUJ9cY/OjnQWZr0VCNxGQ+R+FHz/AN79BRzIViaioMyf3v0FMLSjv+go50Oxaoqg0s46H9Kha5uV9Pype0QcrNWiubub/VEGbYRn1DA8/Qg1QXxHcB/KuEEMno44P0PQ0vaRHys7OiuVOtXg/hX8qjOuXg/hT8qftEHKzrqK47+3r3+6n5H/ABpP7fvv7qfkf8afOg5WdlRXH/29e/3U/I/404a5en+FPypc6DlZ11FcsNYvDyQv5VTk8SXjExWMIuZOny8IPqx4/Kj2iDlZ2tFc/b32oNGDciMOeoQHA/Ori3NwfT8qPaIOVmpRVFZZj1P6VIGkP8X6CjnQrFqioB5h/i/QU8K/979BVKSYrElFZtzqFta5Dy5b+6ME1hS+I5AxEYGPQ8n9MUnJDSZ19FcSPEd6x+VEP4H+eakXX77+JU/AH/GjmQWOyorjf+Egu/7qflWXd+OEs28qVkaQ9I0Bdz/wEc07oLHo1FeVDxp4gncGK1hgi9Zss5/4CpAH4mtEeLdQ7xx/kf8AGodSI+RnolFed/8ACXX/APzzj/I/40n/AAl1/wD884/yP+NHtYj5Gei0V51/wl2of884/wAj/jR/wl+of884/wAj/jR7WIcjPRaK86/4S/UP+ecf5H/Gk/4S/UP+ecf5H/Gj2sQ5GejUV5z/AMJfqH/POP8AI/40v/CW6kekUf5H/Gj2kQ5Gei0V56PFWpn/AJZxfkf8ad/wlGpf884/yP8AjT9ohcjPQKK5TTtavLxHaVVXaccD/Gr41C43bTj8qpMVjcorn31O4VtoAqT+0LjaDxz7UXCxuUVh/wBoXG3dx19Kb/aVxv28flRcVjeornptUuY0DgLycdKh/ti6wThemelFx2Onorzp/F2oqqt5cfzEDoe/41Z/4Si9ChjHGefQ/wCNLnQ+RneUVwFr4+sm1D+zr6JoWJwHU7l/EdR+td5HIkqCSNgynoR0ppp7Caa3H0UUUxBRRRQAUUUUAFFFFAH/1fqmiiigAooooAKKKKACmMTnaOp/lT6YvJLe+PyoAcAAMCloooAKKKKACiiigAooooAKKKKACiiigAooooAKKKKACiiigAooooAKKKKACiiigAooooAKKKKACiiigAooooAKKKKACiiigBh+Q7h0PWn0EZGDTUOVGfp+VADqKKKACsPUL07/ACIzwOprYlfy42f0Ga4gyF2LHqTmpkxovLIax7KYjX70f9M4f/ZqvB6xLR/+KhvP+uUX/s1ZlnYiUHio3Aaqe+pFlpiIZUqi8dajYYVUdaAOWsl/4mF9/wBdF/8AQRWrtqlZL/p9/wD9dF/9AFaRWmBDtppQVNikxRYRXMdRmIVcxSbaBme0IqBrcVqlaYUpWC5hvag9qoyWIPaumMdRNCPSlYdzgJbJhqSgf88z/OnvbsvUV0bwA6qBj/lif51Ye0B6ilYdzjGiqIxeldTJYA9qoyWLDpSGcjNbeTPHJbM0Ds2C0Z2k8d8cH8RWxFq+q22FkCXKD1+R/wAxx+lNvIGWWDI/j/pUrRe1O4WNa11/TpyI5WNvIf4ZRtH4N90/nW6rkfMp69CK89vYVNu4YZH/ANekhjns8NYyvB/sg5Q/VTx+WKdxWPSFl9f0qxHIVOYzg+3H6dK4SDX7yH5b6DzF/vw9fxQ8/kTW7aatYXZCwTLvP8DfK3/fJ5oA7K11W5tzhTx6f/WNdHa69FLgTDn1HX8q4FZmHB59jUyyoeG4/X9etGvQTR6lFNDOMwsG/nUhFebQ3M8RDRvnHv8A1Fbtr4gdMLPyPf8AxouhWOpKCo2jBqODULW4AKuFJ7GrmOKHEVzOeAGqNxZRyqUkUMp7Gt0rUTRg1DiUmcY+mTW/Nk5x/wA835X8D1FVvOVW8u6Qwv7/AHT9DXavCKpy2iSKVdQwPY1Nmh3OdMXfrTfJPpV9tKkh5sn2D+43Kf4imhpx+7a3bzPb7v13UrjKwhNR+Zuby7ZDK3qPuj6mtJNNkm5vGyP7i8L+Pc1qRWqxqFRQAOw4p6sVzCTTHnwbxtw/uLwv+JrXhtUjUIihQOgAwKvrCKnEeKaiFyqkOKnWMVOEpJHggG6Zwo96pQJuCpUmFUbmOAKwLvxBDFlbcZPqf8K5i61S5ujySw/T8qrRBZnY3Os2tuCIv3jD06fnXNXmuXM+VDbQey8D86xsO5zI34VIoVeg5p6sNENJml68D8qURqPvc+3aqM+rWULeWH82T+5GN7fp0/Gs6S81a5H7tVtI/Vvnk/L7o/HNGiHqzfmuIbaMyzusaDuxAH61hya8ZsppkDTn/no3yR/meT+AqkthBv8AOnLXEn9+U7iPoOg/AVcqHU7FKPcqSR394MX1yVU9Y4PkX8W5Y/mKmt7a2tF2W0axg9cDk/U9TUtGazbb3KSSHUU3NGaQx1JSZpwVm6CgBM0manW3Y9atx2ntTsK5nhWPSp1gZutaiW4A6VMERepFUoibM5LWrK2wqR7q2h4ZgPqas2kqXSGROgOORiq5bE8xAIKQw1p+XUbJxTsFy3pCbYn/AN6tLb8/4VV0xcROf9qrxHzVpHYh7lSQfPU4HyCo3+9mp1HyCmIYRhB9ai/5afhU7D5BUQ+9QBXuh+5X61VH3G+h/lVy7/1K/Wqa/wCrb/dP8qAOLl/1Uf8AvD+dXX/1X41Sk/1KfUfzq2/+q/GsWbnF3Jxryn/aX+Veo6Hqj2Moic5hc8j09xXll4ca2h/2lrt4z8tCdgkrnsYIIyOhoqtZnNpCf9hf5VZroOcKKKKACiiigAooooA//9b6pooooAKKKKACiiigApidD9T/ADp9MTofqf50APooooAKKKKACiiigAooooAKKKKACiiigAooooAKKKKACiiigAooooAKKKKACiiigAooooAKKKKACiiigAooooAKKKKACiiigApifd/E/wA6fTE+7+J/nQA+iiigCtef8esv+6a4RWru7z/j0l/3D/KvP1NTIqJaDVh2rf8AFRXf/XKL/wBmrXBrDtj/AMVDd/8AXGL/ANmqBnTbqXcagzRuoAsh6cTmqu6nB6BGRYj/AE+//wCuq/8AoArSIrOsCDfX/wD10X/0AVpkUxkJFJUhFNxTENxRilxS0ANxSYp9FICMrTSlTYoxQBiMn/E2H/XE/wA6vmOq5H/E4Uf9MT/OtLbQBQaIVA1uDWqUphSiw7nKX9qDPbcf8tP6GllsFPate+jH2i1/66f0NWmizU2Hc4XUbJktnI9B/OoTbsFGR2rrNTgH2OT6D+dKbRSo47UrDucW0WaqzWkUwxIob6/412Eung9BWfJYuvSkMwYJ9SsuLWcsg/5ZzfOv4H7w/OteDxJGgA1GFoT3dPnj/T5h+IqF7cjqKoXUWIWIouFjtba8t7pPNtJVkX1Q5/lV1Zz/ABDP6V5u9lHv86PMcn9+M7W/Mdfxq7FqWrWuAWW5UdpBtf8A76HH6U7isehJcbTmMkfp+nSti01m4gOCcj0/+sf6V51B4hsnwt1utn9JPu/gw4/PFbqThlDKQynoRyKAPS7XW7afiT5T7Vro6SDdGwYe1eSLOO9aNtqVxAcxPn6079xWPSyBTCgrm7TxErYW4H4//X6V0EN1BOMxsOexosmLVAYxSeWKsHjrScUrBchEYp4QVLjueKoXWp2lopLsDj34p8vcVy8EqCe7trYZkYZ9B1rjr3xJNICluNo9en/1/wCVcrcag0jZkct7DpRfsPl7nbXniTGVthj36n/AVzM9/POS0jde5rAa9PbisC98T6daMUMnmyj+CP5m/HsPxNFr7lW7HZ+Yv1+tMlvYLdPMuJFjX1Y4FeV3XirVp3Mdsi2ykdT87/4D8qvaHEZZXmvGM8vBDyHcRz2zwPwoug5Wds2ryTHbYQNJ/wBNJPkj/wDij+AqM211duv2+dnQjJjj+RP05P4mrRHzA+xqwgwU9xRcViG1t4YCI4UCLjooxT2+7T4v9eB7UjKcHjipY0VqbTmFIEY9KzsWJmkqwls7dauR2YosFzNCsegqdLdm61rpbKoyeKcWhjHJziqUBORRjtPWriWwHaqz6lEpxF8x9FGf/rVCZb+f7qhB/tc/oKtQJcjT/dJ1NVZdQt4jjIz6dT+QqAafJL/r5GI9BwP0q5FYQRD5FAq1Em5QN5dTf6mM49W4H5daBa3U3+ukIHovFbIRE9qduA+nqeBTEZsenwx8hefU8mtXSxugJxj5jTRyM/yqfSxiBgf7xoY0XClROMVaIqBxxUDLmnj903+9Vs9arWH+pP8AvVaPWtFsQ9yu45qZfuCsnVNTtdMiMlwfmP3VHU15/e+JtSvBtjfyY/ROv4mmgPU5GUJgkDn1qFSC3BBrxKWR5OZGLH3Of50kU80DboXZCP7pI/lQB7Td/wCqH1qkDiJz6Kf5Vwdv4pvoEWO7/fRjufvD8a7G3u4Lyyee3bcpRvqOOhpDOXl/1K/Ufzq0/wDqjVaX/Uj8KsOf3JrFmxxV+QNWU/7SV20Z4rhdSONSU+6fzruYjxQDPXLH/jyh/wBxf5VaqrY/8eUP+4v8qtV0HOwooooAKKKKACiiigD/1/qmiiigAooooAKKKKACmJ0P1P8AOn0xOh+p/nQA+oWuIEYq8igjqCwBqauD1UA6lPx3X/0EUAdr9qtv+eqf99Cj7Vbf89U/76Fec4X0FGE9BQB6N9qtv+eqf99Cj7Vbf89U/wC+hXnOE9qMJ7UwPRvtVt/z1T/voUfarb/nqn/fQrznC+go+T2oA9G+1W3/AD1T/voUfarb/nqn/fQrznCegowvoKQHo32q2/56p/30KPtVt/z1T/voV5z8ntR8ntQB6N9qtv8Anqn/AH0KPtVt/wA9U/76Fec4T2o+T2oA9G+1W3/PVP8AvoUfarb/AJ6p/wB9CvOfk9qPk9qAPRvtVt/z1T/voUfarb/nqn/fQrzn5Paj5PagD0b7Vbf89U/76FH2q2/56p/30K85+T2o+T2oA9G+1W3/AD1T/voUfarb/nqn/fQrzn5Paj5PagD0b7Vbf89U/wC+hR9qtv8Anqn/AH0K85wntR8ntQB6N9qtv+eqf99Cj7Vbf89U/wC+hXnPye1Hye1AHo32q2/56p/30KPtVt/z1T/voV5z8ntR8ntQB6N9qtv+eqf99Cj7Vbf89U/76Fec/J7UfJ7UAejfarb/AJ6p/wB9Cj7Vbf8APVP++hXnPye1Hye1AHo32q2/56p/30KPtVt/z1T/AL6Fec4T2o+T2oA9G+1W3/PVP++hUqOki7kIYeoORXmuFPQCu10MY01Mf3n/APQjQBr0xPu/if50+mJ938T/ADoAfRRRQBWvf+PSX/cP8q88U8V6He/8ekv+4f5V52vSpkVEmFYduf8Aiobr/rjF/wCzVtisO3/5GK6/64xf+zVAzfzRmm0maBEmaXNRZpc0wM3T2/4mF+P+mi/+gCtnOawbA/8AEyv/APfT/wBBFbQNMBxptLmkoASiiigApaSloAKXFFLQBlEf8Tlf+uJ/9CFamKzD/wAhlf8Arif5itWgBuKMU6lxQBlXq/6Ra/8AXT+hq/tqreD/AEi1/wCun9DV/FAGVqSf6FJ9B/OrIiG0fQU3Uh/oMv0H86uIvyj6ClYCmbcGomsi3StQJUqwk0rDuc1Lp7d1rD1HTwLdyB6fzr0gW0mOKydUtwbVw688c/jSsVc4aSxdRxVJ7dh1Fd7LZjtzWdLaA9qmw7nEvADwRVJbeS2bfZyNAf8AYPyn6qcqfyrspbAHoKz5bFx0GaWqAy4tav4OLqITr/ej+Vv++Tx+RrVttcsLjASUI/8Adf5W/I1Qe1I6iskWiSw4dQwyeo96fMFjvEu/71XoLxozmFyh9O35dK8vVbu0/wCPSZlA/gb5k/I8j8DV+HXZIvlvYiP9uP5l/EdR+tMD2Wz8RTRgLOMj1HP6Vst4gtBHuTBb0/8Arda8fs9SiuF3WkocdwD/ADFaDX0204wvqaLvoLlR199rs8gILBF/z2rlbjUQzFly7f3j/n+WK5C/8R6fbsV8wzyDqsfzEH3PQfnXK3ev6rdcQAWyHjj5n/M8D8BSt3Gkd7d6lFCubqVUHoTjP0HeuVvPFKg7LCIyHONz/Kv+JrnI4nV3ldi8hAyzHJ59zU0kBCIe7MtLmK5SOW61DUnkS7mJUfwJ8q/kOT+JqpZQL5oVRjAU4FbljYyzXlxGi/dx1+lXdC0lpb/E3TYp/U0XuOxlmEmbgZzj+ddVpkTw3DIwIyB/OtWTToIZwFUcbP8A0KtYWyHVFGP4R/OhLUTehdMbM6gDsavpauZEU9lrVS1Xz+nQVdEI878K1UTK5lQWKjcxHI4p11ahbIsB6VtrGMNVe+CLYMXO0DHNPlFc5RLcGryW6qOeKqtdKvEClj6ngf41AzXEnMsgjH+z/ialQKcjSeW3hGWI/lVR9RBO2BCx9hx+ZrKlvNLtDukcO/vyaiTU9QvD5el2bvnoSMCq5US5Goft03zORGPzP+FVpm063G+8nDY9Tn9OlTw+EvFGp4a9lW2Q9h1/xrobH4c6RCwkvXe4f3PFVYVzkbXW7K4u47S0jJDHG/HArqVAC5rp7nSdOsLCQWkCIcdQOfzrnkT5KTQJlWS4iiGZGVAO5NUhqKSnbaRyXJ/6ZKSPzFb/AIf0XTbrzru7hWaQSkDfyAPYdK7aOOOJdkShFHZRgfpTSByPNodL8SXn+qgS0Q/xSt835DJrTi8FLKd2qXks3qkfyL+fJruaKdibnnwjWMFE+6pwPoKn00Dy3C9A3FDD5n+ppujLIts3mNuO844xgVLLRokVC4qyagfpWZRbsRiE/WkvruKxtpLub7qDP1PYfjTrP/U/ia47xpdlUhslP3su34cCtFsQ9zhtQvp9QuXuZzkt0HYDsBVYdBTWrtNBOn2Oly6lOqSTAnarEZwPQUwOMfpTe9dv4jgtbrSINYgjETvwwHoeP51s6je2Wk2tu8lqsolGD0GMAexzQB5XN9wVa0vUpNOd2BPlupDr7EdfwrpfFNhaC0g1SyXYk3VRwOlcKT+6f6GgDu5GV7cMpyCAQast/qTXPaPOZtM2MeYjt/DqK6Bv9UawZujhtVOL4H3T+ddzEflrhNY4uyf93+ddxAcxg+1IbPYLD/jyh/3F/lVuqlh/x5Qf9c1/lVuuk5gooooAKKKKACiiigD/0PqmiiigAooooAKKKKACmJ0P1P8AOn0xOh+p/nQA+uE1X/kJT/Vf/QRXd1wmq/8AISn+q/8AoIoA8R+Jeo6hY3FlHYXDwec7BymMkAV53/auu/8AQSn/ADH+Fdx8VB/pmmk9N7f+g155t96LDLf9qa6f+YlP+Y/wpP7U13/oJT/mP8KrbfSk2r3oAs/2trv/AEEp/wAx/hXUeBtW1W81q4sr26eeNYsgPjgn0rjtq10HgLC+JLn/AK4j+dKWw1ue+2tnEYFLFs/WqVzEI5flLbMc81r2hX7Ep7c155411q4stLabT/mkY445KjpmnHYT3JdU1MWoAVJCpPLL0X3J9+lZVhrM80jbi20HHA4/P1rC8PXt9d+HL2bV5t0bkqikZwVG4nIHGB09TTtNiBeO6R5SREURQf3TB/4m9xmhsLHpaGKaNXDN+dct4uvLrTtPjls5GRnmRCevBPNdDpKlIGEnrxUWvaVa6nYFJyR5TLIMeoNRHWVin8NzkLm4SxkjivtZMLSpvTdtGQf5U0XlsU3nXVAzjOVrkPGWgi4maSFN033QT6CvLG010cpJkEdRW8ly6MzWux9CNPbbmiOvrkDPVelAubY7CPECYfpytfP8VgrHDA5q2mmx9h0pXXYdme5i6tgGzr6ZU4IytKbm2SQQ/wBvLnGckrXhV5BDaWrTAYJ4A9c0qaalxZR30YyH4bHYilddgsz3UT2zFWGvr8/HVaHnhVHb+3l+TryteAmwVWAxxUo01Gz15ouuwWZ7zJcMNqwa0ju4yoJUZ/GmJdBkD3WtpF82AAynn8q8MXSQ2ME5psdlb3CyCE7jEcH/ABo0CzPbLnULhJmS21aKRUGSS6qfyxUjX0v2dGTWYjM/OzeoH54rwl9P28469acNNRsYyKV0OzPb4NRmdXafV4kC9MOpyfyFW9NmuNTna1t9XV5hzsQqxI/KvBxpIPHOa0tMsJLO8SS3ZkmT5gQcEHtQ2kFme+eG5bp9evtJubhrn7MF4I24J9+9dokM+4/aLYRqAcESbjntxiuR8BwLct/b9xzdXuVl9P3ZKjH5V6FeOseF7t0FJWbdgd0YUj26R72DKfTNcnc+IIM5tiW525JIAx1rmNV8X6gfEP8AZllAsiLII8MM7s8H2q/rsG3U90Lxq7xAnGGQSdCwHXaDxih2DU7vSr6OfaX5P6GtEyL3x+VcPpZnCwLI6yyKiiSRRtV3zyQOOMV6DCiyxtJsIwxAz3xUNN7FJ9y5ZnNupHv/ADNd9of/ACDU/wB5/wD0I1wVrjyVx6n+ZrvdD/5Bqf7z/wDoRq1sSzWpifd/E/zp9MT7v4n+dAh9FFFAFa9/49Jf9w/yrzpa9Fvf+PSX/cP8q85XpUyKiTisKA/8VFdf9cYv/Zq3BWDB/wAjFdf9cYv/AGaoGb5ppNKaYTQIXNLmmZozTAy7E/8AEyv/APfT/wBAFbINYVgf+Jnf/wC+n/oIraBpgS5pajzTgaAHUUmaKAFopM0tAhaWm0tAGaf+Qyv/AFwP/oQrVrJP/IZX/rif5itWgYtLSUtAFC8H+kWv/XT+hrRxWdef6+1/66f0NaVAFHUh/oMn0H86vxr8o+gqlqP/AB4y/QfzrRjHyr9BQBIiVeijFV0wKnEmKANBI1xWdqlurWj8en86mExqK7mzbMD7fzpAZs8G08VnugPWuiuFDDisS4XaCaB3Mt0UZzVCK4sbt2jtpo5GT7wVgSK5rxfqE8OmzRQkqWGCR6HrXGaCrWM9vcxcMCM+4PWlYdz1mS0Vu1YiaePKyP7zfzrsNoYcd6owxAw/if50uUdzirixdeQKyJoSvUV6NLbbu1ZVxp+4EhaVh3PM7iECXeuVYDhgcH8xVaW6ubhTb3cjzKRgZbAH4DGfxrrL/TiJDwR8tcrLbss4B70DRSSJI1ZEGADxVoW7tGhVTy+BV+3095JHAUnBFdHNbCG2t1x/y2FSWYsOlSSSTK/GwJn8a6O50qCGK2IHJkj61ZiUfarz/dT+VXL8/ubf2dKVhXILGBE1q9AHUL/KmaVGEvv+2Y/masQNjXLr3Vf5UywIGoL7of0JqhFy74nH/AP/AEKtCNc6oh9h/Osy8P738U/9CrVi/wCQnGfXH86cdxS2O0VR5pqYL+9pAv72pQP3tbGIKPvVma2/k6RJJtLYxgDqea1kH3qtWqgyAGgDyq2sPEmpc2lqYkP8T8fzxW9b+Abq4w2q3h56rH/jXp46UU7CbOXsPB+g2BDJB5jDu/NdJHFFCu2FFQeijFSUUyQopKWgChqQzZSCuWRf3ddVqH/Ho9c2o+SpZUS/4bGLab/rqa6Oue8PDEEw/wCmproapCYUlLSUCOIYfM/1NLpn/Huf9405h87/AFNJpn/Huf8AeNQzRF41A9WDUD1mMtWn+p/E15z4yJOrKOwhX+Zr0a1/1I+prhvGtsRLBdgcMpQn3HIrREvc4I1btBA08a3RIiJG8jriqhrrNO0S31DRnuINzXSEgKDx+VMDR8T4XRLZLHBtAevf2pni3/jxsvof5CpNajay8KQWlx8spI+Xv1Jq1r+mXmpWlolou4qOecYyBTEZmt/8inaE+orzlv8AUv8AQ16N4qK2ejWumlgZFwWA9hXm7H9y/wBKTGjZ8P58i4H+5/WutJ/dH6VzWhwlNPeU/wDLRuPoK6PrGR7VhI2icLrX/Hwx9l/nXbWx/cj6CuK1v/XP/uj+ddhaH/R0P+yP5Uime02H/HjB/wBc1/lVuqmn/wDHjB/1zX+VW66TmCiiigAooooAKKKKAP/R+qaKKKACiiigAooooAKYnQ/U/wA6fTE6H6n+dAD64TVf+QlP9V/9BFd3XCar/wAhKf6r/wCgigDwb4qf8fem/wDXRv8A0GvPSB1r0L4qY+16aD/z0b/0GvPMA9KBjuKMCmbaXA6ZoAOBxXReAU3+JLkDtAP51zmAK6LwEVXxJcknH7gfzpS2Gtz3dFuVijiiHBIySR684HUmqa6UBMRMFaIjLFzl2b37YpgmUD/WEfnTRYW2oSb5F3kcE5P+NSpFOPUfLotpLCYEjVUbjAwBTbPwza2qrGgG1BgAVYXQbALjy8n/AHm/xq1BplnbErBlS2M4Y/1qrkBPZRwhFT5RjtWddRIbWULIM7f6itCeBEeNGkZAzhS2cnBrz/XNG0sySAau0eT0IrWnSu1MUp290y/Efly3ccaOAWYd6yNe0O2uVGoQrsdh849xWLf6FZvkR6zExHTcTWc2m6ikflw61EU/u762nr0IjoYl55Fo2HbB9Kzv7SQHESljXRjRmeMl5I7m4XuhzlaDoiFR5aYOfm9qwcC+Y4i9W+viMrhR0FW9MuL+whaEx7o2PSu2fTIEj2k9O4rKuIo4gZfusOiHp9SaErCuUPtSMMyRlOe9K1wqcqN30rn9RuZJyItwJzkkVRgeaCVX3ZAPIz2qSrm/PqF0yFII9pbjJrP09r2wnMgXIbhge9dBBElxjLDyzyCOqmtSHTkcjcMY6eje9PlFcyDqMDZ8yJlI64qNNRtN3U/iK6NtGVWEijdu6qewqndWdrDnCAp/EaGguWLEwyfvcZx0p9o0Y1NmLgg4zg1zi6eLhizXkcanooPQVoQaPp6H5r9f+Agmsmi7nv3giSOPRYHDD5XmOBycbz2HNdNeR3F6m8hkCbgRjBYcDg9uprwbQbPTrC+ivLTUZVlQnaVUnGeDweK9r0a8uLnT3825eT5ivmEBW/LGKOZLQLXK/wDwiumSTx6lJb+XcDBHqpHTpwSPWq83hYXF8L4FiwUr14wTnp9az77V76znYR3EpQdG3DnH/Aabpus6zfXAi+0SAdTgjO3/AL5qPrENjT2E7XOws9CSEZbOR6Vipr91ca8dHs03wwKDK/TbmtO41m4trcOm6YvIqYHUZOCT9KzIJIp7ye9tyOvlOw7le1aqWl0ZW6M7C1GIVHuf5mu90P8A5Bqf7z/+hGvP7E5tUP1/ma9A0P8A5Bqf7z/+hGmthM1qYn3fxP8AOn0xPu/if50CH0UUUAVb3/jzm/3D/KvOV6V6Ne/8ec3+4f5V5wpqZFRJxWDB/wAjHdf9cYv/AGat0VgwH/io7v8A64xf+zVBRvGmGnE0w0CDNJmkJpM0xGVYH/iZ33++n/oIrZzWHYn/AIml9/vJ/wCgitrNMCQGnZqLNOBoAlBpaizTs0APpabmigB1LTaWgDNP/IYX/rif5itUVlH/AJDC/wDXE/zFamaAHUopuaUUCKV5/r7X/rp/Q1pVmXn+vtf+un9DWkKBlXUf+PGX6D+daEZ+RfoKztRP+hS/Qfzq6h+QfQUAWd1IXwKizTHY44oAoazrkOi6fJfSjfsHCjgsT0Fcdpfjm51KX7HqNukPnY8tkJPOehz/ADq34os5NRsJLZPvcMvuRzXG2NhcOyOqvEYyMkrjaR9eDSHY938zIwaoXC5BrA3eIoB+4nt7oDtKpjb81JH6Uja5dwrjUdPmT1eHEq/pz+lMRga9p32pWQrkEYNc9oOjOLlkuJNyW7DAxgnuMmu3/tfSLttkVwgf+4/yN+TYNVdPRReXmOm9en0pWGdChyKhtx+6/E/zoE8CyLA0iCRhkIWG4/QdaW2/1X4n+dMQrLSCF2+7VpVzV+3iXjNSykc7dafIzEsof5O4rz2/sUF7EEGCXxtNe4lYjLj/AGK4HW7SOO/gmxwJBUspFWw0YyNOX42sOB06Vl65B9nSBR/z2WuoN95dxcLEcDcD+lczr03mR25P/PdalGgxP+Pq8/3U/lU98c28H+8lQL/x83n+6v8AKpL0/uIv95aYhImxrs49UX+VLY/8hBD6Bv5moVONek/65rUlif8ATh/wL+dMRYvj+8J94/8A0KtmI/8AExh9yP51g3x+Y/WP+dbcR/4mFv7sKcdxS2PQP+WlSD/WA0w8PmpP4xWpgOXqatWv+tH41VTqatW3+uFAM1qSlNJVEsWiikoAKKWigLFK/wD+PV651fuV0d//AMejmuY3fLUsuJqaAMQz/wDXU/yrfrB0D/Uz/wDXU/yFbtUiGLSUUlAjjX++/wBTTdL/AOPY/wC8aVz87/U03S/+PY/7xrNmqNA1A9TmoH6VBRatf9SPqaqaxYDUrCS2/iPKH0YdKt2v+qH1NTt0rRbEPc8GmikhkaGUFWU4IPY1Ytby6sm32sjRkjnBr0fXNAi1PM8REc4HXs31/wAa85urG6sZPLuoyh7HsfoaYDLy8ur1hJdSNIf9o1ZGt6uFCi6kAHGM1mv0plAC3k0s37yZi7HqTyapwW8l0GhjHJHJ9B61rRaZeX6jyEOzu54UfjXV2mmwabp0wT5nYDcx+vb2pMaKYiSC1EMf3UXAqdTlT9KZJ/qz9KdGfl/CsWbI4nXOJX/3RXWWTZtY/wDcH8q5PXv9a/8AuV02nHNlH/uD+VIbPctP/wCPGD/rmv8AKrlU9P8A+PCD/rmv8quV0nMwooooAKKKKACiiigD/9L6pooooAKKKKACiiigApidD9T/ADp9MTofqf50APrhNV/5CU/1X/0EV3dcJqv/ACEp/qv/AKCKAPBPip/x+6b/AL7f+g15+OK9C+KeBeaaf9tv/Qa8+yO1CGGaaRRkUBu1ACYNdB4FDf8ACQ3OMf6kdfrWFuFdD4CCv4juc9oR/OlLYa3PWshjtx+VdZZwLDCoUc4rAjRPMXBPUV1kfTb2qYDmOEYHSoHVfvYAxVjIHPpUTqX4x71ZBXgiD3MMhHHmDr+NXdRggbdujU/gKSCPE8TE5+YVNf8A8VdFLYznued6jZWrMf3Sf98iuauNOsSDut4z/wABrsr1SGNYMqA/StWScPLp0VrOZ7eJVyMYXjisdrW5vbwWcRMXm8At0z6V3k8QxjFZZs2e7h8vht649sGpeugzmpfC2tW/ytISF9Ke3gq7uhl5GKnFe06gI1Ad8Zx7da4m916OykEYAAPc9BWbhbcpSucFN8NLSOB7i4m8pVBJJPSuC8PeH7fXdUksEl2FASmf48GvXdU/tPXrdoba7tkRxg/NzzXLaX4F1TSr6O/gv7bfGcj5qi13sUWofAV1ak+W5/Ori+GdVDiMSHHYjFdUddltELXcsEhXqI2ya0IdYinjDRjGeaqyQtzgb3wzqFhbSX1xdBQo79fpXKLDcXihFU4PUmvRfEcst3b+WOVyM/Ss20swijispO+xS0K1hp0SRKJI03DrgV0MFtCo4RR+AoihwOlXYwBUtDRqWUaKy4UflU2qSCO1Yh9hD5GDjPAqO04cVauNGGsQOr5AV/vD6CueptY2ptJ3ZjafBcXamKRMo3O4jse9dDDEtjGQgw6LgnHLCtWy0+W2sDGvHlghM96mhjExztySm1s+tZxp2NZVLnGw+aNcRCXxMCyj+Hir9ibS3mudNhJJUmYsOm5uoz6ip9a0XUbiD/iXXP2eROVwM59qqeFoY20x4JG/0hZWMpPBLd66I7GDd2dxp2fsceff+Zr0LQ/+Qan+8/8A6Ea42w066NnGyAFSCQc9g2K7fSoZLeyWKUYYM2cc/wARrVbGTNGmJ938T/On0xPu/if50APooooAq3v/AB5zf7jfyrzda9Ivv+POb/cb+VebrUyKiTCsG3/5GO6/64xf+zVuisGD/kY7r/rjF/7NUDN41GaeaYaAG0lBptMRkWJ/4ml9/vJ/6CK281h2J/4ml/8A7yf+gitnNMCQGnZqPNKDQBJmnA1HmlzQBLmlzUeaUGgB+aWmZpc0AZ5P/E3X/rif5itSskn/AIm6/wDXE/zFamaAJKBTRSg0AU7v/X2v/XT+hrRzWZef6+2/66f0NaGaAK2on/QpPoP51cQ/KPoKoaif9Ck+g/nV1D8o+lAE2aawzSA06gDPngD9ao3UG21bHt/Othqp3v8Ax7N+H86LDuPxim7iOhqG6uFhUs3YZrxqbxTrt7fyXFtOYoo3wkYHBA9fWgR67dwQXS7bmJJR/tqD/OuQi0+3jubs2rS22xxt8lyAOP7pyK6bTb06jYRXbDazj5h7jg1StYhJeXq/7a/yoA84/s/UZPErTSGSZyVaOUjsPpwMV7PakmIZ65OfzqjBbCJuKtWpxF+J/nQBorU4lxwKo76A9IaJ3mIlzn+GuY1q53BFbk7xWxK/7w/7tcjqr5ljH+2Kllrce0h+13I91/lWRrLnyIP+uyVfJ/025H+7/KszWP8Aj3i/67JUotmhEd1xd/Rf5U69P7mL/fFVoG/0i6+i/wAqmvDmGL/fFMCPP/E9f/rmtSWB/wBLz7v/ADquxxruPWJafYt/pTfV/wCdAia/b5j9Yv51vwn/AE+1/wB4VzmpH52+sX866G3P+nWn++KcdyXseiv96pT94VDL96pj95a1MRy9TVm3/wBctV1+8ant/wDXrQBrGlpKWqJCilpKCgpaSigRS1H/AI85PoK5QH5a6rUj/oUn0ri/PXzRD3Iz+tSykdHoH+pn/wCup/kK3awtB/1M3/XQ/wAhW7VIhhS0UtAJHDOfnf6mjS/+PY/7xpsh/eP9TRpZ/wBHP+8aiWxojRJqF+lSk1A54rMou2v+pH41Ox4qva/6kfjU5PFaLYh7kJoeOOVNkqh1PYjIpDUg6CgDFudA0Z+TbKD7Er/Iikh0PSYWDR26Z/2st/MmteboKaO1AFO/VUgCqAAOwrnLg/6FL+H866TUv9SK5e5P+hyD3H86TKRlufkNER4H0pGPFJF2+lZGxx+v8TN/uV0Gltmwi/3BXP8AiD/XN/uGtvSGzp0R/wBgUAz3zTv+PC3/AOua/wAquVT07/jwt/8Armv8quV0HMwooooAKKKKACiiigD/0/qmiiigAooooAKKKKACmJ0P1P8AOn0xOh+p/nQA+uE1X/kJT/Vf/QRXd1wmq/8AISn+q/8AoIoA8H+KfN5pgP8Az0b/ANBrz47a9A+KmPtemg/89G/9Brz3C00MXikOKNqUYUcUAA210ngAqPEd16eSP51zXy10XgHafEVzg8+SP51Mthrc9sjZfMUKp6iupUn7oHNctbMqyAHnkV1akntxUwHMFTByaUE9f84qTtUZB79KsgkjIMsf++Kdfd6hi4nT/fFS32cGuilsZz3OMvgMmsOVa2r5sMaxJX+X6VoxIpumRk1SkiDc1cZweKgYjGRUXHYx5oZcYDtj6mubvLb5ws7NtbOCeQD712bkHiqUyIwKtg07gc9okJjmkgdQARuB4wfxrdnCQRPJhTtUnFU1tIomLxgKT6UjW4fhu/FS/IZ53O0shJK4LN0H3j+FdJZWdwqg72H41uR6dbxHKIBV9Ywq9qz5SrlGG0JwXJOPWtOKEDoOlKpAGKkV060WC5IEHangCoTcRjqwH4037VbjgyKPxFRIaNi1PzCu60CPfazFTyJP6CvPbSeIsNrqfoRXo3hg5tp9vXzP6CsVuadC5PA3lmPOO49jVUISFR/lOM5HetudWdDsALDrnvXOXmoi2uPKlAA2/ePQE02gTPH9S8fQ3V8ljbxyw3Ecqgh+hAPb611umWtnqV8dck3xyxuV2KcJ6fMO5rE1vw3Z61qNrqOnBRPbTr5mP4hnJz9BXR2EcMfijULaJ/3QhR9oPAYnk/WmrJaCe57HpP8AyCoD/sN/6Mro4vun6n+dc5pIA0uEDpsb/wBGV0cX3T9T/OtOhBJTE+7+J/nT6Yn3fxP86QD6KKKAKt9/x5zf7jfyrzZelek33/HnN/uN/KvNl6VMiokwrn4P+Rku/wDrjF/7NW+K5+D/AJGS6/64Rf8As1SUb5phpxphpCGGkoNJTEY9kf8AiaX/APvJ/wCgitrNYdkf+Jrf/wC8n/oIrapgPBpQaYDS0ASZpaZS0APzTs1HmnZoAeDS0ylzQBnn/kLr/wBcT/MVqZrJY/8AE4T/AK4n+YrUoAkBpc1HmlzQBUuz+/tv+un9DV/NZt4f39t/10/oa0M0AVdRP+hSfQfzq6h+UfQVn6if9Ck+g/nV1D8o+goAmBp9RA0/NADDVO9/49X/AA/nV0jNVL4f6K/4fzoAyNWRjG2PSvJINIuoL2SNYyyO25SPfsa9vuIhIMGsr7CituAoAwLPRkihXMs0MvUmOTA/I5FOsYdRS6uxbXYJV1z5yBt3HcqRXReXg1Q09f8ATb3/AH1/lQAgudeh/wBZbQXA9YpCh/Js/wA6hi15II8Xdrcw8nny969fVM1uFaoxqwh4J6n+dAHJa/46g0+FBpWy4mkOMNkBR7jg11ehaqdX05Lx0Ebnh1HQEentXn/ibRp9TmjaLHmIeM8ZB967bw9ZNp1gsD43HlsdKQzblPzn/drkNTP7+L/eFdbL98/7tcfqf/HzF/vVLKW5IT/p1z/wD+VZer/8e8f/AF1X+daLH/iYXP8AwD+VZesH9wn/AF1T+dSjRliE/v7r6L/KrF0f3EP+/VGI/vrn/gP8qt3R/cQ/71MCBm/4qAD/AKYrT7Fv9Lf/AHn/AJ1A5/4n6H/piKfYn/SpP99/50CJ9TP7yT6xfzrpbXm9tP8AfFcvqR/eSfWKupsubu0Po4px3Qnsehy9fxqY/eWq8/3h9anb7y1qYEi/eNTwf8fC1XX75qaD/j5WgZtUUmaKoi4uaKKKB3CiikoEUdT4spPpXBOpa4WUOSFXGO3Wu71P/jxk+n9a4OJSpbPduKmSKi9DrNAJMU+f+ep/kK6CsLQR+5m/66H+QreqkJoKKKKAOBl/1j/7xp2mf8e5/wB40yX/AFj/AO8aXS/+Pc/7xqJFI0TUD9KlJqBzWZZftf8AUipzVe1/1A/GpzWi2I6kRqRegqM1KvQUART9BTB0FOn6Cmr0FAFTU+IRXK3J/wBFf6j+ddTqn+ozXJ3B/wBHI/2hSZUTOaiM8ikbvSR9RWRscl4i/wBaf9w1q6Gc6ZCf9isvxH/rT/uGr+gt/wASuH/do6Az6H07/kH2/wD1zX+Qq5VLTv8AkH2//XNf5CrtdBzBRRRQAUUUUAFFFFAH/9T6pooooAKKKKACiiigApidD9T/ADp9MTofqf50APrhNV/5CU/1X/0EV3dcJqv/ACEp/qv/AKCKAPBvinze6aP9tv8A0GvPdpr0P4p4+16Z/wBdG/8AQa8+xTQxNppNop9JigBm0V0PgABfElz/ANcR/OsDArf8CZ/4SK5I/wCeI/nUy2Gtz2yEZkU89RXXgHFcTCW81T7iu5UA96mA5jkXKk0FQQB1xRnHA71BdyrBbSSucBVJzWiV9CDJ1XW7DSGV53ywYHYvJ4ridR+JcW4rBaE/7xx/KuPv7wXCy3LnIVtif7TdzXLXTCGPdJ949q7FBRVjFu7OlvPH1zKxzbIB2+Y1iSeNbg5U26/ma5OY5bcaquMt1rOTKSOsPjGdh/qAPxqI+MrnOBAPzrk2B+73pmOcmouUdUfF92ekA/OoH8UXrc+Wv51zxHy0q4NK7A2/+EkvR/Av51IPE12CN0YOfQ1z5AxRuBFFwNqbxPqGcRqqgd+tUG8S6q3/AC0AHsKqHDiomiQ9KTuMttrWouOZ2/DiozqF44wZ3/OqnlKaTycd6WoySSaZxy7H8arnLD7x/OnFCM4NMAOealgizFLNDh4XbcO2f5V6N4N+Jl1ocjWuooZ4HOT/AH17ceteaiMkfKeRSPGJcB/kcdGH9ago+47G7ttStEvbVw8UqhlI9DWDrmkLfRsoOHOdreh965X4SXMs3hXyZmyYJGQ+2TmvSJkLYReQ38qAR5Ho9teaZqGwgqC21we7f3h7GnWcMNt4vvo7NSWliUyN6ZNekTWqbwpTe0Z4PtXE3MssHiWNIEGLhdshxzgcikUeu6SCulQA9Qjf+jK6OL7p+p/nXOaT/wAguH/cb/0ZXRxfdP1P860Wxm9ySmJ938T/ADp9MT7v4n+dIB9FFFAFW+/485v9xv5V5qvSvSr7/jzm/wBxv5V5otRIqJMKwIP+Rkuv+uMX/s1bwrAg/wCRkuv+uMX/ALNUlG8ajNSGojQIaabmlNNoEY1if+Jrf/7yf+gitusOxP8AxNb/AP3k/wDQRW1mmA6nZpmaXNMB+aWmA06gB1OpmaXNAD6dmo80tAGcx/4nCf8AXE/zFatZDH/icJ/1xP8AMVq0APzS5pmaWgCnd/6+2/66f0NX81m3Z/fW3/XT+hrQzQBV1A/6HJ9B/OriH5R9BVHUD/oUn0H86uIflH0FAEwNSA1CDUgoAkqpfD/RX/D+dXBVW/8A+PV/w/nQA9gMVWYCrTdKrPQBVfrWVp3/AB+33++v8qvXEqR5ZzhQMkntXM6Frml32pXcNtNvZ2BXgjcFHOM0AdjVOIfuvxP86tZqrD/q/wAT/OgCu8Cs24irMQ28U4ilXrSGJJ9//gNchqZ/0mL/AHq66T75/wB2uO1M/wClR/WpZS3Hsf8AiYXP0T+VZOsH9wn/AF1T+daZP/ExuPon8qy9aOIE95U/nUo0HxH97c/Vf5VduObeI/7VZ8R/e3P1H8q0JebZPZqYFJz/AMT1P+uQp9gc3Uh/22/nULHOur/1yFP08/6Q/wDvN/OgRPqJ/eS/70VdZp/N3a/7wrkdQP7yb/firrdO/wCPu0/36a3E9j0K46j61O33lqvcdR9amb7y1qYkin94fpViH/j5Sqq/6z8KsQ/8fKUAbVKKSiqMx1JSUUBcWkopaAM/U/8Ajxl+lcUBxmu21T/jxl+lcSvSkyonUaD/AKmb/rof5Ct6sHQf9TN/10P8hW9TQMKWkFOpDPPZv9Y/+8aXTP8Aj3P+8abPjzH/AN40umf8e5/3jUy2KRoGoH6VOarvWZRoWn+oX8asHpVe1/1C/jU7dKtEvcjNPXpUZqRelMCKfoKaOgp0/amDoKQFTVP+PeuQuP8AU/8AAhXXap/x71x1wf3YH+1Qxx3KTHk01fvCkY8mmg/MKyNjmfEX+t/4CataAf8AiWRfQ1V8Qj95/wABNS+HGzpsftmhbAfR+m/8g+3/AOua/wAqu1S03/kH2/8A1zX+Qq7XQcwUUUUAFFFFABRRRQB//9X6pooooAKKKKACiiigApidD9T/ADp9MTofqf50APrhNV/5CU/1X/0EV3dcJqv/ACEp/qv/AKCKAPB/ioM3emZ/56N/6DXnuPQ16D8Uz/pum/77f+g15+KaGNKn1oxjvTvrSUAN2jrmuk8AEDxJc8Z/cD+dc3g1v+BGK+Irn5sfuR/OlLYa3PcYn/erhe4rsgvTjjvXBxSS+agznkV3qEY571EBzHlN3NY2vxTNpF0kXLGMgD3rYyBwKzNZufsel3F0P4EJ5rWG6Iex87SYtLJPPPMa5we7Hk1zyu92GuH4Hb3p+t3TXN2LZDkE4q7cwi1t1tujY5Fdj1Zijm7k88VROTzVqcHfjqKqudvWsJFojBNIzEjNSEr6U1gvU1IyMFuppN5p+Vxn0ppx6UhkZc4xigNinHFKORigYgLE5FBLAcCnilJ4pAQgkcgUhY9akyByaT5TQBCSSKZk4+lPPJOOKjH3sVLAsQMwOQeamuY/k89OmfmX096WCEMu7NW1KfNG/Rhg5qCj1T4Q6tIs17pbMChVZUXvu6Gvd4tx2s/foPSvl34UAp43jhJ+7DLn36V9VhASQBzTAjfCnP5+9cb5lvLqpkYFXAwpx6V3GwqpB5GK4D7XJDI5QdzzipvZjtc9P01g+mxMvQo3/oyugi+6fqf51zGiuDo9uxPWNv8A0ZXTxfdP1P8AOtOhHUkpifd/E/zp9MT7v4n+dIB9FFFAFW+/485v9xv5V5mtemX3/HnN/uN/KvMRUSKiTCsGD/kZLr/rjF/7NW4DWFAf+Kjuv+uMX/s1SUbxqM081GaBDabSmm5oAxrE/wDE1v8A/eT/ANBFbNYlif8Aia3/APvJ/wCgitqmIdS0zNOzQA/NOqPNLmmA/NLTM0uaAH5pc0yloAzmP/E4T/rif5itXNZDH/icJ/1xb+YrVzQA/NLmo6XNAFO7/wBfbf8AXT+hrQzWbeH9/bf9dP6Gr+aAKuo/8eUn0H86uoflH0FUNR/48pPoP51dT7o+lAEwqVTUANSrQBYFVb//AI9X/D+dWRVW/wD+PVvw/nSAkaqz9KstVZ6YHEeJvOewnhi+8yEDFcF4Tti93bNEMPG3zeo9c163eWyzdRUFpZpb8qoBPUgUAa+arwf6v8T/ADqUVBB/q/xP86AJs0oPNNNKtSMZKfnP+7XGakf9Lj+tdlKfmP8Au1xWon/TE/Gky1uPJ/4mFx/up/KszW/+PeP/AK6p/Or7H/T5/wDdT+VZ+t/8e8f/AF1T+dSixYj+8uf94fyrRf8A491+orMhPzXJ/wBv+labH/R1HvTAzz/yHR/1yWl0zmZz/tP/ADphP/E9P/XJaXS/vv8A7zfzoET3/Mk3/XSL+Vdfpp/0u0/36428OZZ/+usf8q6/TT/pln/v01uJ7Hos/b61K/31qGbqPrUj/eX61qYkgP7w/Sp4T/pKfWqqn94fpViA/wCkx/WgDfpKdSVRmJRS4oxQAUUUtAGfqn/HjJ9K4heldvqn/HjL9K4henFSy0dToP8AqZv+uh/kK3hWFoH+pm/66H+QrfFMBKWiigDzuf8A1sn+8aXS/wDj3P8AvGmz/wCtk/3jTtP+WN1ByA1RLYpF81A/SpjUD1BRo2v+oWp2qC1/1C1O3SrRJHUidKjp6dKYEU/ao89Kkn7VCeopAVtU/wCPauKuD8qD/a/pXaap/wAetcJcHLRj60mVHcgJ5NJnkUhPP4U3PSszUwPEH3s/7JpPDZ/4lyj3NLr/AFB/2T/KovDTf6AP940LYGfS+m/8g+3/AOuSfyFXapab/wAg+3/65J/IVdroOYKKKKACiiigAooooA//1vqmiiigAooooAKKKKACmJ0P1P8AOn0xOh+p/nQA+uE1X/kJT/Vf/QRXd1wmq/8AISn+q/8AoIoA8G+Kf/H7ppP99v8A0GuAyuK9B+KQBvNM/wCujf8AoNcBgCmMjyKMrTsCkIFAC5Wt7wLhvEVyAM/uR/OsAAd66PwAufEd1t/54j+dKWw1uevRRETKzZ+8K74H5eOfSuMjV/MXJ7iuuiJHGaiA5k6hgQa4X4hXEtvogVOBJKqsfb0/Gu7UscFutec/E8PJoUMKH5nuE+gAzmtqfxIzlseI6RbrLfTalMPkh6A927U65dpt88hq1FFvt1t4Dtt0OXkPG5j6etVbqSPyzDEPlHc966+hkc5Oe4qnweT1q7cDk45+lUdhxyawkWgGegoKk8Uqrt5oJyeKmwyIhu1MP3cd6lOAfmIH1NMMkCn5mFIY0BsY7U0bgc0jXMQ6HP0FRm5Q9FY/hQBMCSeak6VX+08cRsfwqMyyn7sZ/GkMtbsH1ppyTxUAkuCf9WPzqQPPnlB+dACkgD5qhJyc1IRK33lA/GoiuOtSwLMDsh3CtGMpPxKAAxwCeOTUGmWj3tytvHgEg9enFXNHsU1TxjZ2h+aD7QkZx046/rWZR7F4N+Hmp+HNat9ckkWRmVkkjH8KvjBB74717srKrbepNCxhECL2GM0wk9u3eqAdIVKEd681licyNkdz/OvSAwZTjnAriXJWRsYPJrORUTutGjU6PbB1B2oxGR0PmV1MX3T9T/Ouc0nnSoM/882/9GV0cX3T9T/Otehm9ySmJ938T/On0xPu/if50APooooAq33/AB5zf7jfyry9TXqF9/x5Tf7jfyry5elRMqJMKwYP+Rjuv+uMX/s1bgrBgP8AxUd1/wBcYv8A2apKOgNRmnUw0ANNNoNNoEYtl/yFb/8A3k/9BFbWaxbL/kK3/wDvJ/6CK2aYDs0uaZS0CH5p2ajzTs0APzRmm5pRQA/NLmmUuaYGa3/IZT/rif5itWshj/xOE/64n+YrVzQA7NLmmZpaAKV5/r7b/rp/Q1oZrNuz++tv+un9DWhmgCrqB/0KT6D+dXEPyD6CqOof8ecn0H86uJ9wfQUATg1KpqAVMtAFgGqt8f8ARm/D+dWBVa+/49n/AA/nSAlaoGqVjUJNMCBlBqPaBUxqM0AMqCD/AFX4n+dTk1WgP7v8T/OkMmNKpphpwNIZHMfmP+7XF6gf9NX6H+ddlMfnP+7XF6h/x+j/AHf60mUhrn/T5/8AdSqWtf8AHvH/ANdU/nViRv8ATpv91Kr6xzbp/wBdE/nUosbEcG5/3/6VpMf3S1lxn/j4/wB+tIn5FpgUf+Y2x/6ZLS6Sclj/ALTfzpmf+Jy5/wCma03RzlWP+0386AJ7pv3k/wD12T+Vdjph/wBLs/8Afrh7tv3k3vOn8q7XSz/pVp/vmmiXsejynkD3qRz861XkPzj61LIfmX61oYjwf3p+lWIT/pMf1qsp/ffhUyOqTo7HAB5oA6aiqX9oWf8Az0FJ/aNn/wA9KsmxeorPOp2Q/jpp1ayH8f6UXCxpUVknWrIdz+VMOvWXbJpXHYs6oP8AQJfpXDL0/GukvdYt7i2eJAcsOprmQ6DhmA/Gkxo6bSLmC2ilE7bSz5HuMVrHVbIfx/pXBmWDu6/99f8A16Z59r/fT/voUXCx3h1iyH8R/Ko21uzHTJriftNsP+Wif99Cmm6tB1lj/MUXCxZlcO7sOhJpNJL/AGdt+PvHGPSqpu7XHEqfmKuaXg25I7sal7DRoGoW6VK1Qv0qCjStv9QtTGobX/ULUpqyWNpydKYaenSmBFN1FRHtUk3UVGeopAVNV/49DXBSHLL+Nd5q5xZE1wDEHmlIqO5CTz+dNJ6UhPzD8aZngVBqY+v9E+h/lVbw0f8AQf8AgbVa14fIh9j/ACqh4ab/AEJh/tmkgPqDTf8AkH2//XJP5CrtUtN/5B1v/wBck/kKu10HMwooooAKKKKACiiigD//1/qmiiigAooooAKKKKACmJ0P1P8AOn0xOh+p/nQA+uE1X/kJT/Vf/QRXd1wmq/8AISn+q/8AoIoA8H+KQ/0zTc/32/8AQa8+2r616D8Uxm800f7bf+g157tPWmhi7V9aTaKUA4pNuaADC10PgMgeI7nGc+SP51zuwetdF4BXHiO5wf8AliP50pbDW57Vbp5kgJJ4Irq4wwOT2rlIdwlXGeorrVOMZ9aiA5lkyCMAt0Ncv4u0G48RWUNtasoCyq7biR8o6gYFdU5UJubvWWb1rabbjcpPPtWidncm1zwzWtP1CyJtfs37uM4XGQOO445rkJ+EyUYNjkEDg19NXWiQaxdx389wzRRD5IhwoJ659axdY8GaJeK2YzEf7yHFdikpK5g1Zny5cSSg7tmKotLIeelezX/w7jjfdZXjr7MAa5y68F6jGOHjk/DBrJxZaZ5wZJTwWpoZsYLV2MvhDVFGRGp+hrS8L6RNpOsx32rWnnQRhiYyA4YkYwQahplXPPQyH7yg/WpB5SnJQc17T4iv9E1GxlSx0dbaVkO0iIbw2SOCDjGOen415C+l3i8vE4/A0tQKyvDz8vFKskY7GnCxuATmN/8Avk09bKYf8s3/AO+TQAwyxehpnmJyNtS/Y5+nlv8A98mmGxuif9U//fJoAiMuDwoFNLOfmJq8NKvnxshc/hVtfDurSgAQMPypDMMtkj1pjnnArp4/COrOwBRVHqTWtF4LYYM8uD6KKTQI4uzedZMwHaSCpb2PWu28Iww2+v6WkXX7VHk9zzWjB4NgJyJW4B49a63wJa6RYa8NM1eBBd4E1tMxIye6jtkVle7KPeyKY6lvu8A1Ifam9famBAwIU46niuIdZN7HHc13Wc7scnFcTJNh2ye57VMionfaRn+yoM9fLb/0ZXSRfdP1P865zSTu0qBvVG/9GV0cX3T9T/OtVsZklMT7v4n+dPpifd/E/wA6QD6KKKAKt9/x5Tf7jfyryxelep33/HlN/uN/KvKlPFRMqJMDWDB/yMd1/wBcYv8A2atwGsKDnxFdf9cYv/Zqko38000Gmk0ANJplKTTc0CMeyP8AxNb7/eT/ANBFbGaxbI/8TW//AN5P/QRWvmmA/NLmos0bqQibNOBqDdS76YE+aXNQBqduoAmzRmot1LuoAoMf+Jwn/XE/zFalYzN/xN1/64n+dam+mBNmjNRbqN1AFa8P762/66f0NaGaybx/39r/ANdP6GtDdQBDqB/0KT6D+dXUPyD6Cs3UG/0KT6D+dXEb5R9BQBbBqVTVQNUytSAuA1Vvj/or/h/OpA9VL9v9Ff8AD+dAy0xqE0rNxUJcUCAmoyaQtUTPQA8mqsB/dD6n+dPZwKrW7/uvxP8AOgZbzTgahzmng0hkc5+c/wC7XGXx/wBM/wCA/wBa6+c/Of8Adrjb3/j9P+7SKRA7f6fL/uJUOsH/AEdP+uifzoZv9Pl/3FqLV2zbr/10T+dSWEZ/4+P+ulaeflH4VjxNzP8A9dK1M/KKYFPP/E2k/wCua0zRj+7b/eb+dJuxq0n/AFzX+VM0U/uj/vH+dAhbtvnm/wCvhP5V3ek83Np/vmvPrpvmm/6+Vrv9GObi1/3zTQnsehyH94PrU0n3l+tV5D+8H1qeX7y/WtDIcv8Arvwon5FNU/vvwqxGf9IjP+0KAMtif7hP4H/CkO4jOxv++T/hXfZozVWJuef4f/nm3/fJ/wAKaQ/Xy3/75P8AhXoWaM0WC55yRKf+WUh/4A3+FMxL/wA8Zf8Av23+Fek5ozRYLnm370fehkUepRgPzIrOu7a0Zw8yAs5CjjJJ7CvSdV/5B8v0H864KRd09uPSZD+tJoaKw0dR/wAukn/fs07+ycdLOT/v2a9VzRmjlC55aNLfP/HnJ/37NP8A7Nk7WUv/AH7r0/NGaOUVzy9rGSMbpLWSNf7zJgCtGzAWMgetdXrXOnv9R/OuVtfuH60pLQpFk1A/SpjUL9KyKNK2/wBStSmobb/UrUtaEsQ05OlNNKvSgCGU/MKQjpRL98UpoAz9Z/48Wrz3OeDXoOtf8eD15yDSkXHcaT8y/WmA8UpPK/Wm9yPeoNDL1z/UofY/yrM8Mn/RXHo5rU1rm1Q/Wsfw0cQSj/bNJAfVOm/8g62/65J/IVdqjpn/ACDrb/rkn8hV6ug5mFFFFABRRRQAUUUUAf/Q+qaKKKACiiigAooooAKYnQ/U/wA6fTE6H6n+dAD64TVf+QlP9V/9BFd3XCar/wAhKf6r/wCgigDwf4pD/TNNP/TRv/Qa4DFd/wDFME3emf8AXRv/AEGuA2n1poYc4oxTSG7GgA+tMBSBW/4EIHiO5z/zxH8654r3JrovAMe7xHcjP/LAfzqZbDW57NC6+aoxnkV1oYjg1ykUIEilm6EV1C/Mc5qIDmWpnURrv/OuduX/AH4kjPCn5jXSMEki2nkVlX8dpBaSPMo8pVJftwBVko5U+JFtbtodGR9RuG5eKIZRf95ugrt7yXzIY5CuxnUMV7qT2ryzwL480QQzRzxx2QaUrERgAr/DnuDXo08wlPnIwdW5BByCK6YJR2MpO+5gXQY5rPMe4ZNa95crE4Z03RngkdV965yTWtNt7pbO6kEbucI38LDt9DQ5DSLHlD0qNoAe1bQhRhkUGBSKQGB9mXsKjNmrHpW75QHWk8tetAGJ9hiHO0U37FFnlR+VbwjQ+lL5AA6UAc82nxf3f0pRYREAkVtv5CAsXAx1pFSN13A8dqLAZC2ca9qd9nA6CtNVTPrUgRCccUhmIYPaontS3ata+u7LTofOu3CLjIz1P0FJbTpdQ+cU8uIjILcE/hUtXGihb25i+ZvwrjPG0dpa28WpzyFJEYCPafm3DoV71s6t4v0nTI5I45BNPGMhB0z9a8uv5tS8TaxpdtOR508ilU6KAx4/QVhy63LufWvh6ee70KyurrPnSQoz54OSK1Nu7GaWJPLiVAMbQBx7U4rk5pgREbQ1cUzp5jZA6mu4ZRtIPeuGaAeY2WPU1nIqJ6BpWDpcOP7jf+jK6KL7p+p/nXOaSANKgA/uN/6Mro4vun6n+darYze5JTE+7+J/nT6Yn3fxP86AH0UUUAVL/wD48p/+ubfyrypT0r1W/wD+PKf/AK5t/KvJ1PFRIuJMKwoD/wAVHdf9cYv/AGatrNYUH/Ix3X/XGL/2apGdBmmk0ZphNACE0wmlJqMmgRj2Zxql9/vJ/wCgitUtWLaN/wATO+/3k/8AQRV95cUwLJeozKM1lXN6kCF2PAFca/jS2U/OjZPRR6fWgR6L5w9acJRXP6Je22s2zXAkeMocFcA/jmtt7SFY2dJnJUZ5Ap2AsCX3pwlHrVYW1uVB86Tn/d/wpqRW3mPG7yZXB+8BwfwosBc80Unmj1qs8VqgVt0hycEFv/rU8w2ZU7d+ccfMTRYCq0o/tVT/ANMj/OtDzh61Vjh05ws5jO8jGdx6fnREtlvdHTO08ZY9PzosBaMwo89fWq5WySfYYhtYZGSf8adIbNGQpEuCcEUWArXc6ma25H+s/oav/aUH8QqOWS1WNZRDGNrDsOhqSSeDyyyxoCvPQUAU765RrOQBh0Hf3q2l1HsHzDoKdJdoIGZUXjBGAKmN7mEsAoI+YcUAItwp6GrCSsegJ+gNS/2k3lBuAVwRWkNUcIr8ZUj9aQFAGY9I3/75NQ3cd3JbsqQSMTjgKfWumOqPmNwe+D+NTNqbrIDnqKBnLNHeYz5Mn/fJqs63QG7yZMf7prpJdTZZWGeDzWNJeuVZdxxzQBmt9pBwYXyfaoibnJHlPkdeKkkvGYD5ulVmu2MoOeopiGt9qIB8psH1pkCXEa7JVwRk4yO9NNw2xlz3rLuJm81hnqBQBsW97bXEzwROGkj+8vcVfBr598S6jc6fqEzwO6bmAOxsdq5g+I79h80kp+shpNDufT1w6hySR931rjL2VftpwQfl7GvDG1q7YfNuP1Ymun8NXckwld+OcdaTRUXqd80gF859UWodUfNuPaRP51VlkIuc+qrSag+bb/gafzqTQnjfmf8A66Vr7vkWufjbm4/362FbMaUCKxb/AIm0v/XNf5U3RW/cn6n+dMY/8TWX/rmP5UzRD+5P1/rTAbctzL/19CvRtDOZrc/7VeZznIkP/T0K9K0I5lt/96gT2PQZP9Yv1qxL1X61UlP7xfrVqXt9a0MhVP778KnU4njP+0Kqqf3w+lT5xNH/ALwoBnVb6N/1qHI65NOBHrWtkY2ZJvpjShR600nH8VM3Fj8pBp6C1Heee4qUSA96jwx7Cm/MOMU7IV2V9UbNhL9B/OuI6zQH0lT+ddlqTH7FICO39a49f9ZEf+mifzrOS1NYvQ9E30F6hD1DPcJDEXZgvYE+p6VfKZ3Kmn6vbXkr2sBLNCSJD2B9M1r7646O7ttMdEaWFD8zyBmClmPpn+dbdlqVtqMYeAgg5wQcg464IrWpT6paGcanS5JrDZ0+T8P51y1p9w/WtzV7iFIjas2JHG4D2BrDtfuH61zVFY6KbuWTUL1IaiesDU0bY/uV+lTGoLb/AFK/SpjWhLClXpSdqB0oAgkPz08mopD89PzQBna3/wAg9685HSvRdc/5B715wDx+FKRcBrHp9aCfmamMflpSfm+oqDQz9Z/48lPvWF4bP7qb/frd1fmwH1rA8OH5Jx/tUkB9XaZ/yDrb/rkn8hV6qOl/8g22/wCuSf8AoIq9XQcwUUUUAFFFFABRRRQB/9H6pooooAKKKKACiiigApidD9T/ADp9MTofqf50APrhNV/5CU/1X/0EV3dcJqv/ACEp/qv/AKCKAPB/imf9M00f9NG/9BrgK774pY+3abn++3/oNcF8p4poYU00cUoxTAbzit/wGQPEVyW/54j+dYeRW34H58Q3O0gfuR/OplsNbntMTxGRcseorp4FaQsCBnOM1xqOPMHHQ1fsdTSFWhL7vmbnuCTUQHNHaIgVcVR1Cys9St5LC8XfDMNrrkjI+oqSGU+WCTlSODVC9kdSNp68596puxKR5/c/BfwjPcGaP7RCD/Aj8fqCa67SvA+m6Tb/AGOC4uXi/uu+f161PDrLP5cIG5icMR2rbW8CNsU7/WmpjcTlr3wP4dckmKTceSfOk/8AiqhXw5YacQsUCNbMOrjeVPbls1091Pvk3R8oMZqeNs5ikA2sOB60XFY80jmefUFgVynzkDHTj2rs7Gwkdm+3sOPuL0yPwqxBo1va3b3iKNznof4fpV5UUzEscinzMLESWFqpJRAp6ckmrfkxhdrKvGOcDmgnGQPwNSuuYOQSc5xSuwsYmp3cVsdscalh1UAZrzzV7ydf3kkpg3Hhc1teJJne8Ec5+zgAEPn73oK8f1q31xpw9yrEMSARyCB0xScmhpHuHgCb7fpc09zsndZiu8qM8V3Jht/+eaZ9MCvOfhXC8Ogz+YCHaY5+tekFexH40JsVhPIgH/LJB/wEUzybfdlY1PqNoqTaQvy9B2pfbGM07sDntd8K6frzRSTu8LwhgrRYBw3UcgivN9X+E15ez+da63cRqowqP838sD9K9sBwMdSKQA9T+NF2Fj5nk+HHj2yR2iNrdoudoYfMw/L+tWPB/hHxJP4wttT8Q2DWsdupdSMbdyfdHBNfSnaj60XAQdM0UHPamHOetIY5gNh+hrzaUne3zHqf516S/EZHtXnElpueQI2WGWx+NQ1cqLOq03UriOxiiXGFBUZHON2a7fS53ubNZpMbizdPZjXm+nZFnHn3/ma9C0P/AJBqf7z/APoRrRbGbNamJ938T/On0xPu/if50APooooAz9Xl8nSrubGfLhkbHrhScV8yf8Jzc4+Wy/NxX0p4gYroOoMOotZj+SGvg46vejaBtGcdvX8amRSPWz441E/ctIx9XP8AhVBfFOpLeyX6QRB5EVCCxIG3Pt715m+qX2cBwOQPuimSajfbgBKQOOwqbDuerN4y1w9I4B+DH+tRHxdrx7wD/gDf415W97ebgPNbGR3pj3Nz5gHmvyfU+lFguepnxRrzf8tIh9EP+NQt4j1xutwo+iD/ABry9pJjKAXbr6n0pgJMvJJ4Pf3osFz0b+19REjyi62tIQWICjOBiq8mr3rff1BvwKivP1Ay+fSkUDa31FAHRarqcqwblvnck4xvB/kKzmckoepIrAuv9VH/AL1bWfufSqQj1XwU5XTbkr13V16XBMbA4+6a43wax/su6PvXRxsSjHOeDQBoQ3BMa/QUx5P9MZv9haowSMI17cVIZD9rHvGP50gLs8x8nJ7Mv86mSXgZrOnbMDfUfzqeM8CmAW85MQX0yOakEh+0P7gH9KoW7YUj3P8AOpiT9oJH90UAWZZD50ZPoadPIdikf3hVORwJI8n1qSV98PygkAg+g4+tICWaX/R3/CnCQmJv901lzzK48pn2qeuOT+dcjceKbmyvGtniEkWMbuhx6/Wi47HoolDQsP8AZNOjc+SQD/DXNWev6dcR43FCRjBFa8NzbsmFlU8euKLhys1Ekb7P1/hq2kx8kk+grNgV2QRjbkr/AHhir8ccccflzSqhI7ZNJtD5WaXnZRSP7wqeWbDpg9c96qxTaWoAeR3xzgYA4q4dY09eLWNNy9z8xB/WockUosqTu3mncCMDByMfzqgZGy3fmuN1HxTeWniadYpSNwQkHoePSugj8UxTJ/pMUbN3+XH8qOYOQlZ+Peq7NhxzjrTTrOmklmt8j2Jx+VVbjV7faTahV9eMGq5hcjLe84bgn3rNmctIWJGDgYHUYrLudWYLukk2rjqTgVnWet2F1L5EMokfPYHH500waSOG8Y838gH98fyriyMV2Xi47rx8dd4/lXFkHPqTVEHfaN4EudV0U6zcXcdmjNiISDO8Dq3ByAPpVzTdC1TRYRJfRbY53PlurBlbH0PH0PNctYaRrkmo22nCCZZWKuiMDgL13YPGMc16v4gkunMBk1G1uoNx8uOBfLZTjDFlHvUN9C4oypT/AKQv+6tLfn/Rj/vp/OoZDmdf91ak1D/j2z/tp/OkWCN/x8f79a0bfKgrHTrP/v1oxtwtAEcjf8TWX/rmP5UmiH90Pr/Wo5D/AMTWb/rmP5Umin92v1oERSN8kn/X1Xpvh8/vYPrXlzn92/8A19GvT/Dx/ewfWgHsd/Kf3i/UVdmPSqEx+cfWrs3QVoZCA/vh9KmP+tT6iq4P74fSpJX2FXPY5oA6IsI0MzEntUMkxG0jjNZkmqRSwGIAgnFNe8jdUA6r1rREmkWkdQFJJ9qWNZkYtJwD6VTjukAPzY9vWp1uhkHcMfjQM1VAP8VITjO05rPN0DwCPzrAv/E0Gm6jFZSI7+djBTn8+1aQjKTtExkoxV5G7fyO1nIrEHj0rkLiUwQGYdUZW/I1tDWLbVLeZbbcCn3gwwawdQ4sZD9KmcWppNDg7wbTO003UDe2S3UihWbPyj2qvqswe12JkNvXqPeotA/5BcR9cn9asarsNrh+m9f5102SqWXc4+duGp5V4utftOqp5mRGsfzEDJrrvBapY6VbxckAP/OuO8XtO2q7bSRFZEG4Nx16H0rsfBpZLC3hlZWkVX3bTnqeK7aq/coxhNe0aRNrki3Gq2+3I2Rk8jHrT7X7h+tLrj7NVgCgfMhU/qaS2+6frXlYr7PoehhXfm9SwahfpUpqF+lcZ1mjbf6lfpUxqG3/ANSv0qY1oQHahaQ9KQUAV5Pv0/NRyffp3pQBQ1v/AJB7/SvNz0x7V6PrX/IPk+leak/ypSLgMb7ppxP3T6ikPIIpgPyKazZoVNV/5B59iK57w6f+Pge9dDqfOnP7Efzrm/Dx+e4HvQgPrPS/+Qba/wDXJP8A0EVfqhpX/IMtf+uKf+gir9dBzBRRRQAUUUUAFFFFAH//0vqmiiigAooooAKKKKACmJ0P1P8AOn0xOh+p/nQA+uE1X/kJT/Vf/QRXd1weqn/iZT/Vf/QRQB5b4z8LzeJJoGt7hbdrZicspYHI9q47/hXOrj/mIxf9+W/xr1m6kZblwDxx29qgM7dS2B9DWbk7miirHln/AArrVv8AoJRf9+m/xpP+Fdar/wBBKL/v0f8AGvVxI3fmnebjrRzsfKjyU/DrVR/zEov+/R/xrc8N+DZ9Bvpb+5uluDImzCoVx+ea75pAQMU0yZ+8KTk2CiRqE3DGetc5AyySyITsdZDn6Zrpg4zwvArn4rZpJpMDaS5yacAZ2NnLLIkagjj07ir19F5iBQccc/SsnT45oJAkmBkcHtW7OAY8ng4/OqlsStzjJHS2jSOAhSz/ADP/AIVaiuGjuN0R3dsD3rmb53kme2lBSNjw3ow6Yq5p0NzIyRWqlmBw3+Jrn5tTo5dNTtoVaVG8s5OegreiiAjVpB8wrP06zaygCscueWb1NbC8rXRFdznkyBx83yikWMK4IGc9alxlvpSsCGDLVEjQArdM05s7aUpvGelR5GMA9KAOd1vR7XUSLmUZeNSoB6c1h39pbwaSk86ZMRwc9hXZzojKVbnvisnULCPUrYW7HaqH5l9am5RT8CxxR6bMIM7WlLZPvXa4rH0HT49OtXgi+7vyPpW1TExMDGaYOnHen4HejAHAoEMVcU7indqT6UgCilpaYCUmOaMjvRnNIBrj5T9K8+l1SwtZ10yQHz7hjgjsOvNegTMEiZvQGvMriGyu9ZS5wDNGuXPop6U47jOks1C26gds/wAzXfaH/wAg1P8Aef8A9CNcFaY8hcep/ma73Q/+Qan+8/8A6EaaJZrUxPu/if50+mJ938T/ADoAfRRRQBjeIv8AkX9S/wCvSb/0A1+fx6r9Vr9AfEf/ACL2pf8AXpN/6LNfn6Tyv1WpY0SP98fUUsv3h+FbWj+Gte8R3K2+kWxkych3+SP5eo3njPsOaZr/AId1rw/eCz1eDy3wDlSHXH+8P5GpKMh/vj6ikf8A1q/X+lOlCqygdeM01v8AWD6j+VAMCf3o+p/lSL/rfwNB/wBaPqf5Uin97+B/nTEC9W+lIvRvqKQHlvpSKeG+ooApXR/dR/71biEfIfasK6OY0H+1W0MBUz6UwPUvB7Z0q6A9a3Y3IQ/Q1zXg5/8AiWXP1rWebCnnsaAOQ1+S+triOa3mKK47dsdcVJp/ia7UqLgiTAxluv50usOs1oYmHIwQfeuMjlEbYPapZSPVodehnUrInynrgmtBNZsxyQw/HNeXxTvng8VaSdjkkmkVZHpEV7Y7seaSpyewxmpJLy3UF1HmEdck5x9DXnJuUVMjqvX0NYMXiDUo5m8zGxQT8g529utOzFoj1dtVJOI8AfSq76jK2fnry0a/qrfvIBHKo9ByPqvWraa9dCNTOqozc4xkAe9LlDnR6DFMXk561xOtD96XB5BNTQ6pqYUTKsSp6tnn6d8+xrJlu5LiZsttzzhgMn6L1ppCch1pcEcr1Fap1ZYAPOkC8fU/kOaw3jBiEm7bG3SRuhx2CevrUAsDERKEw7/6ts7s+5H8Ip2FzG1c+MDY7VhSR364J2gfzNWdB8SajqN7LPeO20r8iZ+VcelcdPBJGTJMwmGfmduVz6L61e0Vbhr/APdRSMrKeME4+uOBRbQFJ3PUl1cquCe/rXn2u3ctrqou7WR0EnzEoxB3Y9RXYQaLqc6xl4/KSY4UuetZHi3QBa6OzgiSRZNu4Hjpnj+VTFalSehwkt/qU9x9qa7aSQ8ZbkgCtmPW9SjQLK+6RhxtK8D3B6mk8LHSrmB7TV7QTlclHVsPk9OQc4Feiw+EvDkxeaFpJo41DSAvhtx/hAYGqsQmziodV1Yx/fLO7BVGwKcdzjnNWRqFyDIpfcQR0xnHQ+hrv4fDGioVGHHlrukDMR5Y9NrEc/Q1gXsPhO1GUjNxIzDaN7FVXPcnnP40WHdnHWlvNqhlihEk0q5GMFv5/wCNa2naPPouo2/nhVaZGYhTn6Z9K9VhjijhxZxLGs2I4Qo+Ur/EQfX61xPicMmqWV4mQoYxjPHC8c+lMRw3iwk3j/74/lXIjg5B5GK63xV/x9OP9sfyrlUXecfSgDqNU8WanqotlQmFreAQ7lY7nA7sa7jwjq+iW2jS6PrFjuMr7xcxjMoOM9eT1/CvKII1WUK3I4rudGs7i8aG3sYmllZjhUGTUNFx2NiYp9ozHnbxjd1x2zUl8+60+jp/OptQ0++sLxYL2F4XKqcOMcVBdD/RW/31/nSLEU8z/wC/V+I/dqgB/r/9+r8fG2gRXlP/ABNZz/sD+VGiHMaf71MlP/E0uP8AcH8qfof+qj+tAFVm/dP/ANfRr03w82JYPrXl2f3DH/p6NemaAf30P1FAPY9EmPzj6ir83QVmzn5x9RWhMflFWZDM/vl+lSXHIAquD+/Wp7j7oNAEQiX+8v6j+lKIfTH5io807NLnDlHi2foF/KkMMg7EU2nCSRfusR+NHOPlE2sO5pCHP3iD9RU4uJv7xP15pfOc9Qp/AU+cXKVdmPuqoz1wMfyprxJIhilQOh6g1eEi/wAUan8x/WnBoT1jx9CaOYOUjt7l7WIQwDai9F60+a9e4j8uUcZB6DPH4U7bbH++PyNHlwHo5H1Wq9o73uS4Laxzd/otpqV5HfTSSLJGcjAG3jsR3rT0yE6bcNPvWRWBG3Ztxn3BP8q0fJQ9JF/HI/pSG2Y9Np/4EK1+s1GuW+hl9XhfmsUdSVr28iul2osYwRkknr7e9OgGFP1qw1tKR9wn6c/yqNVKZBBH1rKpNySuaU4KN7CmoX6VKahk6VibGlb/AOpX6VMaht/9Sv0qU1ZAtIKD0pBTAqy/fp9RyH56f2FIChrX/IPf6V5oTya9K1r/AI8JPpXmZPzGlIuAvrURJ8njqKkHWmr0I96hmhUv8nTX/D+dc14fP764FdRfjNhIK5Pw+3+k3AoQH1zpX/IMtf8Arin/AKCKv1Q0r/kGWv8A1xT/ANBFX66DmYUUUUAFFFFABRRRQB//0/qmiiigAooooAKKKKACmJ0P1P8AOn0xOh+p/nQA+okUFnJH8X9BUtRp95/97+goA5PU4YHv5TJGrH5eSAf4RWXJYWbj7m36Vq6l/wAf8v8AwH/0EVT61DLRhT6Y6gmEh/Y8GsaQGNtjqVb0NdttNQz20Nwu2Rc+h7ipsNM48MG4OaNo9TV26tHtW+YEoejVU3c8CpKHxMFyDzSSxo7hx0/iAoAzzj9aBGxbIfFNOwNXL0Hmy3MaLyoXlT1xW3dBigCLkKPyrnUaaM5WTBxjPepjcXXeUmqcrkqJkf2PcX9z+6YNHnJJ6Ka7TTbCKxh8qLqxyzeprBSW6jUhJMA84FH2u8UY3mpjaJUm2dPIzIPoatIwCAmuKa9uyeZGpPt950EjVXMTynal8ODR5vtx61xf2u/P8ZpRdaj/AH2p86Fync5+XNR+WXU7Rj39a4r7XqZ4LmpPtmpheJGo50HKzpZ5EhyZDggdDXJXVwskiy+aYB3U9x60rz3suDMxJHrUMm+Q/vOe3I7VEncpKx1fh+7jvLJmjkEu1sEituvOraaazUx2zGNSckKMc1KdTvgf9a1UpCcT0CivPv7Tvu0rUv8AaOoHpK1HMhcp6BRXAf2jqAJ3SNThqV7/AM9G/OjmQcp3tLwa4P8AtK8x/rGpRqV6ePMb86fMg5Wdv3p2ABXDm+vSOJSPxprXF5IuHnJpcyDlI/F+t3EbQaXpZzLK6l8c/uwfm/SsiG1s7LVmUzBVuhiND97cOT+FYXirQ9QvEj1XS5WW5s/mCg4DDqQag8G209/G+p3z75yxO0nJjPcD0pra47dD061AECgdAT/M13uh/wDINT/ef/0I1wVoCIFB9/5mu90P/kGp/vP/AOhGrWxDNamJ938T/On0xPu/if50CH0UUUAY3iP/AJF7Uv8Ar0m/9FmvgBFjaWNZiQhZQxHJA74r7/8AEf8AyL+pf9ek3/os1+f8drf3b+XYQSTsuCRGpbA9TjpUsaPojSfE/g/SpYore8ndbS3EVvJMwBj3DLEIq4Jz65ryrxj4ll8TaqLqcoY4BsjZV2mUA8M4Hc/pWXe+Dtd0+BbrUPKgZsGOJny8nI4ULkE89M5rni2T75Gc/Ws7GlyWT7+fcU1/9YPr/Slf74+oprn94PqP5VRIE/vB9f6Uwf6z8DQx/eD6/wBKh3fOfxpiH7uW+lR7vlP1pm7rTM/KfrTAhnbKIPet4HAT6Vzsx4X610LHhOO1AHo3hRh/Zlzj1/pVqV8KcE5rO8KH/iW3HPc1dmwFJ9qAMC9Pyn6VzDKEJZl+8a6e86Gubm+bFIaJYZAo46VbRgRntWeq4FXkUFKRRBLIy529qwLpowDMMgg/MM+vQ+1b8ynbg1zk67pQn8L/ACsPY00KQQSbZhLcKWTr5i/K3H6E1umSOVhNP87nlnUfNGD03L0J7CsCzuBbL9nmXepbG09j7fStERSW6/aLV9+DkEclmPUn1ApkE7XkluxNowcDqQc4z2x1z6muk0LVZPNQKY1a3BfDoCTnsx71yoiS2T7Ynyt0bbzsb0X/AB7VDZ3qG9HmrsEhwSv8z7+9AHsai0mhzfafGZ7hgyyBQQB7KPQe1aKaTo9zL5FlBHOirunYfu5CP7vzHH6VzlhPMm6+tLkv5eI0VxknPpjFbTMqxraXsJimdt7zjBwpPJ45HpyMUDLFvp+ixB7mG3iVIz+5hdcMfcHBBOavXTPbWJsoAEvLjLFH+UeuAQdpHak3GYgOPtdhafxJgHp7Yzj2qhM7SWcl58tysv7uNHJaRB2x/hQByVt49uY5x9qhTzYQU+T92QemeMg1X1PXRrFiLGWPapfzGYHktnrjGB+FcTr9kthfkxSF1fnJ6hu4NNsblgMMaBHqXgzSPBLXSrP9pS6JyA0iiNu+BtUfrXsMWneHoH3paIXzu3Nljn6mvmm3ed5Va3DM4ORtBJz+Fe0WOrE2Ec1/+5kI+YSHacjvzjrQ2NHc3LWd5byWssSFJV2sMDmvmXVrKTTtQmtGyfKc49x1H6V7GPE1grEeZkf7Klv5cfrXG68dI1a4a8i+0eYygY2oinHc8saEBvWN19ptI544wrOgjjiwSshIwzKegasLxXDjTTPHlhAyqCRg/Ly2fcfrU2kO8NisV1veGEFYz/ckbpyMfnV29ga5tprCYKZki2sOpkL9D9aAPJvELGd1nHIk2sPxFc0sefUdK73QdCPiKb+wxMlvNbsTiQEnAPIGK9P0/wCDemBgdQvZZBxnywsf89xpXGeAWlujyqueuOtepeGdSm8O3ImtDAZVyR5z7Rz15ANdlrfgbSNDeJdG024udwG+QHzMY9jx+QqgngW61wkwaUsQXq90vlqfptIOfwqdx9B+q6reeJSt1qLQQvCMJ5RZ1IPUE7Rj2rm7uPbaHkHLryPrXoWmfDzUNMBhhNrBHMMTMshcDHTCuKW/8H2EMBhfUkYAg52nOR9OKGios83Ucyj1kq8MBlFR3KwW1y8cUqyjdksvTNMR9zj60iivKf8AiZXJ/wBgfyqfQ/8AUx1Ulb/iZXH+4P5VZ0Q/uY6BGcDm3b/r6Nel6C37+D/eFeYKf9Hb/r5NelaCf9Jh/wB4UAekTn5h9RWjOfkFZVwfmH1FaU/+rqzIiU/v0+lWbn7gqmh/fp9KtXP3KAKwNSA1WU81OKzLH0UlFADxThTBThQBIKWminCgBaWkpaACm0tFACdOlIST1OaKSgBDVdzU5qvJQBqW/wDqV+lSmooP9Uv0qQ1ZAvakWjtSCmBUlPz1KvQVBKfnqVTxSAo61/x4SfSvMv4zXpmtH/QH+leYj75+tKRpAcvU01erfWnL1NNH32qGWRXn/HlIPauN8PcXlwK7O8/49JPpXF6Cf+JhOPahAz6+0r/kGWv/AFxT/wBBFX6oaV/yDLX/AK4p/wCgir9dBzMKKKKACiiigAooooA//9T6pooooAKKKKACiiigApidD9T/ADp9MTofqf50APqNPvP/AL39BUlRp95/97+goA5q/Ki9lyO6/wDoIqoGHpVu/wD+P2X6r/6CKqEH0FSy0KWGMYqPmnYPXFGfQUgIZEWVCkgyD1FclfWT2knGSh+6f6V2f4CoLmJbiIxMBz0PoaTQ07HDDcTkZp25x2NW38yNzGVwQcGl3Ljkc1BRV+c/wtTwXHZqmF0gUKBTDdD+7QMA0nofyp2ZePlNM+1nstO+0SEZoARjIf4aI1KPuKnFOErdyacJfVjQA/zR2RvyoEwxyppBOmdpbmnGaMfxUCATDsrU3zhnkNR9oj6hqBOnJzQAvmx4yQ1JuiP96mNOHUoO9IqYXnFAx+YB1zS5h6haaFDelLswOg/OmIQyR9l/SnCROpWm7W7KPzppVuyjP1oASRgzZXioufWpR8vVRmj5v7o/OkBWKk03DDg5q3uYdFFJvJ5KigCsPMHQGnhnPGDVhWJPzDil81I2BxQBymq6pf2OtWcNurNE8MjSJ2JHQ1R0u1l1CRr3SZDZI7Zl2/NubuMHpXbPdWi7ri5VdqKcsew71wttv0rW4pdJy9lfksw64OM5+hrSL0Ja1PUbPP2dM9ef5132h/8AINT/AHn/APQjXA2bbrdW9c/zNd9of/INT/ef/wBCNWtiGa1MT7v4n+dPpifd/E/zoEPooooAxvEf/Ival/16T/8Aotq+IvDXifxJpjtonh75m1BlQoqqWckYxkjPSvtzxJ/yLupY/wCfSf8A9FtXwLpN1daVfRapbsY5Lf51OOScdPxqJ7Fw3PpCfwRHpOg2l94quLu7u48Ki2v3bcsOwAJO0dT615PrvgK40fQU8SJdLPBJME2lGRuTwQT973rpdA+Ld9BZSJdh57qZ8KWYBBnhQT6Cs3xx8Qf+Ek0+PR7aDyoUdGboMMvYAcYzWa3Lex5i5+b8RUMh/eD6ilkb5/xFQSN+8rQzFZvnqHd85pGPz0wHLmmA4HrQBkfjSqOtSKPlP1oApTrhFPvXQOCFTHpWFcfcT/erel+7GPagDu/Cpxp0/wDvVenPGPas3wxxps/+9VqdqAMm6+6a51+hx2NdDc8g1z02FB+uKQxY8+tX0G0Ak1mW8SS5eSTAHYdatqwUbV4ApFDbkgZrnrj1Hat2Z8qRWHP1NNCZUuFLTb06uAQfQHqfzrSspBHtXcVQcqf7vq/41n+Yvkhh96LIYeqnoKi3s2YwSzORx7dhTINKW5JuCsmFJGFI+4yn1+vr61Xlj+yyLcsNq5ygPJJ9PpUsMQ2eVKA8q8op+6PUE9/pVtVZ4ibv55+39D+H8qAO00uawlMPnZh2ruZx8pJ7CuttJdQt4/tcbCZ7n5FVhl8dsf14rzvQrufyDZyJuZmAbaRnA9PwrsbZ4PtTSWxa3KgCJVHLP3wDkUDOhihWbZp1tvt5sFp1kPyt+AODk+nao/PFzcy3i7Lea0XAA+6xHBJ9R2qKUyCI210pN9KwZHHcn/a7ADqKhmH2qOKwij23NvkvngYHPUdd1AHF+JLSO/txeP8ALcNJl1xjGenH0rGstLSEBpME++T/ADwK63WnTUUlvRiMxr5e3jJP+elebpqF075DY/X+dAHqFv8A2lPCBb7xGP7gCLj/AHhtFS22mPcOypLBuX737wOw+u3P8681ku5pFAmkZ8dmJNdh4MJJuZO3yilYLnUxaNtYefPlfRB/U0usPY6Pppuba1WZwwBaZmYAH2BArQL5FY3iIeZo04PYA/kaAMPRdZ824a2vT/o8nz7EGPmHT3xXUGVtwgdgl1Fl1ckEtu+6PwHWvKbCdbe5jeQ7VB5J54+lfQll4S0AWMNzqN480TgSIPuHB57fNTA53w14dtdT15dXiujaXMX34kGfMHQnJ7NXtn2KLG35sfU1yllN4S0uTzrOHEmMeZtJY/i3NaD+L9LT+Fz+FAGyLBFOUZvxJrB1geKIEP8AYsMMwx/HIQ35dP1pD4xsiP3cbE+5xVGfxdKwxHtT6DJ/WgDy/W9Y+IluWF5bzW6eqRgr/wB9Ln+defS3eoXsm66lkk9QcmvepvELSj95NJz6HAqiNVhU4xSsO55JZnbCQOPmrZgfLrXdS3lnKf3kCN9RUC2VjK4dLMDP90kUrDUjhpm/4mU/+5/SreiH90v0rsH8MWdzI86rJDI4xnO4dMdDWZB4c1DTTsA85B0Zf8KTRSaOOX/j2b/r5Nej6Af9Kh/3hXAGxvYoCkkEikz5xtPSu90JXS7hDqVO4dRigD0m5+8PqK05z+7rKuTyPqK05v8AV1RmQxn98n0q1cfcqnF/rl+lXLj/AFdAFFetWBVZasCsyx1FJSigBwp4pgp4oAeKdTBT6AFooooAKKKSgBKQ0tNNADTUEnSpzVd+lAGpB/qV+lSGo4P9Sv0p5qyBe1IKXtSDvTAoSn56mTpVeb79Tp0FIZS1r/jwk+leYJ9416drX/HhJ9K8xT7xpSKgPX7x+tJ/y0NKv3j9aD/rKg0GXn/HrJ9K4bQjjU5h7V3V3zbSf7prgtEP/E2lHtSiNn2JpX/IMtf+uKf+gir9UNL/AOQZa/8AXFP/AEEVfrpOUKKKKACiiigAooooA//V+qaKKKACiiigAooooAKYnQ/U/wA6fTE6H6n+dAD6jT7z/wC9/QVJUadX/wB7+goA5TUmYX8uP9n/ANBFUtz1d1JS2oSn/d/9BFVApFQyhm9vWgM/rTtppNpoGG89zRv/ANqjDUu1qAOf1iN1ZZ4zjdwfr2rCLy9zXX6jb+baSA9hn8ua5HyW9DUSKRFuI7ZpfMYdqXyJewpfJk9KRRC0xAPY0JOSuD1qQ279xQLZ+woFqHmN6H86N7H1/OneTLjpR5Ep6igYwbzzmnjdnk0vksOoNBj57igBu5V/ipN2ejZqU7sYH8qQBu5/SgCIlx0P604SyY6n86dtal2k9P5UAL5sp6Gm+ZN/e/WnlWx/9aozC3agB3mTeppDLJ605YXHanGNsUAQmWXsaUSy/wB6nmN6QI1ADfOPd6cJCeVagLJ2/lTjE7+30oAaXm9aYWc8sc0/yT70hhfsKAOcuZJZPEVrZvzBJDJvTsT2zTboQ2evWkavtEw8sRD7qhRnP41vHTmkmW5UYlj4Df7J6j8awdWtoYddttSuEwMbQ2e+OlXEiR6NYHNqn4/zNeg6H/yDU/3n/wDQjXn2n/8AHpH+P8zXoOh/8g1P95//AEI1otjNmtTE+7+J/nT6Yn3fxP8AOgB9FFFAGN4j/wCRe1LH/PpP/wCizX5/sJBGo2kbvXiv0C8QDOg6gP8Ap1m/9ANfAd19w8g4AGDyamRUdijChRAp/vDp9amkPz/lUKsYwFmGGyPyolky42+1IB7fe/EVIURmC46kfyq7oej33iHWoNKsh80rDcx6Io5Zj7AV9TWPwl8H20avJG05HVnJyT64zgUDPj2RSshHpTUHzHNe6/FXwRpOh/ZdT0SMQxPlJ0yTz/C3Pr0rxcqByB68/jQIrrxu+lJnCE+9O/hY1Wkf5DimBFM2VUe9dHLkLH9K5Zzyv4V082dkePSgR2vho/8AEtn/AN7+lWbgjbkVn+HWK6bNzxuqxM/ykUDM+5fIwKyYooppGEudi8nFaE5PWs92WGM7jgvz+ApDQkjwjKwRhEHPFVTNjoamgstRv222cDuD3xgfma6ey+HWu3KiW7dLaPuWP+NA7nEyTZHNZkj7m4r2u18B+H42Cz3Et6/92FSf1HFdEvhS3toTJZaXHEFGd0zbm4/2RQI+dYrRgjMq/vZQcZ6BR3NCNHHEwthulUYZsdvb29TXey+FfFWt6pLPbWLpCxXazARocfXnFdPp/wAH7tjv1C6CKescYz+BJ60yTxiKUoBJu5H8XT/vn/Gia6lldZLbr0yO3sPr+tfSVt8JvDcWDPG8x/2mOPyBrpLbwRotooW1tY0x6CgD5w8PW0puBgtAGGSzDp9M16BawQWcRXUY3LOCYeOSSevB4b/IrtNZ8KSyXEa2ts7hQWBTAG7sCSeKrx+CfEWox/8AEzliibop5ZlHsBgA0DOVMsqsXu3b7dHjyVznI+g4Oe9VZbgTI88bFboEmYk7cD+5/h+den2vw7tEZZbu6mllHV1O0mt+28G+H7ZxIlqrOP4nyx/WgD5+uibtDd2sXzRrt8sKTgAdSfWvNo1wxOO5r7buNHsHtngZViRlK5XC4zXm8Xw58CWPzXUs10w5wXOP/HcCgR86IrSuEQZJ4Ar2Dw5o0trZLEiNJI53OEUtz6ZHHFeh28PhbTONM06JSOjMMn9cmrEmu3GNkREa+igCgZjRaBqLLuaJYV9ZXA/QZpLrQ9PlgNvqNwZUbGUhGwHH+0cmppr2WQ5Zi31NUXugepoASCy0HS8GxsYkYdGYb3/Ns1JNfmQlj1qlJdIBnqapvcSSN8i0AWJJpDyBmqrXEhB4z9atxW15MR8p/kK04tKVBmdwKAOcyzjApy291Jj5SR6iuk2aXb5K/OR71GdYEYxAgAoAoJol1KBkbR6mtCHRIYfmuJM/SqrapcynG7IPpT0FzP2JoA0Sum233UDEd6Uahu+WFABTYtMLAGU1qQWcEIzjNAFRTdy99oq2kOPvksfc0st1FCCT2rAvNfWIEIwWgDpdu3vigyQIQXYZHSvORr19fy/Z7JGlf/ZHT6noKvR6ddkiXVbnb38qPkj6t/hQB2U2sWYA8yUHBzVlvE9lINixyt7qpIrkI7myth/o0K5/vN8x/M04ajczsNrHHpQB3NlqdncXCKr7WI4VwVP61uzj5K4KG1SWLFwS4POM4x7g9jXRR6gUiWOTLbRjJ6/jSAtJ1qwtUYp42Oc1JLe2tuP3jiosXcuUoqnbahZ3bmOCQMw5K96vYpAKKfTQKcKAHCnUgFOoAKWiigBKSnUlADaaadTTQAxqgerBqB+lAGnB/ql+lOPWmw/6pfpTj1qyBe1ApR0ptMRmzffqxH90VXl+/ViP7opFFHW/+PB/pXmUf3j9a9N1r/jwf6V5mn3zSkVAev3j9aRuHFKv32of7wqDQju/+Pd/901wGin/AIm7139z/qXH+ya8+0c41lxSiNn2Tpf/ACDLX/rkn/oIq/VDS/8AkG2v/XJP/QRV+uk5QooooAKKKKACiiigD//W+qaKKKACiiigAooooAKYnQ/U/wA6fTE6H6n+dAD6g3iPexyfmxx9BU9cdqN/exX00UUu1FZSBhT/AAj1FAF67t55bqSRI2IbGD+AFQfY7n/nk1c9Nr2sJKyLcYAxjKL6fSojr+tY4uf/ABxP8KhtFpM6X7Hdf88mo+xXX/PJq5r/AISHWR/y3B/4Cv8AhUZ8Sa1/z3/8dT/Ci6CzOoNldf8APJqDZ3XaJv0rl/8AhJNZ/wCe/wD44v8AhSf8JLrX/Pb/AMcX/Ci8QszpJbG7aNgY25B9K4UJIowSM1tR+INZkBBn/wDHF/wrIMeck9+9JtPYaTW4z5h0IpcHqSKb5RFL5cnQLUlDg7eopwZu5XFR7ZB/DTCJT/DQBZDfT8qQuCMHFVsy+lIPM6kYoAsBgowAKYoMhOe3pSDeeDTlTryRmgBfKB6ZphRR1NPWMBvvNioTncRk0hi/J1pMxeppAoPrTxFnnpQAB4j1Jp4eH1NBgx3o8rj72KLiH7oe5pMwnoaZ5WeA1IEI/izQMl2LS+WnrUB46fzpA5FAiUKgzk96Qo2eDgVEWOeh5pMk8c0AS7GPRhS4b1FO8kAZFNMXpTA4vVfGmnWd5PosmVmA8ssOmXHGK2o7BZrazFw4ZRjafesDxf4P/tu1L6dEq3ZdSZOhOK63SbW4stNt7W8UO8SgZJ7iqT6ktHTxII0CDtn+ddzof/INT/ef/wBCNcJbuzxBm4JJ/nXd6H/yDU/3n/8AQjWhma1MT7v4n+dPpifd/E/zoAfRRRQBka/zoWoD/p1m/wDQDX58yIWAA7V+hGvf8gO//wCvaX/0A18GW0UYl/e9O9TIqJn3kEs08KxqSSi8V0Fh4RnuCkl7OkKNyFT53P4Cqz3DoC2GKqSoxGSBj3qWy8XT6e4+ySlT3+Qf1pDO/wBKS38EzpqdvbT3LE7CYgGYg9mBxx9K6RfiRrDEtp2i3kzsT80rpGv5DPFc5pGq+LPEETTadPbtt5ZWZFYfgamnn8aWcgE8iDJ/g2nI+oqRmuZ/F3iOb/ioLW2gtDz9nx5jMexLHnj2xWiPCOlhQZ7SCNQM5KDOO+AOa3YtTknUG3t2t4scyS4DH3+b/wCvVeTxFplq2z7R50h4KwgyMfxFK4HhHjWfw1mO20ALujLCYrHsB9OoHSvOWOUr2L4maVClpa63Z2hhWd2WeRwRIXx8oYHpwOK8bP3atEsjY8iuolOUj+lcq3aulkY+XH/u0wOt0N9mmTk8YbrWjDA1yoYNhT3rI0KN7iwlhQ4LPivT9N0aG2CG7Uu5HyQL1+regpMDBsfDTXp/dozjuTwo/pXSWPhXQoZA/lNe3A42oMqP+BHgV2ENgZUAvCAg6QxnCD6nq1bkIjiQJGAqjoAMUAYlrpd4BiNYrJf9gb3/ADPFaMeh2O4Pchrh/wC9KS36dP0rUU1IDTASOGONdkahQOwGBUoQUgqQUAIEFPCigCnUAAWnbaq3N7aWa77mRU+p5/KueufFUQ+Wzj3f7T8D8qBHWAVBPe2lsMzyqvtnn9K84utdv7jKvKQp7LwKx5bslcu360DPQ7nxRZQnECGQ+vQVz9x4pv5MiPEY/wBnr+ZrjPtQzwOPSoDdOTxQB0E+pTTndKzMfck1V+1sTjPFZQEx5AJqdLadzzQBYebJ5PNVXmkU1ei08SHbmtBNPghwZXAoAwl89xxmrsVhcTEEjA9TV+TUNPtgREAxFZNx4gZgVTj2FAGmunQQ/NPKPpTnv9OtB8ig+9cq+oXc4IPINMh067uDlgR7npQBuT667nEfyj2rLlubmU53E+ladvoijBlOfpWvBYRoeF/OgDmYbS+nwdp/lW1a6TjHmn8BzXQJBGB81Dzxwg4wMUAQxWMMfOKtF4YRzwK5y+1dkB2k1x97rcpz8/Hp1/8ArUAd9ea3BbA7TmuYuvFCgHDda5yC11fUvnVfLhJ/1kmQPwz1/AVqQabpWnfvZh9qlHO5/uD6L/jQBXS71vViTZozRnq7fKn5mtG30eygIk1ac3D/ANxOEH49TSzaq8gwp2oOgHQfhVBpmfqd2elAG3NfLDGIbVVjj7KgA/lVH7Y852nrVdIZJBtGSR17fz4rfs9IdyGIP0oAo29pLM3zDjPXvXTW1tHCuAMsavwWSxr83BqdmjhXnHHrQAyMO3GOKe/lQqWkbism51hYxhePpXMXGry3J2rk80AdXNq0MKkrx2BNYbXVxfybIVZ3boBzVjSfDN5qLCa4zHGfXqa9S0zRrTT4wsSAHue9IDhbTwHfFo9Vtrs2t4pztI3IR6Nz/KvQ1trpIlM6jdj5tpyM+1aQIXpTvMxQ0guZAFOArQdI5OvB9RVVoyh5/OoaLuMxS4pQKXFIBMUUuKKAG0hp1JQA002nU2gBhqB6nNQydKBmnD/ql+lKetJF/ql+lK3WrMxR0pPWndqb60wMyX79WI/uiq0n+sqzH0FIZS1r/jxb6V5mn3jXpmtD/QW+leaqPmpSLgOH3jSSdRTwPmNNl7VBZBcf6p/oa8+0k/8AE7au/nP7tvoa890o415hSiNn2dpf/INtf+uSf+gir9UdL/5Btt/1yT/0EVerpOUKKKKACiiigAooooA//9f6pooooAKKKKACiiigApidD9T/ADp9MTofqf50APrhNV/5CU/1H/oIru647UbG9lv5pI4mZWIwRjn5QPWgDjrqCdp2ZELA45BHpVY2132jP5j/ABrrv7N1D/ng36f40f2bqH/PBv0/xqXC5XMzkDa3Z/gP5j/Gm/ZLvuh/Mf412P8AZuof88G/T/Gj+zdQ/wCeDfp/jRyIOdnIraXIOdh/T/Gn/Zrnuh/Mf411f9m6h/zwb9P8aP7N1D/ng36f40ciDnZygt7kHhG/Mf40/wAm6/uH8x/jXUf2bqH/ADwb9P8AGj+zdQ/54N+n+NHIg52cv5NyOiH9P8acIrrurfp/jXTf2bqH/PBv0/xo/s3UP+eDfp/jRyIOdnMmO67I35j/ABphhu8/cb8x/jXU/wBm6h/zwb9P8aP7N1D/AJ4N+n+NHIHMzlTBdEY2N+Y/xpv2e7/uN+Y/xrrP7N1D/ng36f40f2bqH/PBv0/xo5EHOzk/s93/AHD+Y/xo+z3f9xvzH+NdZ/Zuof8APBv0/wAaP7N1D/ng36f40ciDnZynkXZ/5Zt+Y/xpotbkc+Wf0/xrrf7N1D/ng36f40f2bqH/ADwb9P8AGjkQc7OXEV2B/q/5f40eTdY/1Z/T/Guo/s3UP+eDfp/jR/Zuof8APBv0/wAaORBzs5cw3R/gP6f40w21z/cY/iP8a6v+zdQ/54N+n+NH9m6h/wA8G/T/ABo5EHOzkvs112jb8x/jTfs15/zzP5j/ABrr/wCzdQ/54N+n+NH9m6h/zwb9P8aORBzs482l3/cP5j/GgWlz3Q/mP8a7D+zdQ/54N+n+NH9m6h/zwb9P8aORBzs5MW1yBjYf0/xpTbXJH3D+Y/xrq/7N1D/ng36f40f2bqH/ADwb9P8AGjkQc7OW8m6H8B/Mf40vkXPdD+n+NdR/Zuof88G/T/Gj+zdQ/wCeDfp/jRyIOZnNJFcD7yNj6j/GlaO5JJ2N+n+NdJ/Zuof88G/T/Gj+zdQ/54N+n+NHIg5mZVsrrCocYbnP513mh/8AINT/AHn/APQjXMf2bqH/ADwb9P8AGur0iKWCxSOZSjAtwfdjVEmlTE+7+J/nT6Yn3fxP86AH0UUUAUtSjSXT7iKXhHidW7cEEHn6V8+/2b4A01BGWgkkDcfOZHz+de/6tDJc6Xd20X35YZEXPHzMpA5+prwXRfg5PGyz65fCPHPlw5J/76OP0qJIqLscp9nvJi02lwI0CyPhnBDSc9yD0HQVkX9rpt2/lalYNCx/5aKAcf5+tfSln4V0mziWGPzGRBgDoK0Ra6PaA/u4kBGCXwxI/HNKw7nh/hlzpunf2bpFs120LE5xtVQ/PzE8ZroodN8Vai5LTR2yekCeYw/4EflFdzHJ4YsJJHs7dGeQgsETgkdODxTbvxStsmdiQqP+ejBR+XFFguYFt8P4p2EmqvJOf+m8hP8A46uB+tddZ+HtI02PbDGqAf3QEH5jn9a89vviRp0TFZb9f92FSx/PFcXqHxOsmJ+z28twf70rYH5c0aBqev8AibStD1vRLrR5jGBOpwyncVccq31Br4SniaCSSByCY3KEjplTivYbv4ia5OrfZvKtlwcbF3Efif8ACvHJXaRnlc5Z2LE+pPJppiasV3Hyg+9dVaWct/JHEg4A5PoK5hY3lZIoxlmIAFe3eHdOSxto5mUO54jX+8/c/QU2Bu6NpkelxxwwIPtLDK55EY/vN713FnEltnHzO/LuerH/AD2rGtYvIU7jukfl29T/AICtKN+eKQG2khzz0q4jGsSKTBwTWjG/amBqK1ThqoI46VaU/iaALQNPGRzXOal4i03TMpK++X/nmvJ/H0rjbzXtU1PKxt5MPovBx7mgD0O81vTrAESybnH8C8muTvPEmpXeRaAW8X97qfzNcbLf29pxjzH/AEquZrq8XcThP0oA1JL1AxLMZXPUk5qo+oHuPwqiIMHEYLepq1FZSZyOhoAiaeSUZQEg1Gbe7foCR+tbMVqin/OKu7do6mgDEg0+4OC3T0NaUNiqdR+VaEayP0FSS3dvaLmVgW9KAI47PJ44FSSNY2g/eNk+mawLrXJXOxflB9BWcltdXT7uTnrmgDVuddCZFuoXFYlxeXNzypJzWzHosZIMxzjtWrHaQxDCKBQByMOn3s2C4IHvW1baFEp3SnOa3I42Y4XmryQBRlzk+lAGbDZW8AxCnX8a0Utzj5uBVjKoPpVaW6jjGWYZ9OtAFhRGnC9ahkuETlj+tYF5rCoh2kD3rj7zXCoPzmgDtLvWI4wcfr3rl7rXiwPzH6f0rEjS8vT5rHyYn/jk9PYdT+VWwLGw+eAefKP43GcfRe1AEqW2oahh2AgiPR5OpHsverEcOmWDfIonmHR5DuH4KOKynvbiZiZCSG9/8/pSrE83Q8j8P8/SgDSm1SaZsl/Yj/8AV0qlKXcZTPHX0I+lTQ2bkYUEN/nt/jXQ2GizSLiTvzk//W60AczGkrjCgkj05ro7DRZrhQ5GB15rp7fTrKyUFvmIqWTU7aMALwD0NAD7XSLaBAXwcVea4ghXC4Fcrd6yYxnqO2P8awp9Y3HA6nrigDsbnU9gJU8e5GK5y71kONqHd/u1kRfbL9wkaFm9uT/9auy0jwZK7Ca+OM/wj/GkBysFlfarII4VLevoPrXpOieE7azCyzje45yeg/Cuos9Nt7NBHCgUD0rRHHFABFEsYAUYqfIqLIxkUwsc4pgTFsdeKZvx0qAyAdKjLnFICfefWl8zjB5qoz4pN/YUAXBzTqrwShiY8/MO1WqzZQ3FJin4pMUDI6Q08000AMNNNPNNNAEZqF6nNQPQM04v9Uv0oPWki/1a/ShqszHdqOxo7UdjTAyn+/VlOMVXb75qwvQUhsp6z/x5N9K82UfNXpGs/wDHk30rzgDkVMioDx96mS9BUv8AFTJh8tSaFGf7rfQ155phxrxr0Kbofoa88sDjXvxpRHI+09L/AOQbbf8AXJP/AEEVeqjpf/INtv8Arkn/AKCKvV0nKFFFFABRRRQAUUUUAf/Q+qaKKKACiiigAooooAKYnQ/U/wA6fTE6H6n+dAD6KKKACiiigAooooAKKKKACiiigAooooAKKKKACiiigAooooAKKKKACiiigAooooAKKKKACiiigAooooAKKKKACiiigAooooAKYn3fxP8AOn0xPu/if50APooooAr3bbLWR/7qk/lXml54us7Ef6RcwwfVgW/qa7zxBxoOoH/p1m/9ANfCiunXcMkfwgn9Tj+VTIpI99v/AImaWMrFJNcn0QbV/M4rj774iXUoxb2yRj1kYsfyGK8zMvYKT/vH+gxQJHU/KQv+6AP161FyuU6u58WeILtSPtDonpEBGPz4/nXNzTPcEmaXex7li5/Tj9aqOQxyxLH1PNLk54496TZSQ3y+aZtx2p8jMeF5qLd680hg0Yw/Pb+lcqw4P1rqs4VsdxXMsOD9auJEjc8NWQuLwTN/Cdq/U9/wFey6dtL+dxjGyMdMKOM/ia828OwFIlQDDEfq/wDgK9FiOxQkfG3p+FNiOgEmRu9O1Wkb+7+FY8E2Vzz7ir0bdQf8/wD6/wCdAjWjk5Df5zV+Nwceh6YrEjYr0HBqy93DaRGeZsRqMk0wN03UUETTTsEVOST6VwmqeLLu9c2mlZji6Fx99vp6CsHUdXvNZm8tfkgU/Knc+5pqvFZx5UZYfnQBbWGG3Tzbk736nJrMm1Ce7fyIBtX2qH97etgH5e+emKtQtHB+6sl57v398UALHaRQfNcsXc/wj+tXVEsmAwCr2UDimxqqkNJ8zH1qwCAdzUAWotsYwBVlWyMmqAcMO9WFkAG3HWgC6pwfb61NlUXc3A/SqS7IxvfI+tZtzcPNJtDfLQBautWYExQ/d6cVmrBLcHLrg+uTV2G0Q/MQCavA7RtHT0oAigsYEGH5NaACoML0FQAqeh/Cl8wZGf8A61AFlWJPH8qsojMfm6VXiBaru4RLuagCwqqo9Krz3tvCpJYcViXmrquVTr6npXGX+sAvsHI9z0/+tQB1d7rwUER4xXIXutsX5JPH0Arnpb6aeQpCC7Dpjt/hWlZ6JdTfvp13Hrg9BQBFHLeXxJU7I+8j8D/E/hU8KWlu2Y1M0o/jfp/wFR0/Gt5NLmIG9gP1/Krsel28eNw3EUAc2TdXD5GTnrUyabczELjp1x/nFdWIUQ8KF9upq/FbYwZDsX1PGPpQBgQaOoA3HH05P/6q2rXRxnPb19Px6VO99Z2hKplyepPT+gqg+rTPkIf3Y7D/ADigDdWOytshiGYenSo5tV8sYj+UY7Dn/wCtXIz6qNpXdnPbcOPyrM+3yO20c57Y4/8Ar0Ab1zqcj9GwByScfz6flWJJqDOeCTnqOQPxPWmxW11dy4RS5PoM/wD1hXY6Z4OmlIe7bav91ev50gONWO6vT5CLknGAo/PFdhpHg2aTbJd/IvoOteiadodnYqBDGB6nv+dbqqqDigDJ0/RrSxQLCgUD2rbVQo44phOOv+fpSbj+VMCUnAyaYWxTS/Oe/wDn8qiLHsP8/WgCTfzz1/z2pjPxgfjn/PNQk+nWm7s4pASFvx/maj3/AJ00nB+v+eaa5+Xcv50APLHGSf8AP171GThsnpTI2z8vpQ/Zv6UhiyStC6ypxit+C4S4iWQgNkfjXOSDdEQKdpVwDB5b5yp70mCOm2RnoSv60wwP2w30qqsnHyn+tSLMR1H5UDBgRwRj60w1ZW4zwT+dIRE3JGPcUrBcqU01ZMOfuMD9ageORfvLx6jmiwyE1A/Spiagc1IzVj/1a/Smt1p0f+rX6Cmt1rQzHDpR2NIOlL/CaYGYfv1YHaq5+/VgdqQ2UtY/48m+ledgdK9E1j/jzb6V56B0qZFwHY5pk33KkPWo5vuGoLM2XofpXnlpxrw+or0KTpXnttxrw+ooiOR9qaX/AMg22/65J/6CKvVR0v8A5Btt/wBck/8AQRV6uk5QooooAKKKKACiiigD/9H6pooooAKKKKACiiigApidD9T/ADp9MHDFfXkUAPooooAKKKKACiiigAooooAKKKKACiiigAooooAKKKKACiiigAooooAKKKKACiiigAooooAKKKKACiiigAooooAKKKKACiiigApifd/E/wA6cx2jNCjaoFAC0UUUAY/iEZ0DUQP+fWb/ANANfB65AAY44r9AriFLm3kt5PuyKUP0YYNfBWtabPpGr3WmXIIeCRlORjIzwfxFRMuBU4x15qPeDxmmKpOeT/hShMc9u5qDQXP60oY96rtdW0PVx9Bz/KqEurIuTEpPueP0osK6NY726k4NNZo4xl2A+vFc3NqdzIuQ20Z6CqLOzBWY5Jz1quUXMdikscquyHcPUfSsCMb22erCr2mc2r/U/wAqgtbW7jkEksLog5yykDkcdaaJZ3+gLy8v904FdYrc/wAq5PQpALYgdQ3P410iMCODSEacchXkDPqK04pNw25/+vWFGx+uK0IZcfL+Ipga4kEalmPygZJ9PeuK1TUZtRm8qI4hQ8DoCfU1a1fUPMP2SE8D7/vntWZGqqOOtMCzGVgTAGPU+tVTvuXLyttRepqTa0gwcADuazppjKwiXOwdP8aAL4k8z9zF8sf8/etCLYgCpxWWg2KNuM1IsjFsYOaANXzFTjPPvQJD9aoKxzhupqdT3FAGgrtjJPA7VMJ4o13nj0qgJGXknH1pjB3bdIfwFADpJ5Ll+D8vpVuBRFwcEmoVZcYRfrUudg5oAvhwRuHbqKesnqOtZobnK8Gp4wWODnJ9aALRLMcD9KvQW+Buk/Wo1SG2TzZWBPvXP6lrzR5jXAXpigDoLrUY7ZcRkZ9TXKajrTsu4t9O1cvd6sST6H8B/iagtLG+1Ihgvlxk/ePX8M0AF1qsssmNxcn+EfpxVq10TUNSO+5zHGeSO5rpbDRLSxAJG5v7xreQDb8vGOgzz/8AXoAzbDSrezUCNMY79jWwjD7qgeg9qY8ZC5c7Seg6Zqu95bxDATc3+0ePy70AW+Qdqnn25H4mnCWGNd05/Ac/rWDcalK+STt9hxx9Bz+tZj3h3dSwI9OP1oA6h9Tji4tgF54JwT+vSsi41R5AX3biOvPT8f8ACuZmu8E8nI7DH86Zvmnf5QcY6mkBqS3rn5t35cn8zVJ5pJHyuX/3iTj+laen+Hby9PyISP7zcL/ia9B0vwXBEA9z85HboooA87sdKvLwgQxl+ewwB+Nd5pvg1zte9bP+wvT8a9CttPggUCNQAPatBVUcfyosBlWWk21ogWNAoHYCtVUVRx+lLkZxnGKbu5x0NMCUH1pS/Pp/Oofx/IU0sB1/z9aAJmNQluc00tnk1GWDcD9KQEhYfWjfzg1CWA4yB+ppuew4/nQBIzLTCwBz2qNvemk8UASSMSm49qA29DUDHcjA8n3pLd+Dn/8AXSGLGcN7VJJ93OPzqtkByBxg1YY5Q0ACNuBB5qjpbj7b5QI+ZitWYye5P41kxMYrxmHUPnpQM7ptMnjJd1/Ef/WqiXk3fuxuX1Pc+3tXa28gmt0lH8Sg1HLb28v31GfXoank7ApdzkvMxwwxTlcfwmtqXS16xtj2NZN1ZToPuZ9xzS1W5WjG+aw64NPE+O5H15rNZ3jHBPHrUYuxnDgg+3NCkLlNYukn3lDe461Vkhib7rEH0NV1mjflGBoaRgOufrTuI2EGEUe1Rt1pyH92v0qJ2qhEgPFO/hNQg8VL/CaBGUT89WAelVXOHqdD0oGyvq//AB5t9K4ED7td9rH/AB5N9K4Nei1Mi4CHrUc3+rNSnrUU/wDqzUFmTKa8+h415fwrv5a4CP8A5D6AdSaIjZ9q6X/yDbb/AK5J/wCgir1VNPUpYW6kYIiQEf8AARVuuk5QooooAKKKKACiiigD/9L6pooooAKKKKACiiigAprLkcdR0p1FADVbPB4PpTqQqG603aw6N+fNAD6KZh/7w/L/AOvRh/7w/L/69AD6KZh/7w/L/wCvRh/7w/L/AOvQA+imYf8AvD8v/r0Yf+8Py/8Ar0APopmH/vD8v/r0Yf8AvD8v/r0APopmH/vD8v8A69GH/vD8v/r0APopmH/vD8v/AK9GH/vD8v8A69AD6KZh/wC8Py/+vRh/7w/L/wCvQA+imYf+8Py/+vRh/wC8Py/+vQA+imYf+8Py/wDr0Yf+8Py/+vQA+imYf+8Py/8Ar0Yf+8Py/wDr0APopmH/ALw/L/69GH/vD8v/AK9AD6KZh/7w/L/69GH/ALw/L/69AD6KZh/7w/L/AOvRh/7w/L/69AD6KZh/7w/L/wCvRh/7w/L/AOvQA+imYf8AvD8v/r0Yf+8Py/8Ar0APopmH/vD8v/r0Yf8AvD8v/r0APpCQBk8U3D/3v0pQgzk8n3oAQZY7j0HSn0UUAFFFFABXi3xV8BTa1Adf0SESX0S4kiHBlQdx/tD9a9popNXGnY/Nue+u4meJk8lkbDKRhge4INZ8lxNKrM7k4xX334m+HPhPxYxm1S12zt1nhOyQ/U9D+INcR/woDwPtK+bfc/8ATVP/AI3SsO58ZbiUY0wZMZA55r7RX9n/AMDLwZL4g9jKv/xFXY/gd4LiG2JrpfpIv/xFMR8Vx2F1LGAqY5/i4q1/ZyxhRK24+1fZn/CkvB56y3h/7ar/APEVG/wN8GvjMt6Mekqf/EUrMLnyfYokYAXpuFddrkklxBFFuJ3N/IV9CR/A/wAHRfdlveueZV/+IrQl+EXheYKHluvl6YkX/wCIpWY7ny5ZuLa7C9EkAH4iuojb1r3Jvgx4SfBMt3wc8SL/APEVoL8KvDa8CS5/77X/AOJp2C54UjH/AApLq68iElfvt90f1r3ofC/w8vSS5/77X/4moZPhR4alfe0t1kdMOvH/AI7RYVz5yQY+Y8sepqYPj7x4/lX0N/wqfw1nPmXP/fa//E01/hL4YcYMl1/38X/4mnYLnzncXJ4ROn86jiI+9jBr6L/4U/4W/wCet3/38X/4in/8Ki8L4A82644/1i//ABFFgufPG/B2jOaeAB1NfQ6/CXwyowJLo/WRf/iaU/Cfw0est1/38X/4miwXPn4SgALjOalR9g3dq9+Hwo8NAY8y5/77X/4ml/4VV4bxjzLnj/bX/wCJosFzwYSeYM9PrUo9OTXuw+Fnhwf8tLn/AL7X/wCJqT/hWWgf89bkf8DX/wCJpWHc8IXrtH+FSkbTljmvch8MfD46S3P/AH2v/wATTz8NPD7dXuD/AMDH/wATRYLniEW52wgP4VZlvYLJdv3pfbnFe1p8OtDjTy45J1z3DLn/ANBqhP8ACrw5cffmuh9HX8vuUWC5876jqzysfmyw7+1cyxub+by7Vd3bPYfj3r6df4LeEpAA015gdhKv/wARWrb/AAs8NWsYihadVHbcv/xNOwrnzjYeHEhImuzvfPGf8K6eOFVG1F4Pb0r3MfDvQlXaHnx/vD/CmTfDnRJl2edcoD1COo/9losFzxV5rS1A+0yAsP4Ryay5tZbfst12j1xg4/n+Ve2/8Kl8Nc4muwT1PmLn9Up6fCjw0nKy3WQMZLqT+q0rDueEG5eT58kDqeg59u9VJJUbLKee4Bz+Zr6D/wCFU+GySTJcknuXU/zWoZPhH4YkGGlusegkUf8AslFgufOklwiqFU5P+z/jVUpLKyqoySenUn8K+lB8IfCw58y6/wC/i/8AxFbFl8O/D2n826vu/vMQT+eKLMLnz1pnhC9vTukTy1Pdup/CvRdM8I2VsQ8i73Hduf06V60vhuxT7rP+Y/wqcaHagYDNRYLnGRWUUYAC4x6VaCjoQOPyrqv7Et8Y3v8Ap/hSHRLY9WbHpxRYVzl9wzx0/U0u7Pyjmum/sK2zne/6f4Un9g2uMb3/AEosO5zBOePvfyqMse1dZ/YNqf4mpp0C1PV3/T/CiwrnKlsjcKYTiut/4R+0/vv+Ypv/AAjtmTks5/Giw7nIbg3PU0m4f54Fdh/wjtmf43/Mf4Un/COWf99/zH+FFguccW7j/DFN3Aj/AArs/wDhHLL++/5ij/hHLP8Avv8AmP8ACizC5xeQOajY/rXb/wDCN2ZOd8n5j/Ck/wCEasv78n5j/ClZhc4dT1HqKhtn/eY/Cu+HhqxByHk/Mf4VGnhWwRtweTPuR/hRyhc4lyBIc9anPK8+ldi3hewZt5eTP1H+FP8A+EbssY3v+Y/wo5WFzhYzweay7gbL0n1wRXpo8M2K9Hk/Mf4VXl8I6bNIJWeUEccEf4UcoXLOhTmXTkB6rxWucHrVaz0uKxjMUDsVJz83P+FXPJP979KdhXK5yOlM3etWvIP979KabbPVv0osFzMntbecYkQH9Kx59FQ58hyCf73NdV9kH979KT7IP7xpOFxqTR55NplzByybh6rzWVLJPGDtP0Br1c2Sn+I1Wm0a0uP9cA3vjn86n2fYpVO5zULkwIT12jNRs9by+G7NDlJJV9g3H8qf/YFt3kkP4j/CnysV0c8G4qypyprbGhWwGN7/AKVINHgAwGanysVzh5T+8qeNuldS3h2zY7i7/mP8KcPD9oOjv+Y/wo5WO6OO1c/6C30rh0Hyj6V7PP4es7iIxSO+D6EZ/lWaPBGkqAA83H+0P8KUotjjJI8qPWoZ/uGvWz4I0k/xzf8AfQ/wpreBtHYYZ5v++h/hU+zZXOjwq4bAFbvgPwDc3+sjxFqqFLSHmJG4MjeuP7o/WvYLLwXoNlKJhE0zKcjzTuAP0wBXVgADA4ApwhbVinUvogooorUyCiiigAooooAKKKKAP//T+qaKKKACiiigAooooAKKKKACiiigAooooAKKKKACiiigAooooAKKKKACiiigAooooAKKKKACiiigAooooAKKKKACiiigAooooAKKKKACiiigAooooAKKKKACiiigAooooAKKKKACiiigAooooAKKKKACiiigAooooAKKKKACiiigAooooAKKKKACiiigAooooAKKKKACiiigAooooAKKKKACiiigAooooAKKKKACiiigAooooAKKKKACiiigAooooAKKKKACiiigAooooAKKKKACiiigAooooAKKKKACiiigAooooAKKKKACiiigAooooAKKKKACiiigAooooAKKKKACiiigAooooAKKKKACkpaSgD//1PqmiiigAooooAKKKKACiiigAooooAKKKKACiiigAooooAKKKKACiiigAooooAKKKKACiiigAooooAKKKKACiiigAooooAKKKKACiiigAooooAKKKKACiiigAooooAKKKKACiiigAooooAKKKKACiiigAooooAKKKKACiiigAooooAKKKKACiiigAooooAKKKKACiiigAooooAKKKKACiiigAooooAKKKKACiiigAooooAKKKKACiiigAooooAKKKKACiiigAooooAKKKKACiiigAooooAKKKKACiiigAooooAKKKKACiiigAooooAKKKKACiiigAooooAKKKKACiiigAooooAKKKKACiiigApKWigD/1fqmiiigAzSUUUAFJS0h60ALSZoooFcM0ZoooC4ZozRRQFwzRmiigLi0lFAoAWiiigYtFJS0AFFFFABRRRQAUUUUAFFFFABRRRQAUUUUAFFFFABRRRQAUUUUAFFFFABRRRQAUUUUAFFFFABRRRQAUUUUAFFFFABRRRQAUUUUAFFFFABRRRQAUUUUAFFFFABRRRQAUUUUAFFFFABRRRQAUUUUAFFFFABRRRQAUUUUAFFFFABRRRQAUUUUAFFFFABRRRQAUUUUAFFFFABRRRQAUUUUAFFFFABRRRQAUUUUAFFFFABRRRQAUUUUAFFFFABRRRQAUUUUAFFFFABRRRQAUUUUAFFFFABRRRQAUUUUAFFFFABRRRQAUUUUAFFFFAH/2Q==;" vertex="1" parent="1">
          <mxGeometry x="220" y="1490" width="500" height="818.52" as="geometry" />
        </mxCell>
      </root>
    </mxGraphModel>
  </diagram>
</mxfile>
